%TF.GenerationSoftware,KiCad,Pcbnew,(6.0.0-0)*%
%TF.CreationDate,2022-04-09T04:09:41-05:00*%
%TF.ProjectId,ESP32RelaySwitcher,45535033-3252-4656-9c61-795377697463,rev?*%
%TF.SameCoordinates,Original*%
%TF.FileFunction,Legend,Bot*%
%TF.FilePolarity,Positive*%
%FSLAX46Y46*%
G04 Gerber Fmt 4.6, Leading zero omitted, Abs format (unit mm)*
G04 Created by KiCad (PCBNEW (6.0.0-0)) date 2022-04-09 04:09:41*
%MOMM*%
%LPD*%
G01*
G04 APERTURE LIST*
%ADD10C,0.200000*%
%ADD11C,0.160000*%
%ADD12C,0.150000*%
G04 APERTURE END LIST*
D10*
%TO.C,J9*%
X208309523Y-123452380D02*
X208309523Y-122452380D01*
X207738095Y-123452380D01*
X207738095Y-122452380D01*
X207071428Y-122452380D02*
X206880952Y-122452380D01*
X206785714Y-122500000D01*
X206690476Y-122595238D01*
X206642857Y-122785714D01*
X206642857Y-123119047D01*
X206690476Y-123309523D01*
X206785714Y-123404761D01*
X206880952Y-123452380D01*
X207071428Y-123452380D01*
X207166666Y-123404761D01*
X207261904Y-123309523D01*
X207309523Y-123119047D01*
X207309523Y-122785714D01*
X207261904Y-122595238D01*
X207166666Y-122500000D01*
X207071428Y-122452380D01*
X200219150Y-123357142D02*
X200266769Y-123404761D01*
X200409626Y-123452380D01*
X200504864Y-123452380D01*
X200647721Y-123404761D01*
X200742959Y-123309523D01*
X200790578Y-123214285D01*
X200838197Y-123023809D01*
X200838197Y-122880952D01*
X200790578Y-122690476D01*
X200742959Y-122595238D01*
X200647721Y-122500000D01*
X200504864Y-122452380D01*
X200409626Y-122452380D01*
X200266769Y-122500000D01*
X200219150Y-122547619D01*
X204785714Y-123452380D02*
X204785714Y-122452380D01*
X204214285Y-123452380D01*
X204214285Y-122452380D01*
X203166666Y-123357142D02*
X203214285Y-123404761D01*
X203357142Y-123452380D01*
X203452380Y-123452380D01*
X203595238Y-123404761D01*
X203690476Y-123309523D01*
X203738095Y-123214285D01*
X203785714Y-123023809D01*
X203785714Y-122880952D01*
X203738095Y-122690476D01*
X203690476Y-122595238D01*
X203595238Y-122500000D01*
X203452380Y-122452380D01*
X203357142Y-122452380D01*
X203214285Y-122500000D01*
X203166666Y-122547619D01*
%TO.C,J3*%
X99035714Y-123452380D02*
X99035714Y-122452380D01*
X98464285Y-123452380D01*
X98464285Y-122452380D01*
X97416666Y-123357142D02*
X97464285Y-123404761D01*
X97607142Y-123452380D01*
X97702380Y-123452380D01*
X97845238Y-123404761D01*
X97940476Y-123309523D01*
X97988095Y-123214285D01*
X98035714Y-123023809D01*
X98035714Y-122880952D01*
X97988095Y-122690476D01*
X97940476Y-122595238D01*
X97845238Y-122500000D01*
X97702380Y-122452380D01*
X97607142Y-122452380D01*
X97464285Y-122500000D01*
X97416666Y-122547619D01*
X102559523Y-123452380D02*
X102559523Y-122452380D01*
X101988095Y-123452380D01*
X101988095Y-122452380D01*
X101321428Y-122452380D02*
X101130952Y-122452380D01*
X101035714Y-122500000D01*
X100940476Y-122595238D01*
X100892857Y-122785714D01*
X100892857Y-123119047D01*
X100940476Y-123309523D01*
X101035714Y-123404761D01*
X101130952Y-123452380D01*
X101321428Y-123452380D01*
X101416666Y-123404761D01*
X101511904Y-123309523D01*
X101559523Y-123119047D01*
X101559523Y-122785714D01*
X101511904Y-122595238D01*
X101416666Y-122500000D01*
X101321428Y-122452380D01*
X94469150Y-123357142D02*
X94516769Y-123404761D01*
X94659626Y-123452380D01*
X94754864Y-123452380D01*
X94897721Y-123404761D01*
X94992959Y-123309523D01*
X95040578Y-123214285D01*
X95088197Y-123023809D01*
X95088197Y-122880952D01*
X95040578Y-122690476D01*
X94992959Y-122595238D01*
X94897721Y-122500000D01*
X94754864Y-122452380D01*
X94659626Y-122452380D01*
X94516769Y-122500000D01*
X94469150Y-122547619D01*
%TO.C,J4*%
X112446057Y-123357142D02*
X112493676Y-123404761D01*
X112636533Y-123452380D01*
X112731771Y-123452380D01*
X112874628Y-123404761D01*
X112969866Y-123309523D01*
X113017485Y-123214285D01*
X113065104Y-123023809D01*
X113065104Y-122880952D01*
X113017485Y-122690476D01*
X112969866Y-122595238D01*
X112874628Y-122500000D01*
X112731771Y-122452380D01*
X112636533Y-122452380D01*
X112493676Y-122500000D01*
X112446057Y-122547619D01*
X117049758Y-123452380D02*
X117049758Y-122452380D01*
X116478329Y-123452380D01*
X116478329Y-122452380D01*
X115430710Y-123357142D02*
X115478329Y-123404761D01*
X115621186Y-123452380D01*
X115716424Y-123452380D01*
X115859282Y-123404761D01*
X115954520Y-123309523D01*
X116002139Y-123214285D01*
X116049758Y-123023809D01*
X116049758Y-122880952D01*
X116002139Y-122690476D01*
X115954520Y-122595238D01*
X115859282Y-122500000D01*
X115716424Y-122452380D01*
X115621186Y-122452380D01*
X115478329Y-122500000D01*
X115430710Y-122547619D01*
X120573567Y-123452380D02*
X120573567Y-122452380D01*
X120002139Y-123452380D01*
X120002139Y-122452380D01*
X119335472Y-122452380D02*
X119144996Y-122452380D01*
X119049758Y-122500000D01*
X118954520Y-122595238D01*
X118906901Y-122785714D01*
X118906901Y-123119047D01*
X118954520Y-123309523D01*
X119049758Y-123404761D01*
X119144996Y-123452380D01*
X119335472Y-123452380D01*
X119430710Y-123404761D01*
X119525948Y-123309523D01*
X119573567Y-123119047D01*
X119573567Y-122785714D01*
X119525948Y-122595238D01*
X119430710Y-122500000D01*
X119335472Y-122452380D01*
%TO.C,J6*%
X156573567Y-123452380D02*
X156573567Y-122452380D01*
X156002139Y-123452380D01*
X156002139Y-122452380D01*
X155335472Y-122452380D02*
X155144996Y-122452380D01*
X155049758Y-122500000D01*
X154954520Y-122595238D01*
X154906901Y-122785714D01*
X154906901Y-123119047D01*
X154954520Y-123309523D01*
X155049758Y-123404761D01*
X155144996Y-123452380D01*
X155335472Y-123452380D01*
X155430710Y-123404761D01*
X155525948Y-123309523D01*
X155573567Y-123119047D01*
X155573567Y-122785714D01*
X155525948Y-122595238D01*
X155430710Y-122500000D01*
X155335472Y-122452380D01*
X153036074Y-123452380D02*
X153036074Y-122452380D01*
X152464645Y-123452380D01*
X152464645Y-122452380D01*
X151417026Y-123357142D02*
X151464645Y-123404761D01*
X151607502Y-123452380D01*
X151702740Y-123452380D01*
X151845598Y-123404761D01*
X151940836Y-123309523D01*
X151988455Y-123214285D01*
X152036074Y-123023809D01*
X152036074Y-122880952D01*
X151988455Y-122690476D01*
X151940836Y-122595238D01*
X151845598Y-122500000D01*
X151702740Y-122452380D01*
X151607502Y-122452380D01*
X151464645Y-122500000D01*
X151417026Y-122547619D01*
X148440836Y-123357142D02*
X148488455Y-123404761D01*
X148631312Y-123452380D01*
X148726550Y-123452380D01*
X148869407Y-123404761D01*
X148964645Y-123309523D01*
X149012264Y-123214285D01*
X149059883Y-123023809D01*
X149059883Y-122880952D01*
X149012264Y-122690476D01*
X148964645Y-122595238D01*
X148869407Y-122500000D01*
X148726550Y-122452380D01*
X148631312Y-122452380D01*
X148488455Y-122500000D01*
X148440836Y-122547619D01*
%TO.C,J7*%
X166451276Y-123357142D02*
X166498895Y-123404761D01*
X166641752Y-123452380D01*
X166736990Y-123452380D01*
X166879847Y-123404761D01*
X166975085Y-123309523D01*
X167022704Y-123214285D01*
X167070323Y-123023809D01*
X167070323Y-122880952D01*
X167022704Y-122690476D01*
X166975085Y-122595238D01*
X166879847Y-122500000D01*
X166736990Y-122452380D01*
X166641752Y-122452380D01*
X166498895Y-122500000D01*
X166451276Y-122547619D01*
X171046514Y-123452380D02*
X171046514Y-122452380D01*
X170475085Y-123452380D01*
X170475085Y-122452380D01*
X169427466Y-123357142D02*
X169475085Y-123404761D01*
X169617942Y-123452380D01*
X169713180Y-123452380D01*
X169856038Y-123404761D01*
X169951276Y-123309523D01*
X169998895Y-123214285D01*
X170046514Y-123023809D01*
X170046514Y-122880952D01*
X169998895Y-122690476D01*
X169951276Y-122595238D01*
X169856038Y-122500000D01*
X169713180Y-122452380D01*
X169617942Y-122452380D01*
X169475085Y-122500000D01*
X169427466Y-122547619D01*
X174570323Y-123452380D02*
X174570323Y-122452380D01*
X173998895Y-123452380D01*
X173998895Y-122452380D01*
X173332228Y-122452380D02*
X173141752Y-122452380D01*
X173046514Y-122500000D01*
X172951276Y-122595238D01*
X172903657Y-122785714D01*
X172903657Y-123119047D01*
X172951276Y-123309523D01*
X173046514Y-123404761D01*
X173141752Y-123452380D01*
X173332228Y-123452380D01*
X173427466Y-123404761D01*
X173522704Y-123309523D01*
X173570323Y-123119047D01*
X173570323Y-122785714D01*
X173522704Y-122595238D01*
X173427466Y-122500000D01*
X173332228Y-122452380D01*
%TO.C,J8*%
X189045605Y-123452380D02*
X189045605Y-122452380D01*
X188474176Y-123452380D01*
X188474176Y-122452380D01*
X187426557Y-123357142D02*
X187474176Y-123404761D01*
X187617033Y-123452380D01*
X187712271Y-123452380D01*
X187855129Y-123404761D01*
X187950367Y-123309523D01*
X187997986Y-123214285D01*
X188045605Y-123023809D01*
X188045605Y-122880952D01*
X187997986Y-122690476D01*
X187950367Y-122595238D01*
X187855129Y-122500000D01*
X187712271Y-122452380D01*
X187617033Y-122452380D01*
X187474176Y-122500000D01*
X187426557Y-122547619D01*
X184450367Y-123357142D02*
X184497986Y-123404761D01*
X184640843Y-123452380D01*
X184736081Y-123452380D01*
X184878938Y-123404761D01*
X184974176Y-123309523D01*
X185021795Y-123214285D01*
X185069414Y-123023809D01*
X185069414Y-122880952D01*
X185021795Y-122690476D01*
X184974176Y-122595238D01*
X184878938Y-122500000D01*
X184736081Y-122452380D01*
X184640843Y-122452380D01*
X184497986Y-122500000D01*
X184450367Y-122547619D01*
X192569414Y-123452380D02*
X192569414Y-122452380D01*
X191997986Y-123452380D01*
X191997986Y-122452380D01*
X191331319Y-122452380D02*
X191140843Y-122452380D01*
X191045605Y-122500000D01*
X190950367Y-122595238D01*
X190902748Y-122785714D01*
X190902748Y-123119047D01*
X190950367Y-123309523D01*
X191045605Y-123404761D01*
X191140843Y-123452380D01*
X191331319Y-123452380D01*
X191426557Y-123404761D01*
X191521795Y-123309523D01*
X191569414Y-123119047D01*
X191569414Y-122785714D01*
X191521795Y-122595238D01*
X191426557Y-122500000D01*
X191331319Y-122452380D01*
%TO.C,J5*%
X130449877Y-123357142D02*
X130497496Y-123404761D01*
X130640353Y-123452380D01*
X130735591Y-123452380D01*
X130878448Y-123404761D01*
X130973686Y-123309523D01*
X131021305Y-123214285D01*
X131068924Y-123023809D01*
X131068924Y-122880952D01*
X131021305Y-122690476D01*
X130973686Y-122595238D01*
X130878448Y-122500000D01*
X130735591Y-122452380D01*
X130640353Y-122452380D01*
X130497496Y-122500000D01*
X130449877Y-122547619D01*
X138573567Y-123452380D02*
X138573567Y-122452380D01*
X138002139Y-123452380D01*
X138002139Y-122452380D01*
X137335472Y-122452380D02*
X137144996Y-122452380D01*
X137049758Y-122500000D01*
X136954520Y-122595238D01*
X136906901Y-122785714D01*
X136906901Y-123119047D01*
X136954520Y-123309523D01*
X137049758Y-123404761D01*
X137144996Y-123452380D01*
X137335472Y-123452380D01*
X137430710Y-123404761D01*
X137525948Y-123309523D01*
X137573567Y-123119047D01*
X137573567Y-122785714D01*
X137525948Y-122595238D01*
X137430710Y-122500000D01*
X137335472Y-122452380D01*
X135049758Y-123452380D02*
X135049758Y-122452380D01*
X134478329Y-123452380D01*
X134478329Y-122452380D01*
X133430710Y-123357142D02*
X133478329Y-123404761D01*
X133621186Y-123452380D01*
X133716424Y-123452380D01*
X133859282Y-123404761D01*
X133954520Y-123309523D01*
X134002139Y-123214285D01*
X134049758Y-123023809D01*
X134049758Y-122880952D01*
X134002139Y-122690476D01*
X133954520Y-122595238D01*
X133859282Y-122500000D01*
X133716424Y-122452380D01*
X133621186Y-122452380D01*
X133478329Y-122500000D01*
X133430710Y-122547619D01*
%TO.C,J2*%
X87073567Y-123452380D02*
X87073567Y-122452380D01*
X86502139Y-123452380D01*
X86502139Y-122452380D01*
X85835472Y-122452380D02*
X85644996Y-122452380D01*
X85549758Y-122500000D01*
X85454520Y-122595238D01*
X85406901Y-122785714D01*
X85406901Y-123119047D01*
X85454520Y-123309523D01*
X85549758Y-123404761D01*
X85644996Y-123452380D01*
X85835472Y-123452380D01*
X85930710Y-123404761D01*
X86025948Y-123309523D01*
X86073567Y-123119047D01*
X86073567Y-122785714D01*
X86025948Y-122595238D01*
X85930710Y-122500000D01*
X85835472Y-122452380D01*
X78954520Y-123357142D02*
X79002139Y-123404761D01*
X79144996Y-123452380D01*
X79240234Y-123452380D01*
X79383091Y-123404761D01*
X79478329Y-123309523D01*
X79525948Y-123214285D01*
X79573567Y-123023809D01*
X79573567Y-122880952D01*
X79525948Y-122690476D01*
X79478329Y-122595238D01*
X79383091Y-122500000D01*
X79240234Y-122452380D01*
X79144996Y-122452380D01*
X79002139Y-122500000D01*
X78954520Y-122547619D01*
X83549758Y-123452380D02*
X83549758Y-122452380D01*
X82978329Y-123452380D01*
X82978329Y-122452380D01*
X81930710Y-123357142D02*
X81978329Y-123404761D01*
X82121186Y-123452380D01*
X82216424Y-123452380D01*
X82359282Y-123404761D01*
X82454520Y-123309523D01*
X82502139Y-123214285D01*
X82549758Y-123023809D01*
X82549758Y-122880952D01*
X82502139Y-122690476D01*
X82454520Y-122595238D01*
X82359282Y-122500000D01*
X82216424Y-122452380D01*
X82121186Y-122452380D01*
X81978329Y-122500000D01*
X81930710Y-122547619D01*
%TO.C,JP2*%
X97216424Y-92654777D02*
X97930710Y-92654777D01*
X98073567Y-92607158D01*
X98168805Y-92511920D01*
X98216424Y-92369063D01*
X98216424Y-92273825D01*
X98216424Y-93130968D02*
X97216424Y-93130968D01*
X97216424Y-93511920D01*
X97264044Y-93607158D01*
X97311663Y-93654777D01*
X97406901Y-93702396D01*
X97549758Y-93702396D01*
X97644996Y-93654777D01*
X97692615Y-93607158D01*
X97740234Y-93511920D01*
X97740234Y-93130968D01*
X97311663Y-94083349D02*
X97264044Y-94130968D01*
X97216424Y-94226206D01*
X97216424Y-94464301D01*
X97264044Y-94559539D01*
X97311663Y-94607158D01*
X97406901Y-94654777D01*
X97502139Y-94654777D01*
X97644996Y-94607158D01*
X98216424Y-94035730D01*
X98216424Y-94654777D01*
X101228313Y-90168821D02*
X101942599Y-90168821D01*
X102085456Y-90121202D01*
X102180694Y-90025964D01*
X102228313Y-89883107D01*
X102228313Y-89787869D01*
X102228313Y-91168821D02*
X102228313Y-90597393D01*
X102228313Y-90883107D02*
X101228313Y-90883107D01*
X101371171Y-90787869D01*
X101466409Y-90692631D01*
X101514028Y-90597393D01*
X101228313Y-91787869D02*
X101228313Y-91883107D01*
X101275933Y-91978345D01*
X101323552Y-92025964D01*
X101418790Y-92073583D01*
X101609266Y-92121202D01*
X101847361Y-92121202D01*
X102037837Y-92073583D01*
X102133075Y-92025964D01*
X102180694Y-91978345D01*
X102228313Y-91883107D01*
X102228313Y-91787869D01*
X102180694Y-91692631D01*
X102133075Y-91645012D01*
X102037837Y-91597393D01*
X101847361Y-91549774D01*
X101609266Y-91549774D01*
X101418790Y-91597393D01*
X101323552Y-91645012D01*
X101275933Y-91692631D01*
X101228313Y-91787869D01*
X102323552Y-92311678D02*
X102323552Y-93073583D01*
X101228313Y-93168821D02*
X102228313Y-93502155D01*
X101228313Y-93835488D01*
X102323552Y-93930726D02*
X102323552Y-94692631D01*
X102180694Y-94883107D02*
X102228313Y-95025964D01*
X102228313Y-95264059D01*
X102180694Y-95359297D01*
X102133075Y-95406916D01*
X102037837Y-95454535D01*
X101942599Y-95454535D01*
X101847361Y-95406916D01*
X101799742Y-95359297D01*
X101752123Y-95264059D01*
X101704504Y-95073583D01*
X101656885Y-94978345D01*
X101609266Y-94930726D01*
X101514028Y-94883107D01*
X101418790Y-94883107D01*
X101323552Y-94930726D01*
X101275933Y-94978345D01*
X101228313Y-95073583D01*
X101228313Y-95311678D01*
X101275933Y-95454535D01*
X101704504Y-95883107D02*
X101704504Y-96216440D01*
X102228313Y-96359297D02*
X102228313Y-95883107D01*
X101228313Y-95883107D01*
X101228313Y-96359297D01*
X102228313Y-97264059D02*
X102228313Y-96787869D01*
X101228313Y-96787869D01*
D11*
X99325948Y-96349774D02*
X99325948Y-95968821D01*
X99706901Y-95930726D01*
X99668805Y-95968821D01*
X99630710Y-96045012D01*
X99630710Y-96235488D01*
X99668805Y-96311678D01*
X99706901Y-96349774D01*
X99783091Y-96387869D01*
X99973567Y-96387869D01*
X100049758Y-96349774D01*
X100087853Y-96311678D01*
X100125948Y-96235488D01*
X100125948Y-96045012D01*
X100087853Y-95968821D01*
X100049758Y-95930726D01*
X99325948Y-96616440D02*
X100125948Y-96883107D01*
X99325948Y-97149774D01*
X99325948Y-89011678D02*
X99325948Y-89506916D01*
X99630710Y-89240250D01*
X99630710Y-89354535D01*
X99668805Y-89430726D01*
X99706901Y-89468821D01*
X99783091Y-89506916D01*
X99973567Y-89506916D01*
X100049758Y-89468821D01*
X100087853Y-89430726D01*
X100125948Y-89354535D01*
X100125948Y-89125964D01*
X100087853Y-89049774D01*
X100049758Y-89011678D01*
X99325948Y-89735488D02*
X100125948Y-90002155D01*
X99325948Y-90268821D01*
X99325948Y-90459297D02*
X99325948Y-90954535D01*
X99630710Y-90687869D01*
X99630710Y-90802155D01*
X99668805Y-90878345D01*
X99706901Y-90916440D01*
X99783091Y-90954535D01*
X99973567Y-90954535D01*
X100049758Y-90916440D01*
X100087853Y-90878345D01*
X100125948Y-90802155D01*
X100125948Y-90573583D01*
X100087853Y-90497393D01*
X100049758Y-90459297D01*
D10*
%TO.C,JP3*%
X91716424Y-92654777D02*
X92430710Y-92654777D01*
X92573567Y-92607158D01*
X92668805Y-92511920D01*
X92716424Y-92369063D01*
X92716424Y-92273825D01*
X92716424Y-93130968D02*
X91716424Y-93130968D01*
X91716424Y-93511920D01*
X91764044Y-93607158D01*
X91811663Y-93654777D01*
X91906901Y-93702396D01*
X92049758Y-93702396D01*
X92144996Y-93654777D01*
X92192615Y-93607158D01*
X92240234Y-93511920D01*
X92240234Y-93130968D01*
X91716424Y-94035730D02*
X91716424Y-94654777D01*
X92097377Y-94321444D01*
X92097377Y-94464301D01*
X92144996Y-94559539D01*
X92192615Y-94607158D01*
X92287853Y-94654777D01*
X92525948Y-94654777D01*
X92621186Y-94607158D01*
X92668805Y-94559539D01*
X92716424Y-94464301D01*
X92716424Y-94178587D01*
X92668805Y-94083349D01*
X92621186Y-94035730D01*
X95716424Y-90154777D02*
X96430710Y-90154777D01*
X96573567Y-90107158D01*
X96668805Y-90011920D01*
X96716424Y-89869063D01*
X96716424Y-89773825D01*
X96716424Y-91154777D02*
X96716424Y-90583349D01*
X96716424Y-90869063D02*
X95716424Y-90869063D01*
X95859282Y-90773825D01*
X95954520Y-90678587D01*
X96002139Y-90583349D01*
X96716424Y-91630968D02*
X96716424Y-91821444D01*
X96668805Y-91916682D01*
X96621186Y-91964301D01*
X96478329Y-92059539D01*
X96287853Y-92107158D01*
X95906901Y-92107158D01*
X95811663Y-92059539D01*
X95764044Y-92011920D01*
X95716424Y-91916682D01*
X95716424Y-91726206D01*
X95764044Y-91630968D01*
X95811663Y-91583349D01*
X95906901Y-91535730D01*
X96144996Y-91535730D01*
X96240234Y-91583349D01*
X96287853Y-91630968D01*
X96335472Y-91726206D01*
X96335472Y-91916682D01*
X96287853Y-92011920D01*
X96240234Y-92059539D01*
X96144996Y-92107158D01*
X96811663Y-92297634D02*
X96811663Y-93059539D01*
X95716424Y-93154777D02*
X96716424Y-93488111D01*
X95716424Y-93821444D01*
X96811663Y-93916682D02*
X96811663Y-94678587D01*
X96668805Y-94869063D02*
X96716424Y-95011920D01*
X96716424Y-95250015D01*
X96668805Y-95345253D01*
X96621186Y-95392872D01*
X96525948Y-95440491D01*
X96430710Y-95440491D01*
X96335472Y-95392872D01*
X96287853Y-95345253D01*
X96240234Y-95250015D01*
X96192615Y-95059539D01*
X96144996Y-94964301D01*
X96097377Y-94916682D01*
X96002139Y-94869063D01*
X95906901Y-94869063D01*
X95811663Y-94916682D01*
X95764044Y-94964301D01*
X95716424Y-95059539D01*
X95716424Y-95297634D01*
X95764044Y-95440491D01*
X96192615Y-95869063D02*
X96192615Y-96202396D01*
X96716424Y-96345253D02*
X96716424Y-95869063D01*
X95716424Y-95869063D01*
X95716424Y-96345253D01*
X96716424Y-97250015D02*
X96716424Y-96773825D01*
X95716424Y-96773825D01*
D11*
X93825948Y-96349774D02*
X93825948Y-95968821D01*
X94206901Y-95930726D01*
X94168805Y-95968821D01*
X94130710Y-96045012D01*
X94130710Y-96235488D01*
X94168805Y-96311678D01*
X94206901Y-96349774D01*
X94283091Y-96387869D01*
X94473567Y-96387869D01*
X94549758Y-96349774D01*
X94587853Y-96311678D01*
X94625948Y-96235488D01*
X94625948Y-96045012D01*
X94587853Y-95968821D01*
X94549758Y-95930726D01*
X93825948Y-96616440D02*
X94625948Y-96883107D01*
X93825948Y-97149774D01*
X93825948Y-89011678D02*
X93825948Y-89506916D01*
X94130710Y-89240250D01*
X94130710Y-89354535D01*
X94168805Y-89430726D01*
X94206901Y-89468821D01*
X94283091Y-89506916D01*
X94473567Y-89506916D01*
X94549758Y-89468821D01*
X94587853Y-89430726D01*
X94625948Y-89354535D01*
X94625948Y-89125964D01*
X94587853Y-89049774D01*
X94549758Y-89011678D01*
X93825948Y-89735488D02*
X94625948Y-90002155D01*
X93825948Y-90268821D01*
X93825948Y-90459297D02*
X93825948Y-90954535D01*
X94130710Y-90687869D01*
X94130710Y-90802155D01*
X94168805Y-90878345D01*
X94206901Y-90916440D01*
X94283091Y-90954535D01*
X94473567Y-90954535D01*
X94549758Y-90916440D01*
X94587853Y-90878345D01*
X94625948Y-90802155D01*
X94625948Y-90573583D01*
X94587853Y-90497393D01*
X94549758Y-90459297D01*
D12*
%TO.C,JP2*%
X98764044Y-92088111D02*
X98764044Y-94888111D01*
X98264044Y-94988111D02*
X98264044Y-94388111D01*
X100064044Y-91438111D02*
X99464044Y-91438111D01*
X98564044Y-94688111D02*
X98264044Y-94388111D01*
X98564044Y-94688111D02*
X98264044Y-94988111D01*
X100764044Y-94888111D02*
X100764044Y-92088111D01*
X99464044Y-95538111D02*
X100064044Y-95538111D01*
X99464044Y-91438111D02*
G75*
G03*
X98764044Y-92138111I-1J-699999D01*
G01*
X98764044Y-94838111D02*
G75*
G03*
X99464044Y-95538111I699999J-1D01*
G01*
X100064044Y-95538111D02*
G75*
G03*
X100764044Y-94838111I1J699999D01*
G01*
X100764044Y-92138111D02*
G75*
G03*
X100064044Y-91438111I-699999J1D01*
G01*
%TO.C,JP3*%
X94564044Y-91438111D02*
X93964044Y-91438111D01*
X93964044Y-95538111D02*
X94564044Y-95538111D01*
X95264044Y-94888111D02*
X95264044Y-92088111D01*
X93264044Y-92088111D02*
X93264044Y-94888111D01*
X93064044Y-94688111D02*
X92764044Y-94988111D01*
X93064044Y-94688111D02*
X92764044Y-94388111D01*
X92764044Y-94988111D02*
X92764044Y-94388111D01*
X95264044Y-92138111D02*
G75*
G03*
X94564044Y-91438111I-699999J1D01*
G01*
X93264044Y-94838111D02*
G75*
G03*
X93964044Y-95538111I699999J-1D01*
G01*
X93964044Y-91438111D02*
G75*
G03*
X93264044Y-92138111I-1J-699999D01*
G01*
X94564044Y-95538111D02*
G75*
G03*
X95264044Y-94838111I1J699999D01*
G01*
%TD*%
M02*
