%TF.GenerationSoftware,KiCad,Pcbnew,(6.0.0-0)*%
%TF.CreationDate,2022-04-09T17:51:33-05:00*%
%TF.ProjectId,ESP32RelaySwitcher,45535033-3252-4656-9c61-795377697463,rev?*%
%TF.SameCoordinates,Original*%
%TF.FileFunction,Soldermask,Bot*%
%TF.FilePolarity,Negative*%
%FSLAX46Y46*%
G04 Gerber Fmt 4.6, Leading zero omitted, Abs format (unit mm)*
G04 Created by KiCad (PCBNEW (6.0.0-0)) date 2022-04-09 17:51:33*
%MOMM*%
%LPD*%
G01*
G04 APERTURE LIST*
G04 Aperture macros list*
%AMRoundRect*
0 Rectangle with rounded corners*
0 $1 Rounding radius*
0 $2 $3 $4 $5 $6 $7 $8 $9 X,Y pos of 4 corners*
0 Add a 4 corners polygon primitive as box body*
4,1,4,$2,$3,$4,$5,$6,$7,$8,$9,$2,$3,0*
0 Add four circle primitives for the rounded corners*
1,1,$1+$1,$2,$3*
1,1,$1+$1,$4,$5*
1,1,$1+$1,$6,$7*
1,1,$1+$1,$8,$9*
0 Add four rect primitives between the rounded corners*
20,1,$1+$1,$2,$3,$4,$5,0*
20,1,$1+$1,$4,$5,$6,$7,0*
20,1,$1+$1,$6,$7,$8,$9,0*
20,1,$1+$1,$8,$9,$2,$3,0*%
%AMFreePoly0*
4,1,22,0.550000,-0.750000,0.000000,-0.750000,0.000000,-0.745033,-0.079941,-0.743568,-0.215256,-0.701293,-0.333266,-0.622738,-0.424486,-0.514219,-0.481581,-0.384460,-0.499164,-0.250000,-0.500000,-0.250000,-0.500000,0.250000,-0.499164,0.250000,-0.499963,0.256109,-0.478152,0.396186,-0.417904,0.524511,-0.324060,0.630769,-0.204165,0.706417,-0.067858,0.745374,0.000000,0.744959,0.000000,0.750000,
0.550000,0.750000,0.550000,-0.750000,0.550000,-0.750000,$1*%
%AMFreePoly1*
4,1,20,0.000000,0.744959,0.073905,0.744508,0.209726,0.703889,0.328688,0.626782,0.421226,0.519385,0.479903,0.390333,0.500000,0.250000,0.500000,-0.250000,0.499851,-0.262216,0.476331,-0.402017,0.414519,-0.529596,0.319384,-0.634700,0.198574,-0.708877,0.061801,-0.746166,0.000000,-0.745033,0.000000,-0.750000,-0.550000,-0.750000,-0.550000,0.750000,0.000000,0.750000,0.000000,0.744959,
0.000000,0.744959,$1*%
G04 Aperture macros list end*
%ADD10R,1.700000X1.700000*%
%ADD11O,1.700000X1.700000*%
%ADD12R,2.400000X2.400000*%
%ADD13C,2.400000*%
%ADD14R,1.501140X1.501140*%
%ADD15C,1.501140*%
%ADD16C,0.800000*%
%ADD17C,6.400000*%
%ADD18C,1.600000*%
%ADD19RoundRect,0.400000X0.400000X0.400000X-0.400000X0.400000X-0.400000X-0.400000X0.400000X-0.400000X0*%
%ADD20C,2.100000*%
%ADD21C,1.750000*%
%ADD22RoundRect,0.250200X-0.649800X-0.649800X0.649800X-0.649800X0.649800X0.649800X-0.649800X0.649800X0*%
%ADD23C,1.800000*%
%ADD24FreePoly0,90.000000*%
%ADD25R,1.500000X1.000000*%
%ADD26FreePoly1,90.000000*%
G04 APERTURE END LIST*
D10*
%TO.C,J19*%
X104764044Y-90513111D03*
D11*
X102224044Y-90513111D03*
%TD*%
D12*
%TO.C,J9*%
X200500000Y-119776777D03*
D13*
X204000000Y-119776777D03*
X207500000Y-119776777D03*
%TD*%
D14*
%TO.C,K8*%
X212714044Y-105988111D03*
D15*
X200014044Y-105988111D03*
X200014044Y-113608111D03*
X207634044Y-113608111D03*
X212714044Y-113608111D03*
%TD*%
D12*
%TO.C,J14*%
X158289044Y-65717041D03*
D13*
X154789044Y-65717041D03*
%TD*%
D14*
%TO.C,K3*%
X122714044Y-105988111D03*
D15*
X110014044Y-105988111D03*
X110014044Y-113608111D03*
X117634044Y-113608111D03*
X122714044Y-113608111D03*
%TD*%
D12*
%TO.C,J18*%
X194289044Y-65717041D03*
D13*
X190789044Y-65717041D03*
%TD*%
D16*
%TO.C,H1*%
X70114044Y-120488111D03*
X74211100Y-122185167D03*
X70816988Y-122185167D03*
X70816988Y-118791055D03*
D17*
X72514044Y-120488111D03*
D16*
X72514044Y-122888111D03*
X72514044Y-118088111D03*
X74914044Y-120488111D03*
X74211100Y-118791055D03*
%TD*%
D18*
%TO.C,SW1*%
X217977967Y-75807041D03*
X217977967Y-70727041D03*
D19*
X212897967Y-70727041D03*
D18*
X212897967Y-73267041D03*
X212897967Y-75807041D03*
%TD*%
D12*
%TO.C,J12*%
X140289044Y-65717041D03*
D13*
X136789044Y-65717041D03*
%TD*%
D12*
%TO.C,J15*%
X167289044Y-65717041D03*
D13*
X163789044Y-65717041D03*
%TD*%
D12*
%TO.C,J3*%
X94750000Y-119787644D03*
D13*
X98250000Y-119787644D03*
X101750000Y-119787644D03*
%TD*%
D16*
%TO.C,H3*%
X217887610Y-65017041D03*
X215487610Y-62617041D03*
D17*
X215487610Y-65017041D03*
D16*
X213087610Y-65017041D03*
X213790554Y-63319985D03*
X213790554Y-66714097D03*
X217184666Y-63319985D03*
X217184666Y-66714097D03*
X215487610Y-67417041D03*
%TD*%
D12*
%TO.C,J4*%
X112755581Y-119788111D03*
D13*
X116255581Y-119788111D03*
X119755581Y-119788111D03*
%TD*%
D14*
%TO.C,K1*%
X86714044Y-105988111D03*
D15*
X74014044Y-105988111D03*
X74014044Y-113608111D03*
X81634044Y-113608111D03*
X86714044Y-113608111D03*
%TD*%
D20*
%TO.C,SW2*%
X123274044Y-65969541D03*
X116264044Y-65969541D03*
D21*
X117514044Y-63479541D03*
X122014044Y-63479541D03*
%TD*%
D12*
%TO.C,J13*%
X149289044Y-65717041D03*
D13*
X145789044Y-65717041D03*
%TD*%
D16*
%TO.C,H4*%
X72514044Y-62617041D03*
X70816988Y-66714097D03*
D17*
X72514044Y-65017041D03*
D16*
X70816988Y-63319985D03*
X74211100Y-66714097D03*
X72514044Y-67417041D03*
X74914044Y-65017041D03*
X70114044Y-65017041D03*
X74211100Y-63319985D03*
%TD*%
%TO.C,H2*%
X215487610Y-122888111D03*
X217887610Y-120488111D03*
X217184666Y-118791055D03*
X215487610Y-118088111D03*
X213790554Y-122185167D03*
X213790554Y-118791055D03*
X217184666Y-122185167D03*
X213087610Y-120488111D03*
D17*
X215487610Y-120488111D03*
%TD*%
D12*
%TO.C,J6*%
X148750360Y-119788111D03*
D13*
X152250360Y-119788111D03*
X155750360Y-119788111D03*
%TD*%
D12*
%TO.C,J7*%
X166760800Y-119788111D03*
D13*
X170260800Y-119788111D03*
X173760800Y-119788111D03*
%TD*%
D10*
%TO.C,J21*%
X79264044Y-63267041D03*
D11*
X81804044Y-63267041D03*
X84344044Y-63267041D03*
X86884044Y-63267041D03*
X89424044Y-63267041D03*
X91964044Y-63267041D03*
X94504044Y-63267041D03*
X97044044Y-63267041D03*
X99584044Y-63267041D03*
X102124044Y-63267041D03*
%TD*%
D14*
%TO.C,K7*%
X194714044Y-105988111D03*
D15*
X182014044Y-105988111D03*
X182014044Y-113608111D03*
X189634044Y-113608111D03*
X194714044Y-113608111D03*
%TD*%
D20*
%TO.C,SW3*%
X105764044Y-65969541D03*
X112774044Y-65969541D03*
D21*
X107014044Y-63479541D03*
X111514044Y-63479541D03*
%TD*%
D14*
%TO.C,K6*%
X176714044Y-105988111D03*
D15*
X164014044Y-105988111D03*
X164014044Y-113608111D03*
X171634044Y-113608111D03*
X176714044Y-113608111D03*
%TD*%
D12*
%TO.C,J10*%
X108564044Y-85738111D03*
D13*
X108564044Y-82238111D03*
X108564044Y-78738111D03*
%TD*%
D18*
%TO.C,RV1*%
X208618183Y-79517041D03*
X206818183Y-84517041D03*
%TD*%
D12*
%TO.C,J8*%
X184759891Y-119788111D03*
D13*
X188259891Y-119788111D03*
X191759891Y-119788111D03*
%TD*%
D12*
%TO.C,J16*%
X176289044Y-65717041D03*
D13*
X172789044Y-65717041D03*
%TD*%
D22*
%TO.C,U4*%
X91210000Y-81713111D03*
D23*
X93750000Y-81713111D03*
X96290000Y-81713111D03*
%TD*%
D12*
%TO.C,J1*%
X214787967Y-94017041D03*
D13*
X214787967Y-90517041D03*
%TD*%
D12*
%TO.C,J5*%
X130759401Y-119788111D03*
D13*
X134259401Y-119788111D03*
X137759401Y-119788111D03*
%TD*%
D14*
%TO.C,K4*%
X140714044Y-105988111D03*
D15*
X128014044Y-105988111D03*
X128014044Y-113608111D03*
X135634044Y-113608111D03*
X140714044Y-113608111D03*
%TD*%
D12*
%TO.C,J17*%
X185289044Y-65717041D03*
D13*
X181789044Y-65717041D03*
%TD*%
D14*
%TO.C,K5*%
X158714044Y-105988111D03*
D15*
X146014044Y-105988111D03*
X146014044Y-113608111D03*
X153634044Y-113608111D03*
X158714044Y-113608111D03*
%TD*%
D12*
%TO.C,J2*%
X79264044Y-119788111D03*
D13*
X82764044Y-119788111D03*
X86264044Y-119788111D03*
%TD*%
D12*
%TO.C,J11*%
X131289044Y-65717041D03*
D13*
X127789044Y-65717041D03*
%TD*%
D14*
%TO.C,K2*%
X104714044Y-105988111D03*
D15*
X92014044Y-105988111D03*
X92014044Y-113608111D03*
X99634044Y-113608111D03*
X104714044Y-113608111D03*
%TD*%
D10*
%TO.C,J20*%
X181764044Y-96988111D03*
D11*
X179224044Y-96988111D03*
%TD*%
D24*
%TO.C,JP2*%
X99764044Y-94788111D03*
D25*
X99764044Y-93488111D03*
D26*
X99764044Y-92188111D03*
%TD*%
D24*
%TO.C,JP3*%
X94264044Y-94788111D03*
D25*
X94264044Y-93488111D03*
D26*
X94264044Y-92188111D03*
%TD*%
M02*
