%TF.GenerationSoftware,KiCad,Pcbnew,(6.0.0-0)*%
%TF.CreationDate,2022-04-07T23:04:40-05:00*%
%TF.ProjectId,ESP32RelaySwitcher,45535033-3252-4656-9c61-795377697463,rev?*%
%TF.SameCoordinates,Original*%
%TF.FileFunction,Legend,Top*%
%TF.FilePolarity,Positive*%
%FSLAX46Y46*%
G04 Gerber Fmt 4.6, Leading zero omitted, Abs format (unit mm)*
G04 Created by KiCad (PCBNEW (6.0.0-0)) date 2022-04-07 23:04:40*
%MOMM*%
%LPD*%
G01*
G04 APERTURE LIST*
%ADD10C,0.200000*%
%ADD11C,0.160000*%
%ADD12C,0.150000*%
G04 APERTURE END LIST*
D10*
%TO.C,D19*%
X108035714Y-94202380D02*
X108035714Y-93202380D01*
X108273809Y-93202380D01*
X108416666Y-93250000D01*
X108511904Y-93345238D01*
X108559523Y-93440476D01*
X108607142Y-93630952D01*
X108607142Y-93773809D01*
X108559523Y-93964285D01*
X108511904Y-94059523D01*
X108416666Y-94154761D01*
X108273809Y-94202380D01*
X108035714Y-94202380D01*
X109559523Y-94202380D02*
X108988095Y-94202380D01*
X109273809Y-94202380D02*
X109273809Y-93202380D01*
X109178571Y-93345238D01*
X109083333Y-93440476D01*
X108988095Y-93488095D01*
X110035714Y-94202380D02*
X110226190Y-94202380D01*
X110321428Y-94154761D01*
X110369047Y-94107142D01*
X110464285Y-93964285D01*
X110511904Y-93773809D01*
X110511904Y-93392857D01*
X110464285Y-93297619D01*
X110416666Y-93250000D01*
X110321428Y-93202380D01*
X110130952Y-93202380D01*
X110035714Y-93250000D01*
X109988095Y-93297619D01*
X109940476Y-93392857D01*
X109940476Y-93630952D01*
X109988095Y-93726190D01*
X110035714Y-93773809D01*
X110130952Y-93821428D01*
X110321428Y-93821428D01*
X110416666Y-93773809D01*
X110464285Y-93726190D01*
X110511904Y-93630952D01*
D11*
X111259523Y-91561904D02*
X111754761Y-91561904D01*
X111488095Y-91866666D01*
X111602380Y-91866666D01*
X111678571Y-91904761D01*
X111716666Y-91942857D01*
X111754761Y-92019047D01*
X111754761Y-92209523D01*
X111716666Y-92285714D01*
X111678571Y-92323809D01*
X111602380Y-92361904D01*
X111373809Y-92361904D01*
X111297619Y-92323809D01*
X111259523Y-92285714D01*
X111983333Y-91561904D02*
X112250000Y-92361904D01*
X112516666Y-91561904D01*
X112707142Y-91561904D02*
X113202380Y-91561904D01*
X112935714Y-91866666D01*
X113050000Y-91866666D01*
X113126190Y-91904761D01*
X113164285Y-91942857D01*
X113202380Y-92019047D01*
X113202380Y-92209523D01*
X113164285Y-92285714D01*
X113126190Y-92323809D01*
X113050000Y-92361904D01*
X112821428Y-92361904D01*
X112745238Y-92323809D01*
X112707142Y-92285714D01*
D10*
%TO.C,D11*%
X150702380Y-99714285D02*
X149702380Y-99714285D01*
X149702380Y-99476190D01*
X149750000Y-99333333D01*
X149845238Y-99238095D01*
X149940476Y-99190476D01*
X150130952Y-99142857D01*
X150273809Y-99142857D01*
X150464285Y-99190476D01*
X150559523Y-99238095D01*
X150654761Y-99333333D01*
X150702380Y-99476190D01*
X150702380Y-99714285D01*
X150702380Y-98190476D02*
X150702380Y-98761904D01*
X150702380Y-98476190D02*
X149702380Y-98476190D01*
X149845238Y-98571428D01*
X149940476Y-98666666D01*
X149988095Y-98761904D01*
X150702380Y-97238095D02*
X150702380Y-97809523D01*
X150702380Y-97523809D02*
X149702380Y-97523809D01*
X149845238Y-97619047D01*
X149940476Y-97714285D01*
X149988095Y-97809523D01*
%TO.C,R16*%
X103344598Y-90602380D02*
X103011265Y-90126190D01*
X102773170Y-90602380D02*
X102773170Y-89602380D01*
X103154122Y-89602380D01*
X103249360Y-89650000D01*
X103296979Y-89697619D01*
X103344598Y-89792857D01*
X103344598Y-89935714D01*
X103296979Y-90030952D01*
X103249360Y-90078571D01*
X103154122Y-90126190D01*
X102773170Y-90126190D01*
X104296979Y-90602380D02*
X103725551Y-90602380D01*
X104011265Y-90602380D02*
X104011265Y-89602380D01*
X103916027Y-89745238D01*
X103820789Y-89840476D01*
X103725551Y-89888095D01*
X105154122Y-89602380D02*
X104963646Y-89602380D01*
X104868408Y-89650000D01*
X104820789Y-89697619D01*
X104725551Y-89840476D01*
X104677932Y-90030952D01*
X104677932Y-90411904D01*
X104725551Y-90507142D01*
X104773170Y-90554761D01*
X104868408Y-90602380D01*
X105058884Y-90602380D01*
X105154122Y-90554761D01*
X105201741Y-90507142D01*
X105249360Y-90411904D01*
X105249360Y-90173809D01*
X105201741Y-90078571D01*
X105154122Y-90030952D01*
X105058884Y-89983333D01*
X104868408Y-89983333D01*
X104773170Y-90030952D01*
X104725551Y-90078571D01*
X104677932Y-90173809D01*
%TO.C,C12*%
X114927142Y-93642857D02*
X114974761Y-93690476D01*
X115022380Y-93833333D01*
X115022380Y-93928571D01*
X114974761Y-94071428D01*
X114879523Y-94166666D01*
X114784285Y-94214285D01*
X114593809Y-94261904D01*
X114450952Y-94261904D01*
X114260476Y-94214285D01*
X114165238Y-94166666D01*
X114070000Y-94071428D01*
X114022380Y-93928571D01*
X114022380Y-93833333D01*
X114070000Y-93690476D01*
X114117619Y-93642857D01*
X115022380Y-92690476D02*
X115022380Y-93261904D01*
X115022380Y-92976190D02*
X114022380Y-92976190D01*
X114165238Y-93071428D01*
X114260476Y-93166666D01*
X114308095Y-93261904D01*
X114117619Y-92309523D02*
X114070000Y-92261904D01*
X114022380Y-92166666D01*
X114022380Y-91928571D01*
X114070000Y-91833333D01*
X114117619Y-91785714D01*
X114212857Y-91738095D01*
X114308095Y-91738095D01*
X114450952Y-91785714D01*
X115022380Y-92357142D01*
X115022380Y-91738095D01*
%TO.C,R2*%
X99952380Y-99166666D02*
X99476190Y-99500000D01*
X99952380Y-99738095D02*
X98952380Y-99738095D01*
X98952380Y-99357142D01*
X99000000Y-99261904D01*
X99047619Y-99214285D01*
X99142857Y-99166666D01*
X99285714Y-99166666D01*
X99380952Y-99214285D01*
X99428571Y-99261904D01*
X99476190Y-99357142D01*
X99476190Y-99738095D01*
X99047619Y-98785714D02*
X99000000Y-98738095D01*
X98952380Y-98642857D01*
X98952380Y-98404761D01*
X99000000Y-98309523D01*
X99047619Y-98261904D01*
X99142857Y-98214285D01*
X99238095Y-98214285D01*
X99380952Y-98261904D01*
X99952380Y-98833333D01*
X99952380Y-98214285D01*
%TO.C,R8*%
X171952380Y-99166666D02*
X171476190Y-99500000D01*
X171952380Y-99738095D02*
X170952380Y-99738095D01*
X170952380Y-99357142D01*
X171000000Y-99261904D01*
X171047619Y-99214285D01*
X171142857Y-99166666D01*
X171285714Y-99166666D01*
X171380952Y-99214285D01*
X171428571Y-99261904D01*
X171476190Y-99357142D01*
X171476190Y-99738095D01*
X171380952Y-98595238D02*
X171333333Y-98690476D01*
X171285714Y-98738095D01*
X171190476Y-98785714D01*
X171142857Y-98785714D01*
X171047619Y-98738095D01*
X171000000Y-98690476D01*
X170952380Y-98595238D01*
X170952380Y-98404761D01*
X171000000Y-98309523D01*
X171047619Y-98261904D01*
X171142857Y-98214285D01*
X171190476Y-98214285D01*
X171285714Y-98261904D01*
X171333333Y-98309523D01*
X171380952Y-98404761D01*
X171380952Y-98595238D01*
X171428571Y-98690476D01*
X171476190Y-98738095D01*
X171571428Y-98785714D01*
X171761904Y-98785714D01*
X171857142Y-98738095D01*
X171904761Y-98690476D01*
X171952380Y-98595238D01*
X171952380Y-98404761D01*
X171904761Y-98309523D01*
X171857142Y-98261904D01*
X171761904Y-98214285D01*
X171571428Y-98214285D01*
X171476190Y-98261904D01*
X171428571Y-98309523D01*
X171380952Y-98404761D01*
%TO.C,J9*%
X197216424Y-117821444D02*
X197930710Y-117821444D01*
X198073567Y-117869063D01*
X198168805Y-117964301D01*
X198216424Y-118107158D01*
X198216424Y-118202396D01*
X198216424Y-117297634D02*
X198216424Y-117107158D01*
X198168805Y-117011920D01*
X198121186Y-116964301D01*
X197978329Y-116869063D01*
X197787853Y-116821444D01*
X197406901Y-116821444D01*
X197311663Y-116869063D01*
X197264044Y-116916682D01*
X197216424Y-117011920D01*
X197216424Y-117202396D01*
X197264044Y-117297634D01*
X197311663Y-117345253D01*
X197406901Y-117392872D01*
X197644996Y-117392872D01*
X197740234Y-117345253D01*
X197787853Y-117297634D01*
X197835472Y-117202396D01*
X197835472Y-117011920D01*
X197787853Y-116916682D01*
X197740234Y-116869063D01*
X197644996Y-116821444D01*
X197966424Y-123678587D02*
X197966424Y-124250015D01*
X197966424Y-123964301D02*
X196966424Y-123964301D01*
X197109282Y-124059539D01*
X197204520Y-124154777D01*
X197252139Y-124250015D01*
X196966424Y-123345253D02*
X196966424Y-122726206D01*
X197347377Y-123059539D01*
X197347377Y-122916682D01*
X197394996Y-122821444D01*
X197442615Y-122773825D01*
X197537853Y-122726206D01*
X197775948Y-122726206D01*
X197871186Y-122773825D01*
X197918805Y-122821444D01*
X197966424Y-122916682D01*
X197966424Y-123202396D01*
X197918805Y-123297634D01*
X197871186Y-123345253D01*
%TO.C,K8*%
X215866424Y-110426206D02*
X214866424Y-110426206D01*
X215866424Y-109854777D02*
X215294996Y-110283349D01*
X214866424Y-109854777D02*
X215437853Y-110426206D01*
X215294996Y-109283349D02*
X215247377Y-109378587D01*
X215199758Y-109426206D01*
X215104520Y-109473825D01*
X215056901Y-109473825D01*
X214961663Y-109426206D01*
X214914044Y-109378587D01*
X214866424Y-109283349D01*
X214866424Y-109092872D01*
X214914044Y-108997634D01*
X214961663Y-108950015D01*
X215056901Y-108902396D01*
X215104520Y-108902396D01*
X215199758Y-108950015D01*
X215247377Y-108997634D01*
X215294996Y-109092872D01*
X215294996Y-109283349D01*
X215342615Y-109378587D01*
X215390234Y-109426206D01*
X215485472Y-109473825D01*
X215675948Y-109473825D01*
X215771186Y-109426206D01*
X215818805Y-109378587D01*
X215866424Y-109283349D01*
X215866424Y-109092872D01*
X215818805Y-108997634D01*
X215771186Y-108950015D01*
X215675948Y-108902396D01*
X215485472Y-108902396D01*
X215390234Y-108950015D01*
X215342615Y-108997634D01*
X215294996Y-109092872D01*
%TO.C,D1*%
X205979450Y-69207887D02*
X205979450Y-68207887D01*
X206217546Y-68207887D01*
X206360403Y-68255507D01*
X206455641Y-68350745D01*
X206503260Y-68445983D01*
X206550879Y-68636459D01*
X206550879Y-68779316D01*
X206503260Y-68969792D01*
X206455641Y-69065030D01*
X206360403Y-69160268D01*
X206217546Y-69207887D01*
X205979450Y-69207887D01*
X207503260Y-69207887D02*
X206931831Y-69207887D01*
X207217546Y-69207887D02*
X207217546Y-68207887D01*
X207122307Y-68350745D01*
X207027069Y-68445983D01*
X206931831Y-68493602D01*
%TO.C,D12*%
X175035714Y-100952380D02*
X175035714Y-99952380D01*
X175273809Y-99952380D01*
X175416666Y-100000000D01*
X175511904Y-100095238D01*
X175559523Y-100190476D01*
X175607142Y-100380952D01*
X175607142Y-100523809D01*
X175559523Y-100714285D01*
X175511904Y-100809523D01*
X175416666Y-100904761D01*
X175273809Y-100952380D01*
X175035714Y-100952380D01*
X176559523Y-100952380D02*
X175988095Y-100952380D01*
X176273809Y-100952380D02*
X176273809Y-99952380D01*
X176178571Y-100095238D01*
X176083333Y-100190476D01*
X175988095Y-100238095D01*
X176940476Y-100047619D02*
X176988095Y-100000000D01*
X177083333Y-99952380D01*
X177321428Y-99952380D01*
X177416666Y-100000000D01*
X177464285Y-100047619D01*
X177511904Y-100142857D01*
X177511904Y-100238095D01*
X177464285Y-100380952D01*
X176892857Y-100952380D01*
X177511904Y-100952380D01*
%TO.C,J13*%
X155729520Y-69329421D02*
X155729520Y-70043707D01*
X155681901Y-70186564D01*
X155586663Y-70281802D01*
X155443805Y-70329421D01*
X155348567Y-70329421D01*
X156729520Y-70329421D02*
X156158091Y-70329421D01*
X156443805Y-70329421D02*
X156443805Y-69329421D01*
X156348567Y-69472279D01*
X156253329Y-69567517D01*
X156158091Y-69615136D01*
X157062853Y-69329421D02*
X157681901Y-69329421D01*
X157348567Y-69710374D01*
X157491424Y-69710374D01*
X157586663Y-69757993D01*
X157634282Y-69805612D01*
X157681901Y-69900850D01*
X157681901Y-70138945D01*
X157634282Y-70234183D01*
X157586663Y-70281802D01*
X157491424Y-70329421D01*
X157205710Y-70329421D01*
X157110472Y-70281802D01*
X157062853Y-70234183D01*
X152631225Y-62178587D02*
X152631225Y-62750015D01*
X152631225Y-62464301D02*
X151631225Y-62464301D01*
X151774083Y-62559539D01*
X151869321Y-62654777D01*
X151916940Y-62750015D01*
X152631225Y-61702396D02*
X152631225Y-61511920D01*
X152583606Y-61416682D01*
X152535987Y-61369063D01*
X152393130Y-61273825D01*
X152202654Y-61226206D01*
X151821702Y-61226206D01*
X151726464Y-61273825D01*
X151678845Y-61321444D01*
X151631225Y-61416682D01*
X151631225Y-61607158D01*
X151678845Y-61702396D01*
X151726464Y-61750015D01*
X151821702Y-61797634D01*
X152059797Y-61797634D01*
X152155035Y-61750015D01*
X152202654Y-61702396D01*
X152250273Y-61607158D01*
X152250273Y-61416682D01*
X152202654Y-61321444D01*
X152155035Y-61273825D01*
X152059797Y-61226206D01*
%TO.C,K3*%
X125866424Y-110426206D02*
X124866424Y-110426206D01*
X125866424Y-109854777D02*
X125294996Y-110283349D01*
X124866424Y-109854777D02*
X125437853Y-110426206D01*
X124866424Y-109521444D02*
X124866424Y-108902396D01*
X125247377Y-109235730D01*
X125247377Y-109092872D01*
X125294996Y-108997634D01*
X125342615Y-108950015D01*
X125437853Y-108902396D01*
X125675948Y-108902396D01*
X125771186Y-108950015D01*
X125818805Y-108997634D01*
X125866424Y-109092872D01*
X125866424Y-109378587D01*
X125818805Y-109473825D01*
X125771186Y-109521444D01*
%TO.C,Q4*%
X130961663Y-101833349D02*
X130914044Y-101928587D01*
X130818805Y-102023825D01*
X130675948Y-102166682D01*
X130628329Y-102261920D01*
X130628329Y-102357158D01*
X130866424Y-102309539D02*
X130818805Y-102404777D01*
X130723567Y-102500015D01*
X130533091Y-102547634D01*
X130199758Y-102547634D01*
X130009282Y-102500015D01*
X129914044Y-102404777D01*
X129866424Y-102309539D01*
X129866424Y-102119063D01*
X129914044Y-102023825D01*
X130009282Y-101928587D01*
X130199758Y-101880968D01*
X130533091Y-101880968D01*
X130723567Y-101928587D01*
X130818805Y-102023825D01*
X130866424Y-102119063D01*
X130866424Y-102309539D01*
X130199758Y-101023825D02*
X130866424Y-101023825D01*
X129818805Y-101261920D02*
X130533091Y-101500015D01*
X130533091Y-100880968D01*
%TO.C,Q1*%
X76961663Y-101833349D02*
X76914044Y-101928587D01*
X76818805Y-102023825D01*
X76675948Y-102166682D01*
X76628329Y-102261920D01*
X76628329Y-102357158D01*
X76866424Y-102309539D02*
X76818805Y-102404777D01*
X76723567Y-102500015D01*
X76533091Y-102547634D01*
X76199758Y-102547634D01*
X76009282Y-102500015D01*
X75914044Y-102404777D01*
X75866424Y-102309539D01*
X75866424Y-102119063D01*
X75914044Y-102023825D01*
X76009282Y-101928587D01*
X76199758Y-101880968D01*
X76533091Y-101880968D01*
X76723567Y-101928587D01*
X76818805Y-102023825D01*
X76866424Y-102119063D01*
X76866424Y-102309539D01*
X76866424Y-100928587D02*
X76866424Y-101500015D01*
X76866424Y-101214301D02*
X75866424Y-101214301D01*
X76009282Y-101309539D01*
X76104520Y-101404777D01*
X76152139Y-101500015D01*
%TO.C,U1*%
X169838095Y-74052380D02*
X169838095Y-74861904D01*
X169885714Y-74957142D01*
X169933333Y-75004761D01*
X170028571Y-75052380D01*
X170219047Y-75052380D01*
X170314285Y-75004761D01*
X170361904Y-74957142D01*
X170409523Y-74861904D01*
X170409523Y-74052380D01*
X171409523Y-75052380D02*
X170838095Y-75052380D01*
X171123809Y-75052380D02*
X171123809Y-74052380D01*
X171028571Y-74195238D01*
X170933333Y-74290476D01*
X170838095Y-74338095D01*
D11*
X165087967Y-81611904D02*
X164707014Y-81611904D01*
X164707014Y-80811904D01*
X165354633Y-81611904D02*
X165354633Y-80811904D01*
X165621300Y-81383333D01*
X165887967Y-80811904D01*
X165887967Y-81611904D01*
X166726062Y-81611904D02*
X166459395Y-81230952D01*
X166268919Y-81611904D02*
X166268919Y-80811904D01*
X166573681Y-80811904D01*
X166649871Y-80850000D01*
X166687967Y-80888095D01*
X166726062Y-80964285D01*
X166726062Y-81078571D01*
X166687967Y-81154761D01*
X166649871Y-81192857D01*
X166573681Y-81230952D01*
X166268919Y-81230952D01*
X166992728Y-80811904D02*
X167487967Y-80811904D01*
X167221300Y-81116666D01*
X167335586Y-81116666D01*
X167411776Y-81154761D01*
X167449871Y-81192857D01*
X167487967Y-81269047D01*
X167487967Y-81459523D01*
X167449871Y-81535714D01*
X167411776Y-81573809D01*
X167335586Y-81611904D01*
X167107014Y-81611904D01*
X167030824Y-81573809D01*
X166992728Y-81535714D01*
X168173681Y-80811904D02*
X168021300Y-80811904D01*
X167945109Y-80850000D01*
X167907014Y-80888095D01*
X167830824Y-81002380D01*
X167792728Y-81154761D01*
X167792728Y-81459523D01*
X167830824Y-81535714D01*
X167868919Y-81573809D01*
X167945109Y-81611904D01*
X168097490Y-81611904D01*
X168173681Y-81573809D01*
X168211776Y-81535714D01*
X168249871Y-81459523D01*
X168249871Y-81269047D01*
X168211776Y-81192857D01*
X168173681Y-81154761D01*
X168097490Y-81116666D01*
X167945109Y-81116666D01*
X167868919Y-81154761D01*
X167830824Y-81192857D01*
X167792728Y-81269047D01*
X168973681Y-80811904D02*
X168592728Y-80811904D01*
X168554633Y-81192857D01*
X168592728Y-81154761D01*
X168668919Y-81116666D01*
X168859395Y-81116666D01*
X168935586Y-81154761D01*
X168973681Y-81192857D01*
X169011776Y-81269047D01*
X169011776Y-81459523D01*
X168973681Y-81535714D01*
X168935586Y-81573809D01*
X168859395Y-81611904D01*
X168668919Y-81611904D01*
X168592728Y-81573809D01*
X168554633Y-81535714D01*
X169316538Y-80888095D02*
X169354633Y-80850000D01*
X169430824Y-80811904D01*
X169621300Y-80811904D01*
X169697490Y-80850000D01*
X169735586Y-80888095D01*
X169773681Y-80964285D01*
X169773681Y-81040476D01*
X169735586Y-81154761D01*
X169278443Y-81611904D01*
X169773681Y-81611904D01*
X170268919Y-80811904D02*
X170345109Y-80811904D01*
X170421300Y-80850000D01*
X170459395Y-80888095D01*
X170497490Y-80964285D01*
X170535586Y-81116666D01*
X170535586Y-81307142D01*
X170497490Y-81459523D01*
X170459395Y-81535714D01*
X170421300Y-81573809D01*
X170345109Y-81611904D01*
X170268919Y-81611904D01*
X170192728Y-81573809D01*
X170154633Y-81535714D01*
X170116538Y-81459523D01*
X170078443Y-81307142D01*
X170078443Y-81116666D01*
X170116538Y-80964285D01*
X170154633Y-80888095D01*
X170192728Y-80850000D01*
X170268919Y-80811904D01*
X170840347Y-81383333D02*
X171221300Y-81383333D01*
X170764157Y-81611904D02*
X171030824Y-80811904D01*
X171297490Y-81611904D01*
X171564157Y-81611904D02*
X171564157Y-80811904D01*
X171754633Y-80811904D01*
X171868919Y-80850000D01*
X171945109Y-80926190D01*
X171983205Y-81002380D01*
X172021300Y-81154761D01*
X172021300Y-81269047D01*
X171983205Y-81421428D01*
X171945109Y-81497619D01*
X171868919Y-81573809D01*
X171754633Y-81611904D01*
X171564157Y-81611904D01*
X172364157Y-81611904D02*
X172364157Y-80811904D01*
X172554633Y-80811904D01*
X172668919Y-80850000D01*
X172745109Y-80926190D01*
X172783205Y-81002380D01*
X172821300Y-81154761D01*
X172821300Y-81269047D01*
X172783205Y-81421428D01*
X172745109Y-81497619D01*
X172668919Y-81573809D01*
X172554633Y-81611904D01*
X172364157Y-81611904D01*
X173126062Y-81383333D02*
X173507014Y-81383333D01*
X173049871Y-81611904D02*
X173316538Y-80811904D01*
X173583205Y-81611904D01*
X174307014Y-81611904D02*
X174040347Y-81230952D01*
X173849871Y-81611904D02*
X173849871Y-80811904D01*
X174154633Y-80811904D01*
X174230824Y-80850000D01*
X174268919Y-80888095D01*
X174307014Y-80964285D01*
X174307014Y-81078571D01*
X174268919Y-81154761D01*
X174230824Y-81192857D01*
X174154633Y-81230952D01*
X173849871Y-81230952D01*
D10*
%TO.C,C16*%
X101107142Y-82892857D02*
X101154761Y-82940476D01*
X101202380Y-83083333D01*
X101202380Y-83178571D01*
X101154761Y-83321428D01*
X101059523Y-83416666D01*
X100964285Y-83464285D01*
X100773809Y-83511904D01*
X100630952Y-83511904D01*
X100440476Y-83464285D01*
X100345238Y-83416666D01*
X100250000Y-83321428D01*
X100202380Y-83178571D01*
X100202380Y-83083333D01*
X100250000Y-82940476D01*
X100297619Y-82892857D01*
X101202380Y-81940476D02*
X101202380Y-82511904D01*
X101202380Y-82226190D02*
X100202380Y-82226190D01*
X100345238Y-82321428D01*
X100440476Y-82416666D01*
X100488095Y-82511904D01*
X100202380Y-81083333D02*
X100202380Y-81273809D01*
X100250000Y-81369047D01*
X100297619Y-81416666D01*
X100440476Y-81511904D01*
X100630952Y-81559523D01*
X101011904Y-81559523D01*
X101107142Y-81511904D01*
X101154761Y-81464285D01*
X101202380Y-81369047D01*
X101202380Y-81178571D01*
X101154761Y-81083333D01*
X101107142Y-81035714D01*
X101011904Y-80988095D01*
X100773809Y-80988095D01*
X100678571Y-81035714D01*
X100630952Y-81083333D01*
X100583333Y-81178571D01*
X100583333Y-81369047D01*
X100630952Y-81464285D01*
X100678571Y-81511904D01*
X100773809Y-81559523D01*
%TO.C,C9*%
X180807256Y-81757142D02*
X180759637Y-81804761D01*
X180616780Y-81852380D01*
X180521542Y-81852380D01*
X180378684Y-81804761D01*
X180283446Y-81709523D01*
X180235827Y-81614285D01*
X180188208Y-81423809D01*
X180188208Y-81280952D01*
X180235827Y-81090476D01*
X180283446Y-80995238D01*
X180378684Y-80900000D01*
X180521542Y-80852380D01*
X180616780Y-80852380D01*
X180759637Y-80900000D01*
X180807256Y-80947619D01*
X181283446Y-81852380D02*
X181473923Y-81852380D01*
X181569161Y-81804761D01*
X181616780Y-81757142D01*
X181712018Y-81614285D01*
X181759637Y-81423809D01*
X181759637Y-81042857D01*
X181712018Y-80947619D01*
X181664399Y-80900000D01*
X181569161Y-80852380D01*
X181378684Y-80852380D01*
X181283446Y-80900000D01*
X181235827Y-80947619D01*
X181188208Y-81042857D01*
X181188208Y-81280952D01*
X181235827Y-81376190D01*
X181283446Y-81423809D01*
X181378684Y-81471428D01*
X181569161Y-81471428D01*
X181664399Y-81423809D01*
X181712018Y-81376190D01*
X181759637Y-81280952D01*
%TO.C,C14*%
X79357142Y-93409898D02*
X79404761Y-93457517D01*
X79452380Y-93600374D01*
X79452380Y-93695612D01*
X79404761Y-93838469D01*
X79309523Y-93933707D01*
X79214285Y-93981326D01*
X79023809Y-94028945D01*
X78880952Y-94028945D01*
X78690476Y-93981326D01*
X78595238Y-93933707D01*
X78500000Y-93838469D01*
X78452380Y-93695612D01*
X78452380Y-93600374D01*
X78500000Y-93457517D01*
X78547619Y-93409898D01*
X79452380Y-92457517D02*
X79452380Y-93028945D01*
X79452380Y-92743231D02*
X78452380Y-92743231D01*
X78595238Y-92838469D01*
X78690476Y-92933707D01*
X78738095Y-93028945D01*
X78785714Y-91600374D02*
X79452380Y-91600374D01*
X78404761Y-91838469D02*
X79119047Y-92076564D01*
X79119047Y-91457517D01*
%TO.C,C5*%
X160233333Y-77157142D02*
X160185714Y-77204761D01*
X160042857Y-77252380D01*
X159947619Y-77252380D01*
X159804761Y-77204761D01*
X159709523Y-77109523D01*
X159661904Y-77014285D01*
X159614285Y-76823809D01*
X159614285Y-76680952D01*
X159661904Y-76490476D01*
X159709523Y-76395238D01*
X159804761Y-76300000D01*
X159947619Y-76252380D01*
X160042857Y-76252380D01*
X160185714Y-76300000D01*
X160233333Y-76347619D01*
X161138095Y-76252380D02*
X160661904Y-76252380D01*
X160614285Y-76728571D01*
X160661904Y-76680952D01*
X160757142Y-76633333D01*
X160995238Y-76633333D01*
X161090476Y-76680952D01*
X161138095Y-76728571D01*
X161185714Y-76823809D01*
X161185714Y-77061904D01*
X161138095Y-77157142D01*
X161090476Y-77204761D01*
X160995238Y-77252380D01*
X160757142Y-77252380D01*
X160661904Y-77204761D01*
X160614285Y-77157142D01*
%TO.C,J17*%
X191729520Y-69329421D02*
X191729520Y-70043707D01*
X191681901Y-70186564D01*
X191586663Y-70281802D01*
X191443805Y-70329421D01*
X191348567Y-70329421D01*
X192729520Y-70329421D02*
X192158091Y-70329421D01*
X192443805Y-70329421D02*
X192443805Y-69329421D01*
X192348567Y-69472279D01*
X192253329Y-69567517D01*
X192158091Y-69615136D01*
X193062853Y-69329421D02*
X193729520Y-69329421D01*
X193300948Y-70329421D01*
X188675106Y-62178587D02*
X188675106Y-62750015D01*
X188675106Y-62464301D02*
X187675106Y-62464301D01*
X187817964Y-62559539D01*
X187913202Y-62654777D01*
X187960821Y-62750015D01*
X187675106Y-61273825D02*
X187675106Y-61750015D01*
X188151297Y-61797634D01*
X188103678Y-61750015D01*
X188056059Y-61654777D01*
X188056059Y-61416682D01*
X188103678Y-61321444D01*
X188151297Y-61273825D01*
X188246535Y-61226206D01*
X188484630Y-61226206D01*
X188579868Y-61273825D01*
X188627487Y-61321444D01*
X188675106Y-61416682D01*
X188675106Y-61654777D01*
X188627487Y-61750015D01*
X188579868Y-61797634D01*
%TO.C,R5*%
X162821300Y-72752380D02*
X162487967Y-72276190D01*
X162249871Y-72752380D02*
X162249871Y-71752380D01*
X162630824Y-71752380D01*
X162726062Y-71800000D01*
X162773681Y-71847619D01*
X162821300Y-71942857D01*
X162821300Y-72085714D01*
X162773681Y-72180952D01*
X162726062Y-72228571D01*
X162630824Y-72276190D01*
X162249871Y-72276190D01*
X163726062Y-71752380D02*
X163249871Y-71752380D01*
X163202252Y-72228571D01*
X163249871Y-72180952D01*
X163345109Y-72133333D01*
X163583205Y-72133333D01*
X163678443Y-72180952D01*
X163726062Y-72228571D01*
X163773681Y-72323809D01*
X163773681Y-72561904D01*
X163726062Y-72657142D01*
X163678443Y-72704761D01*
X163583205Y-72752380D01*
X163345109Y-72752380D01*
X163249871Y-72704761D01*
X163202252Y-72657142D01*
%TO.C,D18*%
X108035714Y-97702380D02*
X108035714Y-96702380D01*
X108273809Y-96702380D01*
X108416666Y-96750000D01*
X108511904Y-96845238D01*
X108559523Y-96940476D01*
X108607142Y-97130952D01*
X108607142Y-97273809D01*
X108559523Y-97464285D01*
X108511904Y-97559523D01*
X108416666Y-97654761D01*
X108273809Y-97702380D01*
X108035714Y-97702380D01*
X109559523Y-97702380D02*
X108988095Y-97702380D01*
X109273809Y-97702380D02*
X109273809Y-96702380D01*
X109178571Y-96845238D01*
X109083333Y-96940476D01*
X108988095Y-96988095D01*
X110130952Y-97130952D02*
X110035714Y-97083333D01*
X109988095Y-97035714D01*
X109940476Y-96940476D01*
X109940476Y-96892857D01*
X109988095Y-96797619D01*
X110035714Y-96750000D01*
X110130952Y-96702380D01*
X110321428Y-96702380D01*
X110416666Y-96750000D01*
X110464285Y-96797619D01*
X110511904Y-96892857D01*
X110511904Y-96940476D01*
X110464285Y-97035714D01*
X110416666Y-97083333D01*
X110321428Y-97130952D01*
X110130952Y-97130952D01*
X110035714Y-97178571D01*
X109988095Y-97226190D01*
X109940476Y-97321428D01*
X109940476Y-97511904D01*
X109988095Y-97607142D01*
X110035714Y-97654761D01*
X110130952Y-97702380D01*
X110321428Y-97702380D01*
X110416666Y-97654761D01*
X110464285Y-97607142D01*
X110511904Y-97511904D01*
X110511904Y-97321428D01*
X110464285Y-97226190D01*
X110416666Y-97178571D01*
X110321428Y-97130952D01*
D11*
X111847619Y-95061904D02*
X111466666Y-95061904D01*
X111428571Y-95442857D01*
X111466666Y-95404761D01*
X111542857Y-95366666D01*
X111733333Y-95366666D01*
X111809523Y-95404761D01*
X111847619Y-95442857D01*
X111885714Y-95519047D01*
X111885714Y-95709523D01*
X111847619Y-95785714D01*
X111809523Y-95823809D01*
X111733333Y-95861904D01*
X111542857Y-95861904D01*
X111466666Y-95823809D01*
X111428571Y-95785714D01*
X112114285Y-95061904D02*
X112380952Y-95861904D01*
X112647619Y-95061904D01*
D10*
%TO.C,D2*%
X85511904Y-100952380D02*
X85511904Y-99952380D01*
X85750000Y-99952380D01*
X85892857Y-100000000D01*
X85988095Y-100095238D01*
X86035714Y-100190476D01*
X86083333Y-100380952D01*
X86083333Y-100523809D01*
X86035714Y-100714285D01*
X85988095Y-100809523D01*
X85892857Y-100904761D01*
X85750000Y-100952380D01*
X85511904Y-100952380D01*
X86464285Y-100047619D02*
X86511904Y-100000000D01*
X86607142Y-99952380D01*
X86845238Y-99952380D01*
X86940476Y-100000000D01*
X86988095Y-100047619D01*
X87035714Y-100142857D01*
X87035714Y-100238095D01*
X86988095Y-100380952D01*
X86416666Y-100952380D01*
X87035714Y-100952380D01*
%TO.C,C3*%
X180775109Y-79233707D02*
X180822728Y-79281326D01*
X180870347Y-79424183D01*
X180870347Y-79519421D01*
X180822728Y-79662279D01*
X180727490Y-79757517D01*
X180632252Y-79805136D01*
X180441776Y-79852755D01*
X180298919Y-79852755D01*
X180108443Y-79805136D01*
X180013205Y-79757517D01*
X179917967Y-79662279D01*
X179870347Y-79519421D01*
X179870347Y-79424183D01*
X179917967Y-79281326D01*
X179965586Y-79233707D01*
X179870347Y-78900374D02*
X179870347Y-78281326D01*
X180251300Y-78614660D01*
X180251300Y-78471802D01*
X180298919Y-78376564D01*
X180346538Y-78328945D01*
X180441776Y-78281326D01*
X180679871Y-78281326D01*
X180775109Y-78328945D01*
X180822728Y-78376564D01*
X180870347Y-78471802D01*
X180870347Y-78757517D01*
X180822728Y-78852755D01*
X180775109Y-78900374D01*
%TO.C,D20*%
X108035714Y-70202380D02*
X108035714Y-69202380D01*
X108273809Y-69202380D01*
X108416666Y-69250000D01*
X108511904Y-69345238D01*
X108559523Y-69440476D01*
X108607142Y-69630952D01*
X108607142Y-69773809D01*
X108559523Y-69964285D01*
X108511904Y-70059523D01*
X108416666Y-70154761D01*
X108273809Y-70202380D01*
X108035714Y-70202380D01*
X108988095Y-69297619D02*
X109035714Y-69250000D01*
X109130952Y-69202380D01*
X109369047Y-69202380D01*
X109464285Y-69250000D01*
X109511904Y-69297619D01*
X109559523Y-69392857D01*
X109559523Y-69488095D01*
X109511904Y-69630952D01*
X108940476Y-70202380D01*
X109559523Y-70202380D01*
X110178571Y-69202380D02*
X110273809Y-69202380D01*
X110369047Y-69250000D01*
X110416666Y-69297619D01*
X110464285Y-69392857D01*
X110511904Y-69583333D01*
X110511904Y-69821428D01*
X110464285Y-70011904D01*
X110416666Y-70107142D01*
X110369047Y-70154761D01*
X110273809Y-70202380D01*
X110178571Y-70202380D01*
X110083333Y-70154761D01*
X110035714Y-70107142D01*
X109988095Y-70011904D01*
X109940476Y-69821428D01*
X109940476Y-69583333D01*
X109988095Y-69392857D01*
X110035714Y-69297619D01*
X110083333Y-69250000D01*
X110178571Y-69202380D01*
D11*
X111269047Y-71823809D02*
X111383333Y-71861904D01*
X111573809Y-71861904D01*
X111650000Y-71823809D01*
X111688095Y-71785714D01*
X111726190Y-71709523D01*
X111726190Y-71633333D01*
X111688095Y-71557142D01*
X111650000Y-71519047D01*
X111573809Y-71480952D01*
X111421428Y-71442857D01*
X111345238Y-71404761D01*
X111307142Y-71366666D01*
X111269047Y-71290476D01*
X111269047Y-71214285D01*
X111307142Y-71138095D01*
X111345238Y-71100000D01*
X111421428Y-71061904D01*
X111611904Y-71061904D01*
X111726190Y-71100000D01*
X111954761Y-71061904D02*
X112411904Y-71061904D01*
X112183333Y-71861904D02*
X112183333Y-71061904D01*
X112640476Y-71633333D02*
X113021428Y-71633333D01*
X112564285Y-71861904D02*
X112830952Y-71061904D01*
X113097619Y-71861904D01*
X113250000Y-71061904D02*
X113707142Y-71061904D01*
X113478571Y-71861904D02*
X113478571Y-71061904D01*
X113973809Y-71061904D02*
X113973809Y-71709523D01*
X114011904Y-71785714D01*
X114050000Y-71823809D01*
X114126190Y-71861904D01*
X114278571Y-71861904D01*
X114354761Y-71823809D01*
X114392857Y-71785714D01*
X114430952Y-71709523D01*
X114430952Y-71061904D01*
X114773809Y-71823809D02*
X114888095Y-71861904D01*
X115078571Y-71861904D01*
X115154761Y-71823809D01*
X115192857Y-71785714D01*
X115230952Y-71709523D01*
X115230952Y-71633333D01*
X115192857Y-71557142D01*
X115154761Y-71519047D01*
X115078571Y-71480952D01*
X114926190Y-71442857D01*
X114850000Y-71404761D01*
X114811904Y-71366666D01*
X114773809Y-71290476D01*
X114773809Y-71214285D01*
X114811904Y-71138095D01*
X114850000Y-71100000D01*
X114926190Y-71061904D01*
X115116666Y-71061904D01*
X115230952Y-71100000D01*
D10*
%TO.C,D14*%
X193035714Y-100952380D02*
X193035714Y-99952380D01*
X193273809Y-99952380D01*
X193416666Y-100000000D01*
X193511904Y-100095238D01*
X193559523Y-100190476D01*
X193607142Y-100380952D01*
X193607142Y-100523809D01*
X193559523Y-100714285D01*
X193511904Y-100809523D01*
X193416666Y-100904761D01*
X193273809Y-100952380D01*
X193035714Y-100952380D01*
X194559523Y-100952380D02*
X193988095Y-100952380D01*
X194273809Y-100952380D02*
X194273809Y-99952380D01*
X194178571Y-100095238D01*
X194083333Y-100190476D01*
X193988095Y-100238095D01*
X195416666Y-100285714D02*
X195416666Y-100952380D01*
X195178571Y-99904761D02*
X194940476Y-100619047D01*
X195559523Y-100619047D01*
%TO.C,SW1*%
X211604761Y-72333333D02*
X211652380Y-72190476D01*
X211652380Y-71952380D01*
X211604761Y-71857142D01*
X211557142Y-71809523D01*
X211461904Y-71761904D01*
X211366666Y-71761904D01*
X211271428Y-71809523D01*
X211223809Y-71857142D01*
X211176190Y-71952380D01*
X211128571Y-72142857D01*
X211080952Y-72238095D01*
X211033333Y-72285714D01*
X210938095Y-72333333D01*
X210842857Y-72333333D01*
X210747619Y-72285714D01*
X210700000Y-72238095D01*
X210652380Y-72142857D01*
X210652380Y-71904761D01*
X210700000Y-71761904D01*
X210652380Y-71428571D02*
X211652380Y-71190476D01*
X210938095Y-71000000D01*
X211652380Y-70809523D01*
X210652380Y-70571428D01*
X211652380Y-69666666D02*
X211652380Y-70238095D01*
X211652380Y-69952380D02*
X210652380Y-69952380D01*
X210795238Y-70047619D01*
X210890476Y-70142857D01*
X210938095Y-70238095D01*
X214940476Y-69352380D02*
X214940476Y-68352380D01*
X215321428Y-68352380D01*
X215416666Y-68400000D01*
X215464285Y-68447619D01*
X215511904Y-68542857D01*
X215511904Y-68685714D01*
X215464285Y-68780952D01*
X215416666Y-68828571D01*
X215321428Y-68876190D01*
X214940476Y-68876190D01*
X216130952Y-68352380D02*
X216321428Y-68352380D01*
X216416666Y-68400000D01*
X216511904Y-68495238D01*
X216559523Y-68685714D01*
X216559523Y-69019047D01*
X216511904Y-69209523D01*
X216416666Y-69304761D01*
X216321428Y-69352380D01*
X216130952Y-69352380D01*
X216035714Y-69304761D01*
X215940476Y-69209523D01*
X215892857Y-69019047D01*
X215892857Y-68685714D01*
X215940476Y-68495238D01*
X216035714Y-68400000D01*
X216130952Y-68352380D01*
X216892857Y-68352380D02*
X217130952Y-69352380D01*
X217321428Y-68638095D01*
X217511904Y-69352380D01*
X217750000Y-68352380D01*
X218130952Y-68828571D02*
X218464285Y-68828571D01*
X218607142Y-69352380D02*
X218130952Y-69352380D01*
X218130952Y-68352380D01*
X218607142Y-68352380D01*
X219607142Y-69352380D02*
X219273809Y-68876190D01*
X219035714Y-69352380D02*
X219035714Y-68352380D01*
X219416666Y-68352380D01*
X219511904Y-68400000D01*
X219559523Y-68447619D01*
X219607142Y-68542857D01*
X219607142Y-68685714D01*
X219559523Y-68780952D01*
X219511904Y-68828571D01*
X219416666Y-68876190D01*
X219035714Y-68876190D01*
%TO.C,J11*%
X137729520Y-69329421D02*
X137729520Y-70043707D01*
X137681901Y-70186564D01*
X137586663Y-70281802D01*
X137443805Y-70329421D01*
X137348567Y-70329421D01*
X138729520Y-70329421D02*
X138158091Y-70329421D01*
X138443805Y-70329421D02*
X138443805Y-69329421D01*
X138348567Y-69472279D01*
X138253329Y-69567517D01*
X138158091Y-69615136D01*
X139681901Y-70329421D02*
X139110472Y-70329421D01*
X139396186Y-70329421D02*
X139396186Y-69329421D01*
X139300948Y-69472279D01*
X139205710Y-69567517D01*
X139110472Y-69615136D01*
X134666424Y-62178587D02*
X134666424Y-62750015D01*
X134666424Y-62464301D02*
X133666424Y-62464301D01*
X133809282Y-62559539D01*
X133904520Y-62654777D01*
X133952139Y-62750015D01*
X133666424Y-61845253D02*
X133666424Y-61178587D01*
X134666424Y-61607158D01*
%TO.C,R3*%
X117952380Y-99166666D02*
X117476190Y-99500000D01*
X117952380Y-99738095D02*
X116952380Y-99738095D01*
X116952380Y-99357142D01*
X117000000Y-99261904D01*
X117047619Y-99214285D01*
X117142857Y-99166666D01*
X117285714Y-99166666D01*
X117380952Y-99214285D01*
X117428571Y-99261904D01*
X117476190Y-99357142D01*
X117476190Y-99738095D01*
X116952380Y-98833333D02*
X116952380Y-98214285D01*
X117333333Y-98547619D01*
X117333333Y-98404761D01*
X117380952Y-98309523D01*
X117428571Y-98261904D01*
X117523809Y-98214285D01*
X117761904Y-98214285D01*
X117857142Y-98261904D01*
X117904761Y-98309523D01*
X117952380Y-98404761D01*
X117952380Y-98690476D01*
X117904761Y-98785714D01*
X117857142Y-98833333D01*
%TO.C,D16*%
X211035714Y-100702380D02*
X211035714Y-99702380D01*
X211273809Y-99702380D01*
X211416666Y-99750000D01*
X211511904Y-99845238D01*
X211559523Y-99940476D01*
X211607142Y-100130952D01*
X211607142Y-100273809D01*
X211559523Y-100464285D01*
X211511904Y-100559523D01*
X211416666Y-100654761D01*
X211273809Y-100702380D01*
X211035714Y-100702380D01*
X212559523Y-100702380D02*
X211988095Y-100702380D01*
X212273809Y-100702380D02*
X212273809Y-99702380D01*
X212178571Y-99845238D01*
X212083333Y-99940476D01*
X211988095Y-99988095D01*
X213416666Y-99702380D02*
X213226190Y-99702380D01*
X213130952Y-99750000D01*
X213083333Y-99797619D01*
X212988095Y-99940476D01*
X212940476Y-100130952D01*
X212940476Y-100511904D01*
X212988095Y-100607142D01*
X213035714Y-100654761D01*
X213130952Y-100702380D01*
X213321428Y-100702380D01*
X213416666Y-100654761D01*
X213464285Y-100607142D01*
X213511904Y-100511904D01*
X213511904Y-100273809D01*
X213464285Y-100178571D01*
X213416666Y-100130952D01*
X213321428Y-100083333D01*
X213130952Y-100083333D01*
X213035714Y-100130952D01*
X212988095Y-100178571D01*
X212940476Y-100273809D01*
%TO.C,Q3*%
X112961663Y-101833349D02*
X112914044Y-101928587D01*
X112818805Y-102023825D01*
X112675948Y-102166682D01*
X112628329Y-102261920D01*
X112628329Y-102357158D01*
X112866424Y-102309539D02*
X112818805Y-102404777D01*
X112723567Y-102500015D01*
X112533091Y-102547634D01*
X112199758Y-102547634D01*
X112009282Y-102500015D01*
X111914044Y-102404777D01*
X111866424Y-102309539D01*
X111866424Y-102119063D01*
X111914044Y-102023825D01*
X112009282Y-101928587D01*
X112199758Y-101880968D01*
X112533091Y-101880968D01*
X112723567Y-101928587D01*
X112818805Y-102023825D01*
X112866424Y-102119063D01*
X112866424Y-102309539D01*
X111866424Y-101547634D02*
X111866424Y-100928587D01*
X112247377Y-101261920D01*
X112247377Y-101119063D01*
X112294996Y-101023825D01*
X112342615Y-100976206D01*
X112437853Y-100928587D01*
X112675948Y-100928587D01*
X112771186Y-100976206D01*
X112818805Y-101023825D01*
X112866424Y-101119063D01*
X112866424Y-101404777D01*
X112818805Y-101500015D01*
X112771186Y-101547634D01*
%TO.C,D3*%
X78702380Y-99738095D02*
X77702380Y-99738095D01*
X77702380Y-99500000D01*
X77750000Y-99357142D01*
X77845238Y-99261904D01*
X77940476Y-99214285D01*
X78130952Y-99166666D01*
X78273809Y-99166666D01*
X78464285Y-99214285D01*
X78559523Y-99261904D01*
X78654761Y-99357142D01*
X78702380Y-99500000D01*
X78702380Y-99738095D01*
X77702380Y-98833333D02*
X77702380Y-98214285D01*
X78083333Y-98547619D01*
X78083333Y-98404761D01*
X78130952Y-98309523D01*
X78178571Y-98261904D01*
X78273809Y-98214285D01*
X78511904Y-98214285D01*
X78607142Y-98261904D01*
X78654761Y-98309523D01*
X78702380Y-98404761D01*
X78702380Y-98690476D01*
X78654761Y-98785714D01*
X78607142Y-98833333D01*
%TO.C,J14*%
X164729520Y-69329421D02*
X164729520Y-70043707D01*
X164681901Y-70186564D01*
X164586663Y-70281802D01*
X164443805Y-70329421D01*
X164348567Y-70329421D01*
X165729520Y-70329421D02*
X165158091Y-70329421D01*
X165443805Y-70329421D02*
X165443805Y-69329421D01*
X165348567Y-69472279D01*
X165253329Y-69567517D01*
X165158091Y-69615136D01*
X166586663Y-69662755D02*
X166586663Y-70329421D01*
X166348567Y-69281802D02*
X166110472Y-69996088D01*
X166729520Y-69996088D01*
X160714822Y-62750015D02*
X160667203Y-62702396D01*
X160619583Y-62607158D01*
X160619583Y-62369063D01*
X160667203Y-62273825D01*
X160714822Y-62226206D01*
X160810060Y-62178587D01*
X160905298Y-62178587D01*
X161048155Y-62226206D01*
X161619583Y-62797634D01*
X161619583Y-62178587D01*
X161619583Y-61226206D02*
X161619583Y-61797634D01*
X161619583Y-61511920D02*
X160619583Y-61511920D01*
X160762441Y-61607158D01*
X160857679Y-61702396D01*
X160905298Y-61797634D01*
%TO.C,J3*%
X91466424Y-117821444D02*
X92180710Y-117821444D01*
X92323567Y-117869063D01*
X92418805Y-117964301D01*
X92466424Y-118107158D01*
X92466424Y-118202396D01*
X91466424Y-117440491D02*
X91466424Y-116821444D01*
X91847377Y-117154777D01*
X91847377Y-117011920D01*
X91894996Y-116916682D01*
X91942615Y-116869063D01*
X92037853Y-116821444D01*
X92275948Y-116821444D01*
X92371186Y-116869063D01*
X92418805Y-116916682D01*
X92466424Y-117011920D01*
X92466424Y-117297634D01*
X92418805Y-117392872D01*
X92371186Y-117440491D01*
X91216424Y-124297634D02*
X91216424Y-123678587D01*
X91597377Y-124011920D01*
X91597377Y-123869063D01*
X91644996Y-123773825D01*
X91692615Y-123726206D01*
X91787853Y-123678587D01*
X92025948Y-123678587D01*
X92121186Y-123726206D01*
X92168805Y-123773825D01*
X92216424Y-123869063D01*
X92216424Y-124154777D01*
X92168805Y-124250015D01*
X92121186Y-124297634D01*
X91216424Y-123345253D02*
X91216424Y-122726206D01*
X91597377Y-123059539D01*
X91597377Y-122916682D01*
X91644996Y-122821444D01*
X91692615Y-122773825D01*
X91787853Y-122726206D01*
X92025948Y-122726206D01*
X92121186Y-122773825D01*
X92168805Y-122821444D01*
X92216424Y-122916682D01*
X92216424Y-123202396D01*
X92168805Y-123297634D01*
X92121186Y-123345253D01*
%TO.C,C11*%
X82857142Y-93409898D02*
X82904761Y-93457517D01*
X82952380Y-93600374D01*
X82952380Y-93695612D01*
X82904761Y-93838469D01*
X82809523Y-93933707D01*
X82714285Y-93981326D01*
X82523809Y-94028945D01*
X82380952Y-94028945D01*
X82190476Y-93981326D01*
X82095238Y-93933707D01*
X82000000Y-93838469D01*
X81952380Y-93695612D01*
X81952380Y-93600374D01*
X82000000Y-93457517D01*
X82047619Y-93409898D01*
X82952380Y-92457517D02*
X82952380Y-93028945D01*
X82952380Y-92743231D02*
X81952380Y-92743231D01*
X82095238Y-92838469D01*
X82190476Y-92933707D01*
X82238095Y-93028945D01*
X82952380Y-91505136D02*
X82952380Y-92076564D01*
X82952380Y-91790850D02*
X81952380Y-91790850D01*
X82095238Y-91886088D01*
X82190476Y-91981326D01*
X82238095Y-92076564D01*
%TO.C,C10*%
X86607142Y-97642857D02*
X86654761Y-97690476D01*
X86702380Y-97833333D01*
X86702380Y-97928571D01*
X86654761Y-98071428D01*
X86559523Y-98166666D01*
X86464285Y-98214285D01*
X86273809Y-98261904D01*
X86130952Y-98261904D01*
X85940476Y-98214285D01*
X85845238Y-98166666D01*
X85750000Y-98071428D01*
X85702380Y-97928571D01*
X85702380Y-97833333D01*
X85750000Y-97690476D01*
X85797619Y-97642857D01*
X86702380Y-96690476D02*
X86702380Y-97261904D01*
X86702380Y-96976190D02*
X85702380Y-96976190D01*
X85845238Y-97071428D01*
X85940476Y-97166666D01*
X85988095Y-97261904D01*
X85702380Y-96071428D02*
X85702380Y-95976190D01*
X85750000Y-95880952D01*
X85797619Y-95833333D01*
X85892857Y-95785714D01*
X86083333Y-95738095D01*
X86321428Y-95738095D01*
X86511904Y-95785714D01*
X86607142Y-95833333D01*
X86654761Y-95880952D01*
X86702380Y-95976190D01*
X86702380Y-96071428D01*
X86654761Y-96166666D01*
X86607142Y-96214285D01*
X86511904Y-96261904D01*
X86321428Y-96309523D01*
X86083333Y-96309523D01*
X85892857Y-96261904D01*
X85797619Y-96214285D01*
X85750000Y-96166666D01*
X85702380Y-96071428D01*
%TO.C,D15*%
X186702380Y-99714285D02*
X185702380Y-99714285D01*
X185702380Y-99476190D01*
X185750000Y-99333333D01*
X185845238Y-99238095D01*
X185940476Y-99190476D01*
X186130952Y-99142857D01*
X186273809Y-99142857D01*
X186464285Y-99190476D01*
X186559523Y-99238095D01*
X186654761Y-99333333D01*
X186702380Y-99476190D01*
X186702380Y-99714285D01*
X186702380Y-98190476D02*
X186702380Y-98761904D01*
X186702380Y-98476190D02*
X185702380Y-98476190D01*
X185845238Y-98571428D01*
X185940476Y-98666666D01*
X185988095Y-98761904D01*
X185702380Y-97285714D02*
X185702380Y-97761904D01*
X186178571Y-97809523D01*
X186130952Y-97761904D01*
X186083333Y-97666666D01*
X186083333Y-97428571D01*
X186130952Y-97333333D01*
X186178571Y-97285714D01*
X186273809Y-97238095D01*
X186511904Y-97238095D01*
X186607142Y-97285714D01*
X186654761Y-97333333D01*
X186702380Y-97428571D01*
X186702380Y-97666666D01*
X186654761Y-97761904D01*
X186607142Y-97809523D01*
%TO.C,J4*%
X109466424Y-117821444D02*
X110180710Y-117821444D01*
X110323567Y-117869063D01*
X110418805Y-117964301D01*
X110466424Y-118107158D01*
X110466424Y-118202396D01*
X109799758Y-116916682D02*
X110466424Y-116916682D01*
X109418805Y-117154777D02*
X110133091Y-117392872D01*
X110133091Y-116773825D01*
X109317530Y-124250015D02*
X109269911Y-124202396D01*
X109222291Y-124107158D01*
X109222291Y-123869063D01*
X109269911Y-123773825D01*
X109317530Y-123726206D01*
X109412768Y-123678587D01*
X109508006Y-123678587D01*
X109650863Y-123726206D01*
X110222291Y-124297634D01*
X110222291Y-123678587D01*
X109222291Y-122773825D02*
X109222291Y-123250015D01*
X109698482Y-123297634D01*
X109650863Y-123250015D01*
X109603244Y-123154777D01*
X109603244Y-122916682D01*
X109650863Y-122821444D01*
X109698482Y-122773825D01*
X109793720Y-122726206D01*
X110031815Y-122726206D01*
X110127053Y-122773825D01*
X110174672Y-122821444D01*
X110222291Y-122916682D01*
X110222291Y-123154777D01*
X110174672Y-123250015D01*
X110127053Y-123297634D01*
%TO.C,L1*%
X164252380Y-93966666D02*
X164252380Y-94442857D01*
X163252380Y-94442857D01*
X164252380Y-93109523D02*
X164252380Y-93680952D01*
X164252380Y-93395238D02*
X163252380Y-93395238D01*
X163395238Y-93490476D01*
X163490476Y-93585714D01*
X163538095Y-93680952D01*
%TO.C,K1*%
X89866424Y-110426206D02*
X88866424Y-110426206D01*
X89866424Y-109854777D02*
X89294996Y-110283349D01*
X88866424Y-109854777D02*
X89437853Y-110426206D01*
X89866424Y-108902396D02*
X89866424Y-109473825D01*
X89866424Y-109188111D02*
X88866424Y-109188111D01*
X89009282Y-109283349D01*
X89104520Y-109378587D01*
X89152139Y-109473825D01*
%TO.C,SW2*%
X118430710Y-65904761D02*
X118573567Y-65952380D01*
X118811663Y-65952380D01*
X118906901Y-65904761D01*
X118954520Y-65857142D01*
X119002139Y-65761904D01*
X119002139Y-65666666D01*
X118954520Y-65571428D01*
X118906901Y-65523809D01*
X118811663Y-65476190D01*
X118621186Y-65428571D01*
X118525948Y-65380952D01*
X118478329Y-65333333D01*
X118430710Y-65238095D01*
X118430710Y-65142857D01*
X118478329Y-65047619D01*
X118525948Y-65000000D01*
X118621186Y-64952380D01*
X118859282Y-64952380D01*
X119002139Y-65000000D01*
X119335472Y-64952380D02*
X119573567Y-65952380D01*
X119764044Y-65238095D01*
X119954520Y-65952380D01*
X120192615Y-64952380D01*
X120525948Y-65047619D02*
X120573567Y-65000000D01*
X120668805Y-64952380D01*
X120906901Y-64952380D01*
X121002139Y-65000000D01*
X121049758Y-65047619D01*
X121097377Y-65142857D01*
X121097377Y-65238095D01*
X121049758Y-65380952D01*
X120478329Y-65952380D01*
X121097377Y-65952380D01*
D11*
X115361904Y-64161904D02*
X114980952Y-64428571D01*
X115361904Y-64619047D02*
X114561904Y-64619047D01*
X114561904Y-64314285D01*
X114600000Y-64238095D01*
X114638095Y-64200000D01*
X114714285Y-64161904D01*
X114828571Y-64161904D01*
X114904761Y-64200000D01*
X114942857Y-64238095D01*
X114980952Y-64314285D01*
X114980952Y-64619047D01*
X114942857Y-63819047D02*
X114942857Y-63552380D01*
X115361904Y-63438095D02*
X115361904Y-63819047D01*
X114561904Y-63819047D01*
X114561904Y-63438095D01*
X115323809Y-63133333D02*
X115361904Y-63019047D01*
X115361904Y-62828571D01*
X115323809Y-62752380D01*
X115285714Y-62714285D01*
X115209523Y-62676190D01*
X115133333Y-62676190D01*
X115057142Y-62714285D01*
X115019047Y-62752380D01*
X114980952Y-62828571D01*
X114942857Y-62980952D01*
X114904761Y-63057142D01*
X114866666Y-63095238D01*
X114790476Y-63133333D01*
X114714285Y-63133333D01*
X114638095Y-63095238D01*
X114600000Y-63057142D01*
X114561904Y-62980952D01*
X114561904Y-62790476D01*
X114600000Y-62676190D01*
X114942857Y-62333333D02*
X114942857Y-62066666D01*
X115361904Y-61952380D02*
X115361904Y-62333333D01*
X114561904Y-62333333D01*
X114561904Y-61952380D01*
X114561904Y-61723809D02*
X114561904Y-61266666D01*
X115361904Y-61495238D02*
X114561904Y-61495238D01*
D10*
%TO.C,J12*%
X146729520Y-69329421D02*
X146729520Y-70043707D01*
X146681901Y-70186564D01*
X146586663Y-70281802D01*
X146443805Y-70329421D01*
X146348567Y-70329421D01*
X147729520Y-70329421D02*
X147158091Y-70329421D01*
X147443805Y-70329421D02*
X147443805Y-69329421D01*
X147348567Y-69472279D01*
X147253329Y-69567517D01*
X147158091Y-69615136D01*
X148110472Y-69424660D02*
X148158091Y-69377041D01*
X148253329Y-69329421D01*
X148491424Y-69329421D01*
X148586663Y-69377041D01*
X148634282Y-69424660D01*
X148681901Y-69519898D01*
X148681901Y-69615136D01*
X148634282Y-69757993D01*
X148062853Y-70329421D01*
X148681901Y-70329421D01*
X143681665Y-62178587D02*
X143681665Y-62750015D01*
X143681665Y-62464301D02*
X142681665Y-62464301D01*
X142824523Y-62559539D01*
X142919761Y-62654777D01*
X142967380Y-62750015D01*
X143110237Y-61607158D02*
X143062618Y-61702396D01*
X143014999Y-61750015D01*
X142919761Y-61797634D01*
X142872142Y-61797634D01*
X142776904Y-61750015D01*
X142729285Y-61702396D01*
X142681665Y-61607158D01*
X142681665Y-61416682D01*
X142729285Y-61321444D01*
X142776904Y-61273825D01*
X142872142Y-61226206D01*
X142919761Y-61226206D01*
X143014999Y-61273825D01*
X143062618Y-61321444D01*
X143110237Y-61416682D01*
X143110237Y-61607158D01*
X143157856Y-61702396D01*
X143205475Y-61750015D01*
X143300713Y-61797634D01*
X143491189Y-61797634D01*
X143586427Y-61750015D01*
X143634046Y-61702396D01*
X143681665Y-61607158D01*
X143681665Y-61416682D01*
X143634046Y-61321444D01*
X143586427Y-61273825D01*
X143491189Y-61226206D01*
X143300713Y-61226206D01*
X143205475Y-61273825D01*
X143157856Y-61321444D01*
X143110237Y-61416682D01*
%TO.C,D13*%
X168702380Y-99714285D02*
X167702380Y-99714285D01*
X167702380Y-99476190D01*
X167750000Y-99333333D01*
X167845238Y-99238095D01*
X167940476Y-99190476D01*
X168130952Y-99142857D01*
X168273809Y-99142857D01*
X168464285Y-99190476D01*
X168559523Y-99238095D01*
X168654761Y-99333333D01*
X168702380Y-99476190D01*
X168702380Y-99714285D01*
X168702380Y-98190476D02*
X168702380Y-98761904D01*
X168702380Y-98476190D02*
X167702380Y-98476190D01*
X167845238Y-98571428D01*
X167940476Y-98666666D01*
X167988095Y-98761904D01*
X167702380Y-97857142D02*
X167702380Y-97238095D01*
X168083333Y-97571428D01*
X168083333Y-97428571D01*
X168130952Y-97333333D01*
X168178571Y-97285714D01*
X168273809Y-97238095D01*
X168511904Y-97238095D01*
X168607142Y-97285714D01*
X168654761Y-97333333D01*
X168702380Y-97428571D01*
X168702380Y-97714285D01*
X168654761Y-97809523D01*
X168607142Y-97857142D01*
%TO.C,Q6*%
X166961663Y-101833349D02*
X166914044Y-101928587D01*
X166818805Y-102023825D01*
X166675948Y-102166682D01*
X166628329Y-102261920D01*
X166628329Y-102357158D01*
X166866424Y-102309539D02*
X166818805Y-102404777D01*
X166723567Y-102500015D01*
X166533091Y-102547634D01*
X166199758Y-102547634D01*
X166009282Y-102500015D01*
X165914044Y-102404777D01*
X165866424Y-102309539D01*
X165866424Y-102119063D01*
X165914044Y-102023825D01*
X166009282Y-101928587D01*
X166199758Y-101880968D01*
X166533091Y-101880968D01*
X166723567Y-101928587D01*
X166818805Y-102023825D01*
X166866424Y-102119063D01*
X166866424Y-102309539D01*
X165866424Y-101023825D02*
X165866424Y-101214301D01*
X165914044Y-101309539D01*
X165961663Y-101357158D01*
X166104520Y-101452396D01*
X166294996Y-101500015D01*
X166675948Y-101500015D01*
X166771186Y-101452396D01*
X166818805Y-101404777D01*
X166866424Y-101309539D01*
X166866424Y-101119063D01*
X166818805Y-101023825D01*
X166771186Y-100976206D01*
X166675948Y-100928587D01*
X166437853Y-100928587D01*
X166342615Y-100976206D01*
X166294996Y-101023825D01*
X166247377Y-101119063D01*
X166247377Y-101309539D01*
X166294996Y-101404777D01*
X166342615Y-101452396D01*
X166437853Y-101500015D01*
%TO.C,C15*%
X72357142Y-93409898D02*
X72404761Y-93457517D01*
X72452380Y-93600374D01*
X72452380Y-93695612D01*
X72404761Y-93838469D01*
X72309523Y-93933707D01*
X72214285Y-93981326D01*
X72023809Y-94028945D01*
X71880952Y-94028945D01*
X71690476Y-93981326D01*
X71595238Y-93933707D01*
X71500000Y-93838469D01*
X71452380Y-93695612D01*
X71452380Y-93600374D01*
X71500000Y-93457517D01*
X71547619Y-93409898D01*
X72452380Y-92457517D02*
X72452380Y-93028945D01*
X72452380Y-92743231D02*
X71452380Y-92743231D01*
X71595238Y-92838469D01*
X71690476Y-92933707D01*
X71738095Y-93028945D01*
X71452380Y-91552755D02*
X71452380Y-92028945D01*
X71928571Y-92076564D01*
X71880952Y-92028945D01*
X71833333Y-91933707D01*
X71833333Y-91695612D01*
X71880952Y-91600374D01*
X71928571Y-91552755D01*
X72023809Y-91505136D01*
X72261904Y-91505136D01*
X72357142Y-91552755D01*
X72404761Y-91600374D01*
X72452380Y-91695612D01*
X72452380Y-91933707D01*
X72404761Y-92028945D01*
X72357142Y-92076564D01*
%TO.C,J6*%
X145466424Y-117821444D02*
X146180710Y-117821444D01*
X146323567Y-117869063D01*
X146418805Y-117964301D01*
X146466424Y-118107158D01*
X146466424Y-118202396D01*
X145466424Y-116916682D02*
X145466424Y-117107158D01*
X145514044Y-117202396D01*
X145561663Y-117250015D01*
X145704520Y-117345253D01*
X145894996Y-117392872D01*
X146275948Y-117392872D01*
X146371186Y-117345253D01*
X146418805Y-117297634D01*
X146466424Y-117202396D01*
X146466424Y-117011920D01*
X146418805Y-116916682D01*
X146371186Y-116869063D01*
X146275948Y-116821444D01*
X146037853Y-116821444D01*
X145942615Y-116869063D01*
X145894996Y-116916682D01*
X145847377Y-117011920D01*
X145847377Y-117202396D01*
X145894996Y-117297634D01*
X145942615Y-117345253D01*
X146037853Y-117392872D01*
X145307677Y-124250015D02*
X145260058Y-124202396D01*
X145212438Y-124107158D01*
X145212438Y-123869063D01*
X145260058Y-123773825D01*
X145307677Y-123726206D01*
X145402915Y-123678587D01*
X145498153Y-123678587D01*
X145641010Y-123726206D01*
X146212438Y-124297634D01*
X146212438Y-123678587D01*
X145212438Y-123345253D02*
X145212438Y-122678587D01*
X146212438Y-123107158D01*
%TO.C,D7*%
X114702380Y-99738095D02*
X113702380Y-99738095D01*
X113702380Y-99500000D01*
X113750000Y-99357142D01*
X113845238Y-99261904D01*
X113940476Y-99214285D01*
X114130952Y-99166666D01*
X114273809Y-99166666D01*
X114464285Y-99214285D01*
X114559523Y-99261904D01*
X114654761Y-99357142D01*
X114702380Y-99500000D01*
X114702380Y-99738095D01*
X113702380Y-98833333D02*
X113702380Y-98166666D01*
X114702380Y-98595238D01*
%TO.C,J7*%
X163466424Y-117821444D02*
X164180710Y-117821444D01*
X164323567Y-117869063D01*
X164418805Y-117964301D01*
X164466424Y-118107158D01*
X164466424Y-118202396D01*
X163466424Y-117440491D02*
X163466424Y-116773825D01*
X164466424Y-117202396D01*
X164216424Y-123678587D02*
X164216424Y-124250015D01*
X164216424Y-123964301D02*
X163216424Y-123964301D01*
X163359282Y-124059539D01*
X163454520Y-124154777D01*
X163502139Y-124250015D01*
X163549758Y-122821444D02*
X164216424Y-122821444D01*
X163168805Y-123059539D02*
X163883091Y-123297634D01*
X163883091Y-122678587D01*
%TO.C,J18*%
X76202380Y-64076564D02*
X76916666Y-64076564D01*
X77059523Y-64124183D01*
X77154761Y-64219421D01*
X77202380Y-64362279D01*
X77202380Y-64457517D01*
X77202380Y-63076564D02*
X77202380Y-63647993D01*
X77202380Y-63362279D02*
X76202380Y-63362279D01*
X76345238Y-63457517D01*
X76440476Y-63552755D01*
X76488095Y-63647993D01*
X76630952Y-62505136D02*
X76583333Y-62600374D01*
X76535714Y-62647993D01*
X76440476Y-62695612D01*
X76392857Y-62695612D01*
X76297619Y-62647993D01*
X76250000Y-62600374D01*
X76202380Y-62505136D01*
X76202380Y-62314660D01*
X76250000Y-62219421D01*
X76297619Y-62171802D01*
X76392857Y-62124183D01*
X76440476Y-62124183D01*
X76535714Y-62171802D01*
X76583333Y-62219421D01*
X76630952Y-62314660D01*
X76630952Y-62505136D01*
X76678571Y-62600374D01*
X76726190Y-62647993D01*
X76821428Y-62695612D01*
X77011904Y-62695612D01*
X77107142Y-62647993D01*
X77154761Y-62600374D01*
X77202380Y-62505136D01*
X77202380Y-62314660D01*
X77154761Y-62219421D01*
X77107142Y-62171802D01*
X77011904Y-62124183D01*
X76821428Y-62124183D01*
X76726190Y-62171802D01*
X76678571Y-62219421D01*
X76630952Y-62314660D01*
X88876424Y-69854850D02*
X88876424Y-69283421D01*
X89876424Y-69569136D02*
X88876424Y-69569136D01*
X88876424Y-69045326D02*
X89876424Y-68378660D01*
X88876424Y-68378660D02*
X89876424Y-69045326D01*
X88828805Y-67283421D02*
X90114520Y-68140564D01*
X89876424Y-66950088D02*
X88876424Y-66950088D01*
X88876424Y-66283421D02*
X88876424Y-66092945D01*
X88924044Y-65997707D01*
X89019282Y-65902469D01*
X89209758Y-65854850D01*
X89543091Y-65854850D01*
X89733567Y-65902469D01*
X89828805Y-65997707D01*
X89876424Y-66092945D01*
X89876424Y-66283421D01*
X89828805Y-66378660D01*
X89733567Y-66473898D01*
X89543091Y-66521517D01*
X89209758Y-66521517D01*
X89019282Y-66473898D01*
X88924044Y-66378660D01*
X88876424Y-66283421D01*
X89876424Y-64902469D02*
X89876424Y-65473898D01*
X89876424Y-65188183D02*
X88876424Y-65188183D01*
X89019282Y-65283421D01*
X89114520Y-65378660D01*
X89162139Y-65473898D01*
X91164044Y-67695993D02*
X91164044Y-66695993D01*
X92446424Y-67457898D02*
X91446424Y-67457898D01*
X91446424Y-67219802D01*
X91494044Y-67076945D01*
X91589282Y-66981707D01*
X91684520Y-66934088D01*
X91874996Y-66886469D01*
X92017853Y-66886469D01*
X92208329Y-66934088D01*
X92303567Y-66981707D01*
X92398805Y-67076945D01*
X92446424Y-67219802D01*
X92446424Y-67457898D01*
X91164044Y-66695993D02*
X91164044Y-65934088D01*
X91446424Y-66600755D02*
X91446424Y-66029326D01*
X92446424Y-66315041D02*
X91446424Y-66315041D01*
X91164044Y-65934088D02*
X91164044Y-64934088D01*
X92446424Y-65124564D02*
X91970234Y-65457898D01*
X92446424Y-65695993D02*
X91446424Y-65695993D01*
X91446424Y-65315041D01*
X91494044Y-65219802D01*
X91541663Y-65172183D01*
X91636901Y-65124564D01*
X91779758Y-65124564D01*
X91874996Y-65172183D01*
X91922615Y-65219802D01*
X91970234Y-65315041D01*
X91970234Y-65695993D01*
X83863561Y-67100374D02*
X84577847Y-67100374D01*
X84720704Y-67147993D01*
X84815942Y-67243231D01*
X84863561Y-67386088D01*
X84863561Y-67481326D01*
X84863561Y-66624183D02*
X83863561Y-66624183D01*
X83863561Y-66243231D01*
X83911181Y-66147993D01*
X83958800Y-66100374D01*
X84054038Y-66052755D01*
X84196895Y-66052755D01*
X84292133Y-66100374D01*
X84339752Y-66147993D01*
X84387371Y-66243231D01*
X84387371Y-66624183D01*
X83958800Y-65671802D02*
X83911181Y-65624183D01*
X83863561Y-65528945D01*
X83863561Y-65290850D01*
X83911181Y-65195612D01*
X83958800Y-65147993D01*
X84054038Y-65100374D01*
X84149276Y-65100374D01*
X84292133Y-65147993D01*
X84863561Y-65719421D01*
X84863561Y-65100374D01*
X100036424Y-67061041D02*
X99036424Y-67061041D01*
X99036424Y-66394374D02*
X99036424Y-66203898D01*
X99084044Y-66108660D01*
X99179282Y-66013421D01*
X99369758Y-65965802D01*
X99703091Y-65965802D01*
X99893567Y-66013421D01*
X99988805Y-66108660D01*
X100036424Y-66203898D01*
X100036424Y-66394374D01*
X99988805Y-66489612D01*
X99893567Y-66584850D01*
X99703091Y-66632469D01*
X99369758Y-66632469D01*
X99179282Y-66584850D01*
X99084044Y-66489612D01*
X99036424Y-66394374D01*
X99131663Y-65584850D02*
X99084044Y-65537231D01*
X99036424Y-65441993D01*
X99036424Y-65203898D01*
X99084044Y-65108660D01*
X99131663Y-65061041D01*
X99226901Y-65013421D01*
X99322139Y-65013421D01*
X99464996Y-65061041D01*
X100036424Y-65632469D01*
X100036424Y-65013421D01*
X102576424Y-67061041D02*
X101576424Y-67061041D01*
X101576424Y-66394374D02*
X101576424Y-66203898D01*
X101624044Y-66108660D01*
X101719282Y-66013421D01*
X101909758Y-65965802D01*
X102243091Y-65965802D01*
X102433567Y-66013421D01*
X102528805Y-66108660D01*
X102576424Y-66203898D01*
X102576424Y-66394374D01*
X102528805Y-66489612D01*
X102433567Y-66584850D01*
X102243091Y-66632469D01*
X101909758Y-66632469D01*
X101719282Y-66584850D01*
X101624044Y-66489612D01*
X101576424Y-66394374D01*
X101576424Y-65346755D02*
X101576424Y-65251517D01*
X101624044Y-65156279D01*
X101671663Y-65108660D01*
X101766901Y-65061041D01*
X101957377Y-65013421D01*
X102195472Y-65013421D01*
X102385948Y-65061041D01*
X102481186Y-65108660D01*
X102528805Y-65156279D01*
X102576424Y-65251517D01*
X102576424Y-65346755D01*
X102528805Y-65441993D01*
X102481186Y-65489612D01*
X102385948Y-65537231D01*
X102195472Y-65584850D01*
X101957377Y-65584850D01*
X101766901Y-65537231D01*
X101671663Y-65489612D01*
X101624044Y-65441993D01*
X101576424Y-65346755D01*
X78764044Y-67076945D02*
X78716424Y-67172183D01*
X78716424Y-67315041D01*
X78764044Y-67457898D01*
X78859282Y-67553136D01*
X78954520Y-67600755D01*
X79144996Y-67648374D01*
X79287853Y-67648374D01*
X79478329Y-67600755D01*
X79573567Y-67553136D01*
X79668805Y-67457898D01*
X79716424Y-67315041D01*
X79716424Y-67219802D01*
X79668805Y-67076945D01*
X79621186Y-67029326D01*
X79287853Y-67029326D01*
X79287853Y-67219802D01*
X79716424Y-66600755D02*
X78716424Y-66600755D01*
X79716424Y-66029326D01*
X78716424Y-66029326D01*
X79716424Y-65553136D02*
X78716424Y-65553136D01*
X78716424Y-65315041D01*
X78764044Y-65172183D01*
X78859282Y-65076945D01*
X78954520Y-65029326D01*
X79144996Y-64981707D01*
X79287853Y-64981707D01*
X79478329Y-65029326D01*
X79573567Y-65076945D01*
X79668805Y-65172183D01*
X79716424Y-65315041D01*
X79716424Y-65553136D01*
X87326200Y-69513612D02*
X86850010Y-69846945D01*
X87326200Y-70085041D02*
X86326200Y-70085041D01*
X86326200Y-69704088D01*
X86373820Y-69608850D01*
X86421439Y-69561231D01*
X86516677Y-69513612D01*
X86659534Y-69513612D01*
X86754772Y-69561231D01*
X86802391Y-69608850D01*
X86850010Y-69704088D01*
X86850010Y-70085041D01*
X86326200Y-69180279D02*
X87326200Y-68513612D01*
X86326200Y-68513612D02*
X87326200Y-69180279D01*
X86278581Y-67418374D02*
X87564296Y-68275517D01*
X87326200Y-67085041D02*
X86326200Y-67085041D01*
X86326200Y-66418374D02*
X86326200Y-66227898D01*
X86373820Y-66132660D01*
X86469058Y-66037421D01*
X86659534Y-65989802D01*
X86992867Y-65989802D01*
X87183343Y-66037421D01*
X87278581Y-66132660D01*
X87326200Y-66227898D01*
X87326200Y-66418374D01*
X87278581Y-66513612D01*
X87183343Y-66608850D01*
X86992867Y-66656469D01*
X86659534Y-66656469D01*
X86469058Y-66608850D01*
X86373820Y-66513612D01*
X86326200Y-66418374D01*
X86326200Y-65656469D02*
X86326200Y-65037421D01*
X86707153Y-65370755D01*
X86707153Y-65227898D01*
X86754772Y-65132660D01*
X86802391Y-65085041D01*
X86897629Y-65037421D01*
X87135724Y-65037421D01*
X87230962Y-65085041D01*
X87278581Y-65132660D01*
X87326200Y-65227898D01*
X87326200Y-65513612D01*
X87278581Y-65608850D01*
X87230962Y-65656469D01*
X94956424Y-67061041D02*
X93956424Y-67061041D01*
X93956424Y-66394374D02*
X93956424Y-66203898D01*
X94004044Y-66108660D01*
X94099282Y-66013421D01*
X94289758Y-65965802D01*
X94623091Y-65965802D01*
X94813567Y-66013421D01*
X94908805Y-66108660D01*
X94956424Y-66203898D01*
X94956424Y-66394374D01*
X94908805Y-66489612D01*
X94813567Y-66584850D01*
X94623091Y-66632469D01*
X94289758Y-66632469D01*
X94099282Y-66584850D01*
X94004044Y-66489612D01*
X93956424Y-66394374D01*
X93956424Y-65061041D02*
X93956424Y-65537231D01*
X94432615Y-65584850D01*
X94384996Y-65537231D01*
X94337377Y-65441993D01*
X94337377Y-65203898D01*
X94384996Y-65108660D01*
X94432615Y-65061041D01*
X94527853Y-65013421D01*
X94765948Y-65013421D01*
X94861186Y-65061041D01*
X94908805Y-65108660D01*
X94956424Y-65203898D01*
X94956424Y-65441993D01*
X94908805Y-65537231D01*
X94861186Y-65584850D01*
X80974044Y-67672183D02*
X80974044Y-66672183D01*
X82256424Y-66862660D02*
X81780234Y-67195993D01*
X82256424Y-67434088D02*
X81256424Y-67434088D01*
X81256424Y-67053136D01*
X81304044Y-66957898D01*
X81351663Y-66910279D01*
X81446901Y-66862660D01*
X81589758Y-66862660D01*
X81684996Y-66910279D01*
X81732615Y-66957898D01*
X81780234Y-67053136D01*
X81780234Y-67434088D01*
X80974044Y-66672183D02*
X80974044Y-65910279D01*
X81256424Y-66576945D02*
X81256424Y-66005517D01*
X82256424Y-66291231D02*
X81256424Y-66291231D01*
X80974044Y-65910279D02*
X80974044Y-64957898D01*
X82208805Y-65719802D02*
X82256424Y-65576945D01*
X82256424Y-65338850D01*
X82208805Y-65243612D01*
X82161186Y-65195993D01*
X82065948Y-65148374D01*
X81970710Y-65148374D01*
X81875472Y-65195993D01*
X81827853Y-65243612D01*
X81780234Y-65338850D01*
X81732615Y-65529326D01*
X81684996Y-65624564D01*
X81637377Y-65672183D01*
X81542139Y-65719802D01*
X81446901Y-65719802D01*
X81351663Y-65672183D01*
X81304044Y-65624564D01*
X81256424Y-65529326D01*
X81256424Y-65291231D01*
X81304044Y-65148374D01*
X97496424Y-67061041D02*
X96496424Y-67061041D01*
X96496424Y-66394374D02*
X96496424Y-66203898D01*
X96544044Y-66108660D01*
X96639282Y-66013421D01*
X96829758Y-65965802D01*
X97163091Y-65965802D01*
X97353567Y-66013421D01*
X97448805Y-66108660D01*
X97496424Y-66203898D01*
X97496424Y-66394374D01*
X97448805Y-66489612D01*
X97353567Y-66584850D01*
X97163091Y-66632469D01*
X96829758Y-66632469D01*
X96639282Y-66584850D01*
X96544044Y-66489612D01*
X96496424Y-66394374D01*
X96829758Y-65108660D02*
X97496424Y-65108660D01*
X96448805Y-65346755D02*
X97163091Y-65584850D01*
X97163091Y-64965802D01*
%TO.C,K7*%
X197866424Y-110426206D02*
X196866424Y-110426206D01*
X197866424Y-109854777D02*
X197294996Y-110283349D01*
X196866424Y-109854777D02*
X197437853Y-110426206D01*
X196866424Y-109521444D02*
X196866424Y-108854777D01*
X197866424Y-109283349D01*
%TO.C,SW3*%
X107930710Y-65904761D02*
X108073567Y-65952380D01*
X108311663Y-65952380D01*
X108406901Y-65904761D01*
X108454520Y-65857142D01*
X108502139Y-65761904D01*
X108502139Y-65666666D01*
X108454520Y-65571428D01*
X108406901Y-65523809D01*
X108311663Y-65476190D01*
X108121186Y-65428571D01*
X108025948Y-65380952D01*
X107978329Y-65333333D01*
X107930710Y-65238095D01*
X107930710Y-65142857D01*
X107978329Y-65047619D01*
X108025948Y-65000000D01*
X108121186Y-64952380D01*
X108359282Y-64952380D01*
X108502139Y-65000000D01*
X108835472Y-64952380D02*
X109073567Y-65952380D01*
X109264044Y-65238095D01*
X109454520Y-65952380D01*
X109692615Y-64952380D01*
X109978329Y-64952380D02*
X110597377Y-64952380D01*
X110264044Y-65333333D01*
X110406901Y-65333333D01*
X110502139Y-65380952D01*
X110549758Y-65428571D01*
X110597377Y-65523809D01*
X110597377Y-65761904D01*
X110549758Y-65857142D01*
X110502139Y-65904761D01*
X110406901Y-65952380D01*
X110121186Y-65952380D01*
X110025948Y-65904761D01*
X109978329Y-65857142D01*
D11*
X104861904Y-63050000D02*
X104061904Y-63050000D01*
X104061904Y-62516666D02*
X104061904Y-62364285D01*
X104100000Y-62288095D01*
X104176190Y-62211904D01*
X104328571Y-62173809D01*
X104595238Y-62173809D01*
X104747619Y-62211904D01*
X104823809Y-62288095D01*
X104861904Y-62364285D01*
X104861904Y-62516666D01*
X104823809Y-62592857D01*
X104747619Y-62669047D01*
X104595238Y-62707142D01*
X104328571Y-62707142D01*
X104176190Y-62669047D01*
X104100000Y-62592857D01*
X104061904Y-62516666D01*
X104061904Y-61678571D02*
X104061904Y-61602380D01*
X104100000Y-61526190D01*
X104138095Y-61488095D01*
X104214285Y-61450000D01*
X104366666Y-61411904D01*
X104557142Y-61411904D01*
X104709523Y-61450000D01*
X104785714Y-61488095D01*
X104823809Y-61526190D01*
X104861904Y-61602380D01*
X104861904Y-61678571D01*
X104823809Y-61754761D01*
X104785714Y-61792857D01*
X104709523Y-61830952D01*
X104557142Y-61869047D01*
X104366666Y-61869047D01*
X104214285Y-61830952D01*
X104138095Y-61792857D01*
X104100000Y-61754761D01*
X104061904Y-61678571D01*
D10*
%TO.C,K6*%
X179866424Y-110426206D02*
X178866424Y-110426206D01*
X179866424Y-109854777D02*
X179294996Y-110283349D01*
X178866424Y-109854777D02*
X179437853Y-110426206D01*
X178866424Y-108997634D02*
X178866424Y-109188111D01*
X178914044Y-109283349D01*
X178961663Y-109330968D01*
X179104520Y-109426206D01*
X179294996Y-109473825D01*
X179675948Y-109473825D01*
X179771186Y-109426206D01*
X179818805Y-109378587D01*
X179866424Y-109283349D01*
X179866424Y-109092872D01*
X179818805Y-108997634D01*
X179771186Y-108950015D01*
X179675948Y-108902396D01*
X179437853Y-108902396D01*
X179342615Y-108950015D01*
X179294996Y-108997634D01*
X179247377Y-109092872D01*
X179247377Y-109283349D01*
X179294996Y-109378587D01*
X179342615Y-109426206D01*
X179437853Y-109473825D01*
%TO.C,C2*%
X177275109Y-79233707D02*
X177322728Y-79281326D01*
X177370347Y-79424183D01*
X177370347Y-79519421D01*
X177322728Y-79662279D01*
X177227490Y-79757517D01*
X177132252Y-79805136D01*
X176941776Y-79852755D01*
X176798919Y-79852755D01*
X176608443Y-79805136D01*
X176513205Y-79757517D01*
X176417967Y-79662279D01*
X176370347Y-79519421D01*
X176370347Y-79424183D01*
X176417967Y-79281326D01*
X176465586Y-79233707D01*
X176465586Y-78852755D02*
X176417967Y-78805136D01*
X176370347Y-78709898D01*
X176370347Y-78471802D01*
X176417967Y-78376564D01*
X176465586Y-78328945D01*
X176560824Y-78281326D01*
X176656062Y-78281326D01*
X176798919Y-78328945D01*
X177370347Y-78900374D01*
X177370347Y-78281326D01*
%TO.C,R12*%
X103344598Y-94202380D02*
X103011265Y-93726190D01*
X102773170Y-94202380D02*
X102773170Y-93202380D01*
X103154122Y-93202380D01*
X103249360Y-93250000D01*
X103296979Y-93297619D01*
X103344598Y-93392857D01*
X103344598Y-93535714D01*
X103296979Y-93630952D01*
X103249360Y-93678571D01*
X103154122Y-93726190D01*
X102773170Y-93726190D01*
X104296979Y-94202380D02*
X103725551Y-94202380D01*
X104011265Y-94202380D02*
X104011265Y-93202380D01*
X103916027Y-93345238D01*
X103820789Y-93440476D01*
X103725551Y-93488095D01*
X104677932Y-93297619D02*
X104725551Y-93250000D01*
X104820789Y-93202380D01*
X105058884Y-93202380D01*
X105154122Y-93250000D01*
X105201741Y-93297619D01*
X105249360Y-93392857D01*
X105249360Y-93488095D01*
X105201741Y-93630952D01*
X104630313Y-94202380D01*
X105249360Y-94202380D01*
%TO.C,R10*%
X207952380Y-99142857D02*
X207476190Y-99476190D01*
X207952380Y-99714285D02*
X206952380Y-99714285D01*
X206952380Y-99333333D01*
X207000000Y-99238095D01*
X207047619Y-99190476D01*
X207142857Y-99142857D01*
X207285714Y-99142857D01*
X207380952Y-99190476D01*
X207428571Y-99238095D01*
X207476190Y-99333333D01*
X207476190Y-99714285D01*
X207952380Y-98190476D02*
X207952380Y-98761904D01*
X207952380Y-98476190D02*
X206952380Y-98476190D01*
X207095238Y-98571428D01*
X207190476Y-98666666D01*
X207238095Y-98761904D01*
X206952380Y-97571428D02*
X206952380Y-97476190D01*
X207000000Y-97380952D01*
X207047619Y-97333333D01*
X207142857Y-97285714D01*
X207333333Y-97238095D01*
X207571428Y-97238095D01*
X207761904Y-97285714D01*
X207857142Y-97333333D01*
X207904761Y-97380952D01*
X207952380Y-97476190D01*
X207952380Y-97571428D01*
X207904761Y-97666666D01*
X207857142Y-97714285D01*
X207761904Y-97761904D01*
X207571428Y-97809523D01*
X207333333Y-97809523D01*
X207142857Y-97761904D01*
X207047619Y-97714285D01*
X207000000Y-97666666D01*
X206952380Y-97571428D01*
%TO.C,D6*%
X121511904Y-100952380D02*
X121511904Y-99952380D01*
X121750000Y-99952380D01*
X121892857Y-100000000D01*
X121988095Y-100095238D01*
X122035714Y-100190476D01*
X122083333Y-100380952D01*
X122083333Y-100523809D01*
X122035714Y-100714285D01*
X121988095Y-100809523D01*
X121892857Y-100904761D01*
X121750000Y-100952380D01*
X121511904Y-100952380D01*
X122940476Y-99952380D02*
X122750000Y-99952380D01*
X122654761Y-100000000D01*
X122607142Y-100047619D01*
X122511904Y-100190476D01*
X122464285Y-100380952D01*
X122464285Y-100761904D01*
X122511904Y-100857142D01*
X122559523Y-100904761D01*
X122654761Y-100952380D01*
X122845238Y-100952380D01*
X122940476Y-100904761D01*
X122988095Y-100857142D01*
X123035714Y-100761904D01*
X123035714Y-100523809D01*
X122988095Y-100428571D01*
X122940476Y-100380952D01*
X122845238Y-100333333D01*
X122654761Y-100333333D01*
X122559523Y-100380952D01*
X122511904Y-100428571D01*
X122464285Y-100523809D01*
%TO.C,R1*%
X81952380Y-99166666D02*
X81476190Y-99500000D01*
X81952380Y-99738095D02*
X80952380Y-99738095D01*
X80952380Y-99357142D01*
X81000000Y-99261904D01*
X81047619Y-99214285D01*
X81142857Y-99166666D01*
X81285714Y-99166666D01*
X81380952Y-99214285D01*
X81428571Y-99261904D01*
X81476190Y-99357142D01*
X81476190Y-99738095D01*
X81952380Y-98214285D02*
X81952380Y-98785714D01*
X81952380Y-98500000D02*
X80952380Y-98500000D01*
X81095238Y-98595238D01*
X81190476Y-98690476D01*
X81238095Y-98785714D01*
%TO.C,R9*%
X189952380Y-99166666D02*
X189476190Y-99500000D01*
X189952380Y-99738095D02*
X188952380Y-99738095D01*
X188952380Y-99357142D01*
X189000000Y-99261904D01*
X189047619Y-99214285D01*
X189142857Y-99166666D01*
X189285714Y-99166666D01*
X189380952Y-99214285D01*
X189428571Y-99261904D01*
X189476190Y-99357142D01*
X189476190Y-99738095D01*
X189952380Y-98690476D02*
X189952380Y-98500000D01*
X189904761Y-98404761D01*
X189857142Y-98357142D01*
X189714285Y-98261904D01*
X189523809Y-98214285D01*
X189142857Y-98214285D01*
X189047619Y-98261904D01*
X189000000Y-98309523D01*
X188952380Y-98404761D01*
X188952380Y-98595238D01*
X189000000Y-98690476D01*
X189047619Y-98738095D01*
X189142857Y-98785714D01*
X189380952Y-98785714D01*
X189476190Y-98738095D01*
X189523809Y-98690476D01*
X189571428Y-98595238D01*
X189571428Y-98404761D01*
X189523809Y-98309523D01*
X189476190Y-98261904D01*
X189380952Y-98214285D01*
%TO.C,RV1*%
X211102563Y-82612279D02*
X210626373Y-82945612D01*
X211102563Y-83183707D02*
X210102563Y-83183707D01*
X210102563Y-82802755D01*
X210150183Y-82707517D01*
X210197802Y-82659898D01*
X210293040Y-82612279D01*
X210435897Y-82612279D01*
X210531135Y-82659898D01*
X210578754Y-82707517D01*
X210626373Y-82802755D01*
X210626373Y-83183707D01*
X210102563Y-82326564D02*
X211102563Y-81993231D01*
X210102563Y-81659898D01*
X211102563Y-80802755D02*
X211102563Y-81374183D01*
X211102563Y-81088469D02*
X210102563Y-81088469D01*
X210245421Y-81183707D01*
X210340659Y-81278945D01*
X210388278Y-81374183D01*
%TO.C,Q8*%
X202961663Y-101833349D02*
X202914044Y-101928587D01*
X202818805Y-102023825D01*
X202675948Y-102166682D01*
X202628329Y-102261920D01*
X202628329Y-102357158D01*
X202866424Y-102309539D02*
X202818805Y-102404777D01*
X202723567Y-102500015D01*
X202533091Y-102547634D01*
X202199758Y-102547634D01*
X202009282Y-102500015D01*
X201914044Y-102404777D01*
X201866424Y-102309539D01*
X201866424Y-102119063D01*
X201914044Y-102023825D01*
X202009282Y-101928587D01*
X202199758Y-101880968D01*
X202533091Y-101880968D01*
X202723567Y-101928587D01*
X202818805Y-102023825D01*
X202866424Y-102119063D01*
X202866424Y-102309539D01*
X202294996Y-101309539D02*
X202247377Y-101404777D01*
X202199758Y-101452396D01*
X202104520Y-101500015D01*
X202056901Y-101500015D01*
X201961663Y-101452396D01*
X201914044Y-101404777D01*
X201866424Y-101309539D01*
X201866424Y-101119063D01*
X201914044Y-101023825D01*
X201961663Y-100976206D01*
X202056901Y-100928587D01*
X202104520Y-100928587D01*
X202199758Y-100976206D01*
X202247377Y-101023825D01*
X202294996Y-101119063D01*
X202294996Y-101309539D01*
X202342615Y-101404777D01*
X202390234Y-101452396D01*
X202485472Y-101500015D01*
X202675948Y-101500015D01*
X202771186Y-101452396D01*
X202818805Y-101404777D01*
X202866424Y-101309539D01*
X202866424Y-101119063D01*
X202818805Y-101023825D01*
X202771186Y-100976206D01*
X202675948Y-100928587D01*
X202485472Y-100928587D01*
X202390234Y-100976206D01*
X202342615Y-101023825D01*
X202294996Y-101119063D01*
%TO.C,J8*%
X181466424Y-117821444D02*
X182180710Y-117821444D01*
X182323567Y-117869063D01*
X182418805Y-117964301D01*
X182466424Y-118107158D01*
X182466424Y-118202396D01*
X181894996Y-117202396D02*
X181847377Y-117297634D01*
X181799758Y-117345253D01*
X181704520Y-117392872D01*
X181656901Y-117392872D01*
X181561663Y-117345253D01*
X181514044Y-117297634D01*
X181466424Y-117202396D01*
X181466424Y-117011920D01*
X181514044Y-116916682D01*
X181561663Y-116869063D01*
X181656901Y-116821444D01*
X181704520Y-116821444D01*
X181799758Y-116869063D01*
X181847377Y-116916682D01*
X181894996Y-117011920D01*
X181894996Y-117202396D01*
X181942615Y-117297634D01*
X181990234Y-117345253D01*
X182085472Y-117392872D01*
X182275948Y-117392872D01*
X182371186Y-117345253D01*
X182418805Y-117297634D01*
X182466424Y-117202396D01*
X182466424Y-117011920D01*
X182418805Y-116916682D01*
X182371186Y-116869063D01*
X182275948Y-116821444D01*
X182085472Y-116821444D01*
X181990234Y-116869063D01*
X181942615Y-116916682D01*
X181894996Y-117011920D01*
X182216424Y-123678587D02*
X182216424Y-124250015D01*
X182216424Y-123964301D02*
X181216424Y-123964301D01*
X181359282Y-124059539D01*
X181454520Y-124154777D01*
X181502139Y-124250015D01*
X181311663Y-123297634D02*
X181264044Y-123250015D01*
X181216424Y-123154777D01*
X181216424Y-122916682D01*
X181264044Y-122821444D01*
X181311663Y-122773825D01*
X181406901Y-122726206D01*
X181502139Y-122726206D01*
X181644996Y-122773825D01*
X182216424Y-123345253D01*
X182216424Y-122726206D01*
%TO.C,Q7*%
X184961663Y-101833349D02*
X184914044Y-101928587D01*
X184818805Y-102023825D01*
X184675948Y-102166682D01*
X184628329Y-102261920D01*
X184628329Y-102357158D01*
X184866424Y-102309539D02*
X184818805Y-102404777D01*
X184723567Y-102500015D01*
X184533091Y-102547634D01*
X184199758Y-102547634D01*
X184009282Y-102500015D01*
X183914044Y-102404777D01*
X183866424Y-102309539D01*
X183866424Y-102119063D01*
X183914044Y-102023825D01*
X184009282Y-101928587D01*
X184199758Y-101880968D01*
X184533091Y-101880968D01*
X184723567Y-101928587D01*
X184818805Y-102023825D01*
X184866424Y-102119063D01*
X184866424Y-102309539D01*
X183866424Y-101547634D02*
X183866424Y-100880968D01*
X184866424Y-101309539D01*
%TO.C,R7*%
X153952380Y-99166666D02*
X153476190Y-99500000D01*
X153952380Y-99738095D02*
X152952380Y-99738095D01*
X152952380Y-99357142D01*
X153000000Y-99261904D01*
X153047619Y-99214285D01*
X153142857Y-99166666D01*
X153285714Y-99166666D01*
X153380952Y-99214285D01*
X153428571Y-99261904D01*
X153476190Y-99357142D01*
X153476190Y-99738095D01*
X152952380Y-98833333D02*
X152952380Y-98166666D01*
X153952380Y-98595238D01*
%TO.C,R14*%
X75952380Y-93392857D02*
X75476190Y-93726190D01*
X75952380Y-93964285D02*
X74952380Y-93964285D01*
X74952380Y-93583333D01*
X75000000Y-93488095D01*
X75047619Y-93440476D01*
X75142857Y-93392857D01*
X75285714Y-93392857D01*
X75380952Y-93440476D01*
X75428571Y-93488095D01*
X75476190Y-93583333D01*
X75476190Y-93964285D01*
X75952380Y-92440476D02*
X75952380Y-93011904D01*
X75952380Y-92726190D02*
X74952380Y-92726190D01*
X75095238Y-92821428D01*
X75190476Y-92916666D01*
X75238095Y-93011904D01*
X75285714Y-91583333D02*
X75952380Y-91583333D01*
X74904761Y-91821428D02*
X75619047Y-92059523D01*
X75619047Y-91440476D01*
%TO.C,J15*%
X173729520Y-69329421D02*
X173729520Y-70043707D01*
X173681901Y-70186564D01*
X173586663Y-70281802D01*
X173443805Y-70329421D01*
X173348567Y-70329421D01*
X174729520Y-70329421D02*
X174158091Y-70329421D01*
X174443805Y-70329421D02*
X174443805Y-69329421D01*
X174348567Y-69472279D01*
X174253329Y-69567517D01*
X174158091Y-69615136D01*
X175634282Y-69329421D02*
X175158091Y-69329421D01*
X175110472Y-69805612D01*
X175158091Y-69757993D01*
X175253329Y-69710374D01*
X175491424Y-69710374D01*
X175586663Y-69757993D01*
X175634282Y-69805612D01*
X175681901Y-69900850D01*
X175681901Y-70138945D01*
X175634282Y-70234183D01*
X175586663Y-70281802D01*
X175491424Y-70329421D01*
X175253329Y-70329421D01*
X175158091Y-70281802D01*
X175110472Y-70234183D01*
X169761663Y-62750015D02*
X169714044Y-62702396D01*
X169666424Y-62607158D01*
X169666424Y-62369063D01*
X169714044Y-62273825D01*
X169761663Y-62226206D01*
X169856901Y-62178587D01*
X169952139Y-62178587D01*
X170094996Y-62226206D01*
X170666424Y-62797634D01*
X170666424Y-62178587D01*
X169761663Y-61797634D02*
X169714044Y-61750015D01*
X169666424Y-61654777D01*
X169666424Y-61416682D01*
X169714044Y-61321444D01*
X169761663Y-61273825D01*
X169856901Y-61226206D01*
X169952139Y-61226206D01*
X170094996Y-61273825D01*
X170666424Y-61845253D01*
X170666424Y-61226206D01*
%TO.C,D5*%
X96702380Y-99738095D02*
X95702380Y-99738095D01*
X95702380Y-99500000D01*
X95750000Y-99357142D01*
X95845238Y-99261904D01*
X95940476Y-99214285D01*
X96130952Y-99166666D01*
X96273809Y-99166666D01*
X96464285Y-99214285D01*
X96559523Y-99261904D01*
X96654761Y-99357142D01*
X96702380Y-99500000D01*
X96702380Y-99738095D01*
X95702380Y-98261904D02*
X95702380Y-98738095D01*
X96178571Y-98785714D01*
X96130952Y-98738095D01*
X96083333Y-98642857D01*
X96083333Y-98404761D01*
X96130952Y-98309523D01*
X96178571Y-98261904D01*
X96273809Y-98214285D01*
X96511904Y-98214285D01*
X96607142Y-98261904D01*
X96654761Y-98309523D01*
X96702380Y-98404761D01*
X96702380Y-98642857D01*
X96654761Y-98738095D01*
X96607142Y-98785714D01*
%TO.C,C6*%
X160233333Y-80257142D02*
X160185714Y-80304761D01*
X160042857Y-80352380D01*
X159947619Y-80352380D01*
X159804761Y-80304761D01*
X159709523Y-80209523D01*
X159661904Y-80114285D01*
X159614285Y-79923809D01*
X159614285Y-79780952D01*
X159661904Y-79590476D01*
X159709523Y-79495238D01*
X159804761Y-79400000D01*
X159947619Y-79352380D01*
X160042857Y-79352380D01*
X160185714Y-79400000D01*
X160233333Y-79447619D01*
X161090476Y-79352380D02*
X160900000Y-79352380D01*
X160804761Y-79400000D01*
X160757142Y-79447619D01*
X160661904Y-79590476D01*
X160614285Y-79780952D01*
X160614285Y-80161904D01*
X160661904Y-80257142D01*
X160709523Y-80304761D01*
X160804761Y-80352380D01*
X160995238Y-80352380D01*
X161090476Y-80304761D01*
X161138095Y-80257142D01*
X161185714Y-80161904D01*
X161185714Y-79923809D01*
X161138095Y-79828571D01*
X161090476Y-79780952D01*
X160995238Y-79733333D01*
X160804761Y-79733333D01*
X160709523Y-79780952D01*
X160661904Y-79828571D01*
X160614285Y-79923809D01*
%TO.C,D4*%
X103511904Y-100952380D02*
X103511904Y-99952380D01*
X103750000Y-99952380D01*
X103892857Y-100000000D01*
X103988095Y-100095238D01*
X104035714Y-100190476D01*
X104083333Y-100380952D01*
X104083333Y-100523809D01*
X104035714Y-100714285D01*
X103988095Y-100809523D01*
X103892857Y-100904761D01*
X103750000Y-100952380D01*
X103511904Y-100952380D01*
X104940476Y-100285714D02*
X104940476Y-100952380D01*
X104702380Y-99904761D02*
X104464285Y-100619047D01*
X105083333Y-100619047D01*
%TO.C,R4*%
X135952380Y-99166666D02*
X135476190Y-99500000D01*
X135952380Y-99738095D02*
X134952380Y-99738095D01*
X134952380Y-99357142D01*
X135000000Y-99261904D01*
X135047619Y-99214285D01*
X135142857Y-99166666D01*
X135285714Y-99166666D01*
X135380952Y-99214285D01*
X135428571Y-99261904D01*
X135476190Y-99357142D01*
X135476190Y-99738095D01*
X135285714Y-98309523D02*
X135952380Y-98309523D01*
X134904761Y-98547619D02*
X135619047Y-98785714D01*
X135619047Y-98166666D01*
%TO.C,U5*%
X92948095Y-85202380D02*
X92948095Y-86011904D01*
X92995714Y-86107142D01*
X93043333Y-86154761D01*
X93138571Y-86202380D01*
X93329047Y-86202380D01*
X93424285Y-86154761D01*
X93471904Y-86107142D01*
X93519523Y-86011904D01*
X93519523Y-85202380D01*
X94471904Y-85202380D02*
X93995714Y-85202380D01*
X93948095Y-85678571D01*
X93995714Y-85630952D01*
X94090952Y-85583333D01*
X94329047Y-85583333D01*
X94424285Y-85630952D01*
X94471904Y-85678571D01*
X94519523Y-85773809D01*
X94519523Y-86011904D01*
X94471904Y-86107142D01*
X94424285Y-86154761D01*
X94329047Y-86202380D01*
X94090952Y-86202380D01*
X93995714Y-86154761D01*
X93948095Y-86107142D01*
D11*
X89161904Y-87036088D02*
X89161904Y-86578945D01*
X89961904Y-86807517D02*
X89161904Y-86807517D01*
X89923809Y-86350374D02*
X89961904Y-86236088D01*
X89961904Y-86045612D01*
X89923809Y-85969421D01*
X89885714Y-85931326D01*
X89809523Y-85893231D01*
X89733333Y-85893231D01*
X89657142Y-85931326D01*
X89619047Y-85969421D01*
X89580952Y-86045612D01*
X89542857Y-86197993D01*
X89504761Y-86274183D01*
X89466666Y-86312279D01*
X89390476Y-86350374D01*
X89314285Y-86350374D01*
X89238095Y-86312279D01*
X89200000Y-86274183D01*
X89161904Y-86197993D01*
X89161904Y-86007517D01*
X89200000Y-85893231D01*
X89161904Y-85397993D02*
X89161904Y-85245612D01*
X89200000Y-85169421D01*
X89276190Y-85093231D01*
X89428571Y-85055136D01*
X89695238Y-85055136D01*
X89847619Y-85093231D01*
X89923809Y-85169421D01*
X89961904Y-85245612D01*
X89961904Y-85397993D01*
X89923809Y-85474183D01*
X89847619Y-85550374D01*
X89695238Y-85588469D01*
X89428571Y-85588469D01*
X89276190Y-85550374D01*
X89200000Y-85474183D01*
X89161904Y-85397993D01*
X89961904Y-84712279D02*
X89161904Y-84712279D01*
X89161904Y-84407517D01*
X89200000Y-84331326D01*
X89238095Y-84293231D01*
X89314285Y-84255136D01*
X89428571Y-84255136D01*
X89504761Y-84293231D01*
X89542857Y-84331326D01*
X89580952Y-84407517D01*
X89580952Y-84712279D01*
X89161904Y-83988469D02*
X89161904Y-83493231D01*
X89466666Y-83759898D01*
X89466666Y-83645612D01*
X89504761Y-83569421D01*
X89542857Y-83531326D01*
X89619047Y-83493231D01*
X89809523Y-83493231D01*
X89885714Y-83531326D01*
X89923809Y-83569421D01*
X89961904Y-83645612D01*
X89961904Y-83874183D01*
X89923809Y-83950374D01*
X89885714Y-83988469D01*
X89504761Y-83036088D02*
X89466666Y-83112279D01*
X89428571Y-83150374D01*
X89352380Y-83188469D01*
X89314285Y-83188469D01*
X89238095Y-83150374D01*
X89200000Y-83112279D01*
X89161904Y-83036088D01*
X89161904Y-82883707D01*
X89200000Y-82807517D01*
X89238095Y-82769421D01*
X89314285Y-82731326D01*
X89352380Y-82731326D01*
X89428571Y-82769421D01*
X89466666Y-82807517D01*
X89504761Y-82883707D01*
X89504761Y-83036088D01*
X89542857Y-83112279D01*
X89580952Y-83150374D01*
X89657142Y-83188469D01*
X89809523Y-83188469D01*
X89885714Y-83150374D01*
X89923809Y-83112279D01*
X89961904Y-83036088D01*
X89961904Y-82883707D01*
X89923809Y-82807517D01*
X89885714Y-82769421D01*
X89809523Y-82731326D01*
X89657142Y-82731326D01*
X89580952Y-82769421D01*
X89542857Y-82807517D01*
X89504761Y-82883707D01*
X89238095Y-82426564D02*
X89200000Y-82388469D01*
X89161904Y-82312279D01*
X89161904Y-82121802D01*
X89200000Y-82045612D01*
X89238095Y-82007517D01*
X89314285Y-81969421D01*
X89390476Y-81969421D01*
X89504761Y-82007517D01*
X89961904Y-82464660D01*
X89961904Y-81969421D01*
X89961904Y-81702755D02*
X89428571Y-81283707D01*
X89428571Y-81702755D02*
X89961904Y-81283707D01*
X89961904Y-81055136D02*
X89428571Y-80636088D01*
X89428571Y-81055136D02*
X89961904Y-80636088D01*
D10*
X95742380Y-81415095D02*
X95742380Y-80796047D01*
X96123333Y-81129380D01*
X96123333Y-80986523D01*
X96170952Y-80891285D01*
X96218571Y-80843666D01*
X96313809Y-80796047D01*
X96551904Y-80796047D01*
X96647142Y-80843666D01*
X96694761Y-80891285D01*
X96742380Y-80986523D01*
X96742380Y-81272238D01*
X96694761Y-81367476D01*
X96647142Y-81415095D01*
X95742380Y-80510333D02*
X96742380Y-80177000D01*
X95742380Y-79843666D01*
X95742380Y-79605571D02*
X95742380Y-78986523D01*
X96123333Y-79319857D01*
X96123333Y-79177000D01*
X96170952Y-79081761D01*
X96218571Y-79034142D01*
X96313809Y-78986523D01*
X96551904Y-78986523D01*
X96647142Y-79034142D01*
X96694761Y-79081761D01*
X96742380Y-79177000D01*
X96742380Y-79462714D01*
X96694761Y-79557952D01*
X96647142Y-79605571D01*
X93250000Y-80938904D02*
X93202380Y-81034142D01*
X93202380Y-81177000D01*
X93250000Y-81319857D01*
X93345238Y-81415095D01*
X93440476Y-81462714D01*
X93630952Y-81510333D01*
X93773809Y-81510333D01*
X93964285Y-81462714D01*
X94059523Y-81415095D01*
X94154761Y-81319857D01*
X94202380Y-81177000D01*
X94202380Y-81081761D01*
X94154761Y-80938904D01*
X94107142Y-80891285D01*
X93773809Y-80891285D01*
X93773809Y-81081761D01*
X94202380Y-80462714D02*
X93202380Y-80462714D01*
X94202380Y-79891285D01*
X93202380Y-79891285D01*
X94202380Y-79415095D02*
X93202380Y-79415095D01*
X93202380Y-79177000D01*
X93250000Y-79034142D01*
X93345238Y-78938904D01*
X93440476Y-78891285D01*
X93630952Y-78843666D01*
X93773809Y-78843666D01*
X93964285Y-78891285D01*
X94059523Y-78938904D01*
X94154761Y-79034142D01*
X94202380Y-79177000D01*
X94202380Y-79415095D01*
X91662380Y-81383380D02*
X90662380Y-81383380D01*
X90662380Y-81002428D02*
X90662380Y-80383380D01*
X91043333Y-80716714D01*
X91043333Y-80573857D01*
X91090952Y-80478619D01*
X91138571Y-80431000D01*
X91233809Y-80383380D01*
X91471904Y-80383380D01*
X91567142Y-80431000D01*
X91614761Y-80478619D01*
X91662380Y-80573857D01*
X91662380Y-80859571D01*
X91614761Y-80954809D01*
X91567142Y-81002428D01*
X90662380Y-79478619D02*
X90662380Y-79954809D01*
X91138571Y-80002428D01*
X91090952Y-79954809D01*
X91043333Y-79859571D01*
X91043333Y-79621476D01*
X91090952Y-79526238D01*
X91138571Y-79478619D01*
X91233809Y-79431000D01*
X91471904Y-79431000D01*
X91567142Y-79478619D01*
X91614761Y-79526238D01*
X91662380Y-79621476D01*
X91662380Y-79859571D01*
X91614761Y-79954809D01*
X91567142Y-80002428D01*
%TO.C,R11*%
X103344598Y-97702380D02*
X103011265Y-97226190D01*
X102773170Y-97702380D02*
X102773170Y-96702380D01*
X103154122Y-96702380D01*
X103249360Y-96750000D01*
X103296979Y-96797619D01*
X103344598Y-96892857D01*
X103344598Y-97035714D01*
X103296979Y-97130952D01*
X103249360Y-97178571D01*
X103154122Y-97226190D01*
X102773170Y-97226190D01*
X104296979Y-97702380D02*
X103725551Y-97702380D01*
X104011265Y-97702380D02*
X104011265Y-96702380D01*
X103916027Y-96845238D01*
X103820789Y-96940476D01*
X103725551Y-96988095D01*
X105249360Y-97702380D02*
X104677932Y-97702380D01*
X104963646Y-97702380D02*
X104963646Y-96702380D01*
X104868408Y-96845238D01*
X104773170Y-96940476D01*
X104677932Y-96988095D01*
%TO.C,D10*%
X157035714Y-100952380D02*
X157035714Y-99952380D01*
X157273809Y-99952380D01*
X157416666Y-100000000D01*
X157511904Y-100095238D01*
X157559523Y-100190476D01*
X157607142Y-100380952D01*
X157607142Y-100523809D01*
X157559523Y-100714285D01*
X157511904Y-100809523D01*
X157416666Y-100904761D01*
X157273809Y-100952380D01*
X157035714Y-100952380D01*
X158559523Y-100952380D02*
X157988095Y-100952380D01*
X158273809Y-100952380D02*
X158273809Y-99952380D01*
X158178571Y-100095238D01*
X158083333Y-100190476D01*
X157988095Y-100238095D01*
X159178571Y-99952380D02*
X159273809Y-99952380D01*
X159369047Y-100000000D01*
X159416666Y-100047619D01*
X159464285Y-100142857D01*
X159511904Y-100333333D01*
X159511904Y-100571428D01*
X159464285Y-100761904D01*
X159416666Y-100857142D01*
X159369047Y-100904761D01*
X159273809Y-100952380D01*
X159178571Y-100952380D01*
X159083333Y-100904761D01*
X159035714Y-100857142D01*
X158988095Y-100761904D01*
X158940476Y-100571428D01*
X158940476Y-100333333D01*
X158988095Y-100142857D01*
X159035714Y-100047619D01*
X159083333Y-100000000D01*
X159178571Y-99952380D01*
%TO.C,J1*%
X210080347Y-92600374D02*
X210794633Y-92600374D01*
X210937490Y-92647993D01*
X211032728Y-92743231D01*
X211080347Y-92886088D01*
X211080347Y-92981326D01*
X211080347Y-91600374D02*
X211080347Y-92171802D01*
X211080347Y-91886088D02*
X210080347Y-91886088D01*
X210223205Y-91981326D01*
X210318443Y-92076564D01*
X210366062Y-92171802D01*
X212247619Y-97552380D02*
X212247619Y-96552380D01*
X212628571Y-96552380D01*
X212723809Y-96600000D01*
X212771428Y-96647619D01*
X212819047Y-96742857D01*
X212819047Y-96885714D01*
X212771428Y-96980952D01*
X212723809Y-97028571D01*
X212628571Y-97076190D01*
X212247619Y-97076190D01*
X213438095Y-96552380D02*
X213628571Y-96552380D01*
X213723809Y-96600000D01*
X213819047Y-96695238D01*
X213866666Y-96885714D01*
X213866666Y-97219047D01*
X213819047Y-97409523D01*
X213723809Y-97504761D01*
X213628571Y-97552380D01*
X213438095Y-97552380D01*
X213342857Y-97504761D01*
X213247619Y-97409523D01*
X213200000Y-97219047D01*
X213200000Y-96885714D01*
X213247619Y-96695238D01*
X213342857Y-96600000D01*
X213438095Y-96552380D01*
X214200000Y-96552380D02*
X214438095Y-97552380D01*
X214628571Y-96838095D01*
X214819047Y-97552380D01*
X215057142Y-96552380D01*
X215438095Y-97028571D02*
X215771428Y-97028571D01*
X215914285Y-97552380D02*
X215438095Y-97552380D01*
X215438095Y-96552380D01*
X215914285Y-96552380D01*
X216914285Y-97552380D02*
X216580952Y-97076190D01*
X216342857Y-97552380D02*
X216342857Y-96552380D01*
X216723809Y-96552380D01*
X216819047Y-96600000D01*
X216866666Y-96647619D01*
X216914285Y-96742857D01*
X216914285Y-96885714D01*
X216866666Y-96980952D01*
X216819047Y-97028571D01*
X216723809Y-97076190D01*
X216342857Y-97076190D01*
X217104761Y-97647619D02*
X217866666Y-97647619D01*
X218104761Y-97552380D02*
X218104761Y-96552380D01*
X218580952Y-97552380D02*
X218580952Y-96552380D01*
X219152380Y-97552380D01*
X219152380Y-96552380D01*
%TO.C,D9*%
X132702380Y-99738095D02*
X131702380Y-99738095D01*
X131702380Y-99500000D01*
X131750000Y-99357142D01*
X131845238Y-99261904D01*
X131940476Y-99214285D01*
X132130952Y-99166666D01*
X132273809Y-99166666D01*
X132464285Y-99214285D01*
X132559523Y-99261904D01*
X132654761Y-99357142D01*
X132702380Y-99500000D01*
X132702380Y-99738095D01*
X132702380Y-98690476D02*
X132702380Y-98500000D01*
X132654761Y-98404761D01*
X132607142Y-98357142D01*
X132464285Y-98261904D01*
X132273809Y-98214285D01*
X131892857Y-98214285D01*
X131797619Y-98261904D01*
X131750000Y-98309523D01*
X131702380Y-98404761D01*
X131702380Y-98595238D01*
X131750000Y-98690476D01*
X131797619Y-98738095D01*
X131892857Y-98785714D01*
X132130952Y-98785714D01*
X132226190Y-98738095D01*
X132273809Y-98690476D01*
X132321428Y-98595238D01*
X132321428Y-98404761D01*
X132273809Y-98309523D01*
X132226190Y-98261904D01*
X132130952Y-98214285D01*
%TO.C,J5*%
X127466424Y-117821444D02*
X128180710Y-117821444D01*
X128323567Y-117869063D01*
X128418805Y-117964301D01*
X128466424Y-118107158D01*
X128466424Y-118202396D01*
X127466424Y-116869063D02*
X127466424Y-117345253D01*
X127942615Y-117392872D01*
X127894996Y-117345253D01*
X127847377Y-117250015D01*
X127847377Y-117011920D01*
X127894996Y-116916682D01*
X127942615Y-116869063D01*
X128037853Y-116821444D01*
X128275948Y-116821444D01*
X128371186Y-116869063D01*
X128418805Y-116916682D01*
X128466424Y-117011920D01*
X128466424Y-117250015D01*
X128418805Y-117345253D01*
X128371186Y-117392872D01*
X127312493Y-124250015D02*
X127264874Y-124202396D01*
X127217254Y-124107158D01*
X127217254Y-123869063D01*
X127264874Y-123773825D01*
X127312493Y-123726206D01*
X127407731Y-123678587D01*
X127502969Y-123678587D01*
X127645826Y-123726206D01*
X128217254Y-124297634D01*
X128217254Y-123678587D01*
X127217254Y-122821444D02*
X127217254Y-123011920D01*
X127264874Y-123107158D01*
X127312493Y-123154777D01*
X127455350Y-123250015D01*
X127645826Y-123297634D01*
X128026778Y-123297634D01*
X128122016Y-123250015D01*
X128169635Y-123202396D01*
X128217254Y-123107158D01*
X128217254Y-122916682D01*
X128169635Y-122821444D01*
X128122016Y-122773825D01*
X128026778Y-122726206D01*
X127788683Y-122726206D01*
X127693445Y-122773825D01*
X127645826Y-122821444D01*
X127598207Y-122916682D01*
X127598207Y-123107158D01*
X127645826Y-123202396D01*
X127693445Y-123250015D01*
X127788683Y-123297634D01*
%TO.C,Q5*%
X148961663Y-101833349D02*
X148914044Y-101928587D01*
X148818805Y-102023825D01*
X148675948Y-102166682D01*
X148628329Y-102261920D01*
X148628329Y-102357158D01*
X148866424Y-102309539D02*
X148818805Y-102404777D01*
X148723567Y-102500015D01*
X148533091Y-102547634D01*
X148199758Y-102547634D01*
X148009282Y-102500015D01*
X147914044Y-102404777D01*
X147866424Y-102309539D01*
X147866424Y-102119063D01*
X147914044Y-102023825D01*
X148009282Y-101928587D01*
X148199758Y-101880968D01*
X148533091Y-101880968D01*
X148723567Y-101928587D01*
X148818805Y-102023825D01*
X148866424Y-102119063D01*
X148866424Y-102309539D01*
X147866424Y-100976206D02*
X147866424Y-101452396D01*
X148342615Y-101500015D01*
X148294996Y-101452396D01*
X148247377Y-101357158D01*
X148247377Y-101119063D01*
X148294996Y-101023825D01*
X148342615Y-100976206D01*
X148437853Y-100928587D01*
X148675948Y-100928587D01*
X148771186Y-100976206D01*
X148818805Y-101023825D01*
X148866424Y-101119063D01*
X148866424Y-101357158D01*
X148818805Y-101452396D01*
X148771186Y-101500015D01*
%TO.C,R15*%
X86452380Y-93409898D02*
X85976190Y-93743231D01*
X86452380Y-93981326D02*
X85452380Y-93981326D01*
X85452380Y-93600374D01*
X85500000Y-93505136D01*
X85547619Y-93457517D01*
X85642857Y-93409898D01*
X85785714Y-93409898D01*
X85880952Y-93457517D01*
X85928571Y-93505136D01*
X85976190Y-93600374D01*
X85976190Y-93981326D01*
X86452380Y-92457517D02*
X86452380Y-93028945D01*
X86452380Y-92743231D02*
X85452380Y-92743231D01*
X85595238Y-92838469D01*
X85690476Y-92933707D01*
X85738095Y-93028945D01*
X85452380Y-91552755D02*
X85452380Y-92028945D01*
X85928571Y-92076564D01*
X85880952Y-92028945D01*
X85833333Y-91933707D01*
X85833333Y-91695612D01*
X85880952Y-91600374D01*
X85928571Y-91552755D01*
X86023809Y-91505136D01*
X86261904Y-91505136D01*
X86357142Y-91552755D01*
X86404761Y-91600374D01*
X86452380Y-91695612D01*
X86452380Y-91933707D01*
X86404761Y-92028945D01*
X86357142Y-92076564D01*
%TO.C,K4*%
X143866424Y-110426206D02*
X142866424Y-110426206D01*
X143866424Y-109854777D02*
X143294996Y-110283349D01*
X142866424Y-109854777D02*
X143437853Y-110426206D01*
X143199758Y-108997634D02*
X143866424Y-108997634D01*
X142818805Y-109235730D02*
X143533091Y-109473825D01*
X143533091Y-108854777D01*
%TO.C,J16*%
X182729520Y-69329421D02*
X182729520Y-70043707D01*
X182681901Y-70186564D01*
X182586663Y-70281802D01*
X182443805Y-70329421D01*
X182348567Y-70329421D01*
X183729520Y-70329421D02*
X183158091Y-70329421D01*
X183443805Y-70329421D02*
X183443805Y-69329421D01*
X183348567Y-69472279D01*
X183253329Y-69567517D01*
X183158091Y-69615136D01*
X184586663Y-69329421D02*
X184396186Y-69329421D01*
X184300948Y-69377041D01*
X184253329Y-69424660D01*
X184158091Y-69567517D01*
X184110472Y-69757993D01*
X184110472Y-70138945D01*
X184158091Y-70234183D01*
X184205710Y-70281802D01*
X184300948Y-70329421D01*
X184491424Y-70329421D01*
X184586663Y-70281802D01*
X184634282Y-70234183D01*
X184681901Y-70138945D01*
X184681901Y-69900850D01*
X184634282Y-69805612D01*
X184586663Y-69757993D01*
X184491424Y-69710374D01*
X184300948Y-69710374D01*
X184205710Y-69757993D01*
X184158091Y-69805612D01*
X184110472Y-69900850D01*
X178758907Y-62750015D02*
X178711288Y-62702396D01*
X178663668Y-62607158D01*
X178663668Y-62369063D01*
X178711288Y-62273825D01*
X178758907Y-62226206D01*
X178854145Y-62178587D01*
X178949383Y-62178587D01*
X179092240Y-62226206D01*
X179663668Y-62797634D01*
X179663668Y-62178587D01*
X178663668Y-61845253D02*
X178663668Y-61226206D01*
X179044621Y-61559539D01*
X179044621Y-61416682D01*
X179092240Y-61321444D01*
X179139859Y-61273825D01*
X179235097Y-61226206D01*
X179473192Y-61226206D01*
X179568430Y-61273825D01*
X179616049Y-61321444D01*
X179663668Y-61416682D01*
X179663668Y-61702396D01*
X179616049Y-61797634D01*
X179568430Y-61845253D01*
%TO.C,Q2*%
X94961663Y-101833349D02*
X94914044Y-101928587D01*
X94818805Y-102023825D01*
X94675948Y-102166682D01*
X94628329Y-102261920D01*
X94628329Y-102357158D01*
X94866424Y-102309539D02*
X94818805Y-102404777D01*
X94723567Y-102500015D01*
X94533091Y-102547634D01*
X94199758Y-102547634D01*
X94009282Y-102500015D01*
X93914044Y-102404777D01*
X93866424Y-102309539D01*
X93866424Y-102119063D01*
X93914044Y-102023825D01*
X94009282Y-101928587D01*
X94199758Y-101880968D01*
X94533091Y-101880968D01*
X94723567Y-101928587D01*
X94818805Y-102023825D01*
X94866424Y-102119063D01*
X94866424Y-102309539D01*
X93961663Y-101500015D02*
X93914044Y-101452396D01*
X93866424Y-101357158D01*
X93866424Y-101119063D01*
X93914044Y-101023825D01*
X93961663Y-100976206D01*
X94056901Y-100928587D01*
X94152139Y-100928587D01*
X94294996Y-100976206D01*
X94866424Y-101547634D01*
X94866424Y-100928587D01*
%TO.C,U2*%
X88952380Y-93025772D02*
X89761904Y-93025772D01*
X89857142Y-92978153D01*
X89904761Y-92930534D01*
X89952380Y-92835296D01*
X89952380Y-92644820D01*
X89904761Y-92549582D01*
X89857142Y-92501963D01*
X89761904Y-92454344D01*
X88952380Y-92454344D01*
X89047619Y-92025772D02*
X89000000Y-91978153D01*
X88952380Y-91882915D01*
X88952380Y-91644820D01*
X89000000Y-91549582D01*
X89047619Y-91501963D01*
X89142857Y-91454344D01*
X89238095Y-91454344D01*
X89380952Y-91501963D01*
X89952380Y-92073391D01*
X89952380Y-91454344D01*
D11*
X98133333Y-95635296D02*
X98133333Y-95254344D01*
X98361904Y-95711487D02*
X97561904Y-95444820D01*
X98361904Y-95178153D01*
X98361904Y-94911487D02*
X97561904Y-94911487D01*
X97561904Y-94606725D01*
X97600000Y-94530534D01*
X97638095Y-94492439D01*
X97714285Y-94454344D01*
X97828571Y-94454344D01*
X97904761Y-94492439D01*
X97942857Y-94530534D01*
X97980952Y-94606725D01*
X97980952Y-94911487D01*
X98361904Y-93692439D02*
X98361904Y-94149582D01*
X98361904Y-93921010D02*
X97561904Y-93921010D01*
X97676190Y-93997201D01*
X97752380Y-94073391D01*
X97790476Y-94149582D01*
X98361904Y-92930534D02*
X98361904Y-93387677D01*
X98361904Y-93159106D02*
X97561904Y-93159106D01*
X97676190Y-93235296D01*
X97752380Y-93311487D01*
X97790476Y-93387677D01*
X98361904Y-92168629D02*
X98361904Y-92625772D01*
X98361904Y-92397201D02*
X97561904Y-92397201D01*
X97676190Y-92473391D01*
X97752380Y-92549582D01*
X97790476Y-92625772D01*
X97561904Y-91901963D02*
X97561904Y-91368629D01*
X98361904Y-91711487D01*
X98057142Y-91063868D02*
X98057142Y-90454344D01*
X97561904Y-90149582D02*
X97561904Y-89654344D01*
X97866666Y-89921010D01*
X97866666Y-89806725D01*
X97904761Y-89730534D01*
X97942857Y-89692439D01*
X98019047Y-89654344D01*
X98209523Y-89654344D01*
X98285714Y-89692439D01*
X98323809Y-89730534D01*
X98361904Y-89806725D01*
X98361904Y-90035296D01*
X98323809Y-90111487D01*
X98285714Y-90149582D01*
X97561904Y-89387677D02*
X97561904Y-88892439D01*
X97866666Y-89159106D01*
X97866666Y-89044820D01*
X97904761Y-88968629D01*
X97942857Y-88930534D01*
X98019047Y-88892439D01*
X98209523Y-88892439D01*
X98285714Y-88930534D01*
X98323809Y-88968629D01*
X98361904Y-89044820D01*
X98361904Y-89273391D01*
X98323809Y-89349582D01*
X98285714Y-89387677D01*
D10*
%TO.C,R13*%
X103357142Y-70202380D02*
X103023809Y-69726190D01*
X102785714Y-70202380D02*
X102785714Y-69202380D01*
X103166666Y-69202380D01*
X103261904Y-69250000D01*
X103309523Y-69297619D01*
X103357142Y-69392857D01*
X103357142Y-69535714D01*
X103309523Y-69630952D01*
X103261904Y-69678571D01*
X103166666Y-69726190D01*
X102785714Y-69726190D01*
X104309523Y-70202380D02*
X103738095Y-70202380D01*
X104023809Y-70202380D02*
X104023809Y-69202380D01*
X103928571Y-69345238D01*
X103833333Y-69440476D01*
X103738095Y-69488095D01*
X104642857Y-69202380D02*
X105261904Y-69202380D01*
X104928571Y-69583333D01*
X105071428Y-69583333D01*
X105166666Y-69630952D01*
X105214285Y-69678571D01*
X105261904Y-69773809D01*
X105261904Y-70011904D01*
X105214285Y-70107142D01*
X105166666Y-70154761D01*
X105071428Y-70202380D01*
X104785714Y-70202380D01*
X104690476Y-70154761D01*
X104642857Y-70107142D01*
%TO.C,D17*%
X204702380Y-99714285D02*
X203702380Y-99714285D01*
X203702380Y-99476190D01*
X203750000Y-99333333D01*
X203845238Y-99238095D01*
X203940476Y-99190476D01*
X204130952Y-99142857D01*
X204273809Y-99142857D01*
X204464285Y-99190476D01*
X204559523Y-99238095D01*
X204654761Y-99333333D01*
X204702380Y-99476190D01*
X204702380Y-99714285D01*
X204702380Y-98190476D02*
X204702380Y-98761904D01*
X204702380Y-98476190D02*
X203702380Y-98476190D01*
X203845238Y-98571428D01*
X203940476Y-98666666D01*
X203988095Y-98761904D01*
X203702380Y-97857142D02*
X203702380Y-97190476D01*
X204702380Y-97619047D01*
%TO.C,C7*%
X180807256Y-91257142D02*
X180759637Y-91304761D01*
X180616780Y-91352380D01*
X180521542Y-91352380D01*
X180378684Y-91304761D01*
X180283446Y-91209523D01*
X180235827Y-91114285D01*
X180188208Y-90923809D01*
X180188208Y-90780952D01*
X180235827Y-90590476D01*
X180283446Y-90495238D01*
X180378684Y-90400000D01*
X180521542Y-90352380D01*
X180616780Y-90352380D01*
X180759637Y-90400000D01*
X180807256Y-90447619D01*
X181140589Y-90352380D02*
X181807256Y-90352380D01*
X181378684Y-91352380D01*
%TO.C,C4*%
X184275109Y-79233707D02*
X184322728Y-79281326D01*
X184370347Y-79424183D01*
X184370347Y-79519421D01*
X184322728Y-79662279D01*
X184227490Y-79757517D01*
X184132252Y-79805136D01*
X183941776Y-79852755D01*
X183798919Y-79852755D01*
X183608443Y-79805136D01*
X183513205Y-79757517D01*
X183417967Y-79662279D01*
X183370347Y-79519421D01*
X183370347Y-79424183D01*
X183417967Y-79281326D01*
X183465586Y-79233707D01*
X183703681Y-78376564D02*
X184370347Y-78376564D01*
X183322728Y-78614660D02*
X184037014Y-78852755D01*
X184037014Y-78233707D01*
%TO.C,K5*%
X161866424Y-110426206D02*
X160866424Y-110426206D01*
X161866424Y-109854777D02*
X161294996Y-110283349D01*
X160866424Y-109854777D02*
X161437853Y-110426206D01*
X160866424Y-108950015D02*
X160866424Y-109426206D01*
X161342615Y-109473825D01*
X161294996Y-109426206D01*
X161247377Y-109330968D01*
X161247377Y-109092872D01*
X161294996Y-108997634D01*
X161342615Y-108950015D01*
X161437853Y-108902396D01*
X161675948Y-108902396D01*
X161771186Y-108950015D01*
X161818805Y-108997634D01*
X161866424Y-109092872D01*
X161866424Y-109330968D01*
X161818805Y-109426206D01*
X161771186Y-109473825D01*
%TO.C,J2*%
X75966424Y-117821444D02*
X76680710Y-117821444D01*
X76823567Y-117869063D01*
X76918805Y-117964301D01*
X76966424Y-118107158D01*
X76966424Y-118202396D01*
X76061663Y-117392872D02*
X76014044Y-117345253D01*
X75966424Y-117250015D01*
X75966424Y-117011920D01*
X76014044Y-116916682D01*
X76061663Y-116869063D01*
X76156901Y-116821444D01*
X76252139Y-116821444D01*
X76394996Y-116869063D01*
X76966424Y-117440491D01*
X76966424Y-116821444D01*
X75716424Y-124297634D02*
X75716424Y-123678587D01*
X76097377Y-124011920D01*
X76097377Y-123869063D01*
X76144996Y-123773825D01*
X76192615Y-123726206D01*
X76287853Y-123678587D01*
X76525948Y-123678587D01*
X76621186Y-123726206D01*
X76668805Y-123773825D01*
X76716424Y-123869063D01*
X76716424Y-124154777D01*
X76668805Y-124250015D01*
X76621186Y-124297634D01*
X75811663Y-123297634D02*
X75764044Y-123250015D01*
X75716424Y-123154777D01*
X75716424Y-122916682D01*
X75764044Y-122821444D01*
X75811663Y-122773825D01*
X75906901Y-122726206D01*
X76002139Y-122726206D01*
X76144996Y-122773825D01*
X76716424Y-123345253D01*
X76716424Y-122726206D01*
%TO.C,C1*%
X203857142Y-88566666D02*
X203904761Y-88614285D01*
X203952380Y-88757142D01*
X203952380Y-88852380D01*
X203904761Y-88995238D01*
X203809523Y-89090476D01*
X203714285Y-89138095D01*
X203523809Y-89185714D01*
X203380952Y-89185714D01*
X203190476Y-89138095D01*
X203095238Y-89090476D01*
X203000000Y-88995238D01*
X202952380Y-88852380D01*
X202952380Y-88757142D01*
X203000000Y-88614285D01*
X203047619Y-88566666D01*
X203952380Y-87614285D02*
X203952380Y-88185714D01*
X203952380Y-87900000D02*
X202952380Y-87900000D01*
X203095238Y-87995238D01*
X203190476Y-88090476D01*
X203238095Y-88185714D01*
%TO.C,J10*%
X128729520Y-69329421D02*
X128729520Y-70043707D01*
X128681901Y-70186564D01*
X128586663Y-70281802D01*
X128443805Y-70329421D01*
X128348567Y-70329421D01*
X129729520Y-70329421D02*
X129158091Y-70329421D01*
X129443805Y-70329421D02*
X129443805Y-69329421D01*
X129348567Y-69472279D01*
X129253329Y-69567517D01*
X129158091Y-69615136D01*
X130348567Y-69329421D02*
X130443805Y-69329421D01*
X130539044Y-69377041D01*
X130586663Y-69424660D01*
X130634282Y-69519898D01*
X130681901Y-69710374D01*
X130681901Y-69948469D01*
X130634282Y-70138945D01*
X130586663Y-70234183D01*
X130539044Y-70281802D01*
X130443805Y-70329421D01*
X130348567Y-70329421D01*
X130253329Y-70281802D01*
X130205710Y-70234183D01*
X130158091Y-70138945D01*
X130110472Y-69948469D01*
X130110472Y-69710374D01*
X130158091Y-69519898D01*
X130205710Y-69424660D01*
X130253329Y-69377041D01*
X130348567Y-69329421D01*
X125605893Y-62178587D02*
X125605893Y-62750015D01*
X125605893Y-62464301D02*
X124605893Y-62464301D01*
X124748751Y-62559539D01*
X124843989Y-62654777D01*
X124891608Y-62750015D01*
X124605893Y-61321444D02*
X124605893Y-61511920D01*
X124653513Y-61607158D01*
X124701132Y-61654777D01*
X124843989Y-61750015D01*
X125034465Y-61797634D01*
X125415417Y-61797634D01*
X125510655Y-61750015D01*
X125558274Y-61702396D01*
X125605893Y-61607158D01*
X125605893Y-61416682D01*
X125558274Y-61321444D01*
X125510655Y-61273825D01*
X125415417Y-61226206D01*
X125177322Y-61226206D01*
X125082084Y-61273825D01*
X125034465Y-61321444D01*
X124986846Y-61416682D01*
X124986846Y-61607158D01*
X125034465Y-61702396D01*
X125082084Y-61750015D01*
X125177322Y-61797634D01*
%TO.C,K2*%
X107866424Y-110426206D02*
X106866424Y-110426206D01*
X107866424Y-109854777D02*
X107294996Y-110283349D01*
X106866424Y-109854777D02*
X107437853Y-110426206D01*
X106961663Y-109473825D02*
X106914044Y-109426206D01*
X106866424Y-109330968D01*
X106866424Y-109092872D01*
X106914044Y-108997634D01*
X106961663Y-108950015D01*
X107056901Y-108902396D01*
X107152139Y-108902396D01*
X107294996Y-108950015D01*
X107866424Y-109521444D01*
X107866424Y-108902396D01*
%TO.C,JP1*%
X176352380Y-75583333D02*
X177066666Y-75583333D01*
X177209523Y-75630952D01*
X177304761Y-75726190D01*
X177352380Y-75869047D01*
X177352380Y-75964285D01*
X177352380Y-75107142D02*
X176352380Y-75107142D01*
X176352380Y-74726190D01*
X176400000Y-74630952D01*
X176447619Y-74583333D01*
X176542857Y-74535714D01*
X176685714Y-74535714D01*
X176780952Y-74583333D01*
X176828571Y-74630952D01*
X176876190Y-74726190D01*
X176876190Y-75107142D01*
X177352380Y-73583333D02*
X177352380Y-74154761D01*
X177352380Y-73869047D02*
X176352380Y-73869047D01*
X176495238Y-73964285D01*
X176590476Y-74059523D01*
X176638095Y-74154761D01*
X175345238Y-72952380D02*
X175345238Y-71952380D01*
X175726190Y-71952380D01*
X175821428Y-72000000D01*
X175869047Y-72047619D01*
X175916666Y-72142857D01*
X175916666Y-72285714D01*
X175869047Y-72380952D01*
X175821428Y-72428571D01*
X175726190Y-72476190D01*
X175345238Y-72476190D01*
X176869047Y-72000000D02*
X176773809Y-71952380D01*
X176630952Y-71952380D01*
X176488095Y-72000000D01*
X176392857Y-72095238D01*
X176345238Y-72190476D01*
X176297619Y-72380952D01*
X176297619Y-72523809D01*
X176345238Y-72714285D01*
X176392857Y-72809523D01*
X176488095Y-72904761D01*
X176630952Y-72952380D01*
X176726190Y-72952380D01*
X176869047Y-72904761D01*
X176916666Y-72857142D01*
X176916666Y-72523809D01*
X176726190Y-72523809D01*
X177107142Y-73047619D02*
X177869047Y-73047619D01*
X177964285Y-71952380D02*
X178535714Y-71952380D01*
X178250000Y-72952380D02*
X178250000Y-71952380D01*
X179059523Y-71952380D02*
X179250000Y-71952380D01*
X179345238Y-72000000D01*
X179440476Y-72095238D01*
X179488095Y-72285714D01*
X179488095Y-72619047D01*
X179440476Y-72809523D01*
X179345238Y-72904761D01*
X179250000Y-72952380D01*
X179059523Y-72952380D01*
X178964285Y-72904761D01*
X178869047Y-72809523D01*
X178821428Y-72619047D01*
X178821428Y-72285714D01*
X178869047Y-72095238D01*
X178964285Y-72000000D01*
X179059523Y-71952380D01*
X179678571Y-73047619D02*
X180440476Y-73047619D01*
X180678571Y-72428571D02*
X181011904Y-72428571D01*
X181154761Y-72952380D02*
X180678571Y-72952380D01*
X180678571Y-71952380D01*
X181154761Y-71952380D01*
X181583333Y-72952380D02*
X181583333Y-71952380D01*
X182154761Y-72952380D01*
X182154761Y-71952380D01*
%TO.C,R6*%
X167807256Y-72752380D02*
X167473923Y-72276190D01*
X167235827Y-72752380D02*
X167235827Y-71752380D01*
X167616780Y-71752380D01*
X167712018Y-71800000D01*
X167759637Y-71847619D01*
X167807256Y-71942857D01*
X167807256Y-72085714D01*
X167759637Y-72180952D01*
X167712018Y-72228571D01*
X167616780Y-72276190D01*
X167235827Y-72276190D01*
X168664399Y-71752380D02*
X168473923Y-71752380D01*
X168378684Y-71800000D01*
X168331065Y-71847619D01*
X168235827Y-71990476D01*
X168188208Y-72180952D01*
X168188208Y-72561904D01*
X168235827Y-72657142D01*
X168283446Y-72704761D01*
X168378684Y-72752380D01*
X168569161Y-72752380D01*
X168664399Y-72704761D01*
X168712018Y-72657142D01*
X168759637Y-72561904D01*
X168759637Y-72323809D01*
X168712018Y-72228571D01*
X168664399Y-72180952D01*
X168569161Y-72133333D01*
X168378684Y-72133333D01*
X168283446Y-72180952D01*
X168235827Y-72228571D01*
X168188208Y-72323809D01*
%TO.C,C13*%
X119146186Y-67677142D02*
X119098567Y-67724761D01*
X118955710Y-67772380D01*
X118860472Y-67772380D01*
X118717615Y-67724761D01*
X118622377Y-67629523D01*
X118574758Y-67534285D01*
X118527139Y-67343809D01*
X118527139Y-67200952D01*
X118574758Y-67010476D01*
X118622377Y-66915238D01*
X118717615Y-66820000D01*
X118860472Y-66772380D01*
X118955710Y-66772380D01*
X119098567Y-66820000D01*
X119146186Y-66867619D01*
X120098567Y-67772380D02*
X119527139Y-67772380D01*
X119812853Y-67772380D02*
X119812853Y-66772380D01*
X119717615Y-66915238D01*
X119622377Y-67010476D01*
X119527139Y-67058095D01*
X120431901Y-66772380D02*
X121050948Y-66772380D01*
X120717615Y-67153333D01*
X120860472Y-67153333D01*
X120955710Y-67200952D01*
X121003329Y-67248571D01*
X121050948Y-67343809D01*
X121050948Y-67581904D01*
X121003329Y-67677142D01*
X120955710Y-67724761D01*
X120860472Y-67772380D01*
X120574758Y-67772380D01*
X120479520Y-67724761D01*
X120431901Y-67677142D01*
%TO.C,U3*%
X119238095Y-95952380D02*
X119238095Y-96761904D01*
X119285714Y-96857142D01*
X119333333Y-96904761D01*
X119428571Y-96952380D01*
X119619047Y-96952380D01*
X119714285Y-96904761D01*
X119761904Y-96857142D01*
X119809523Y-96761904D01*
X119809523Y-95952380D01*
X120190476Y-95952380D02*
X120809523Y-95952380D01*
X120476190Y-96333333D01*
X120619047Y-96333333D01*
X120714285Y-96380952D01*
X120761904Y-96428571D01*
X120809523Y-96523809D01*
X120809523Y-96761904D01*
X120761904Y-96857142D01*
X120714285Y-96904761D01*
X120619047Y-96952380D01*
X120333333Y-96952380D01*
X120238095Y-96904761D01*
X120190476Y-96857142D01*
D11*
X118111904Y-91945238D02*
X117311904Y-91945238D01*
X117311904Y-91754761D01*
X117350000Y-91640476D01*
X117426190Y-91564285D01*
X117502380Y-91526190D01*
X117654761Y-91488095D01*
X117769047Y-91488095D01*
X117921428Y-91526190D01*
X117997619Y-91564285D01*
X118073809Y-91640476D01*
X118111904Y-91754761D01*
X118111904Y-91945238D01*
X118111904Y-91145238D02*
X117311904Y-91145238D01*
X117692857Y-91145238D02*
X117692857Y-90688095D01*
X118111904Y-90688095D02*
X117311904Y-90688095D01*
X117311904Y-90421428D02*
X117311904Y-89964285D01*
X118111904Y-90192857D02*
X117311904Y-90192857D01*
X117388095Y-89735714D02*
X117350000Y-89697619D01*
X117311904Y-89621428D01*
X117311904Y-89430952D01*
X117350000Y-89354761D01*
X117388095Y-89316666D01*
X117464285Y-89278571D01*
X117540476Y-89278571D01*
X117654761Y-89316666D01*
X118111904Y-89773809D01*
X118111904Y-89278571D01*
X117388095Y-88973809D02*
X117350000Y-88935714D01*
X117311904Y-88859523D01*
X117311904Y-88669047D01*
X117350000Y-88592857D01*
X117388095Y-88554761D01*
X117464285Y-88516666D01*
X117540476Y-88516666D01*
X117654761Y-88554761D01*
X118111904Y-89011904D01*
X118111904Y-88516666D01*
D10*
X122421993Y-85897041D02*
X122326755Y-85849421D01*
X122183898Y-85849421D01*
X122041040Y-85897041D01*
X121945802Y-85992279D01*
X121898183Y-86087517D01*
X121850564Y-86277993D01*
X121850564Y-86420850D01*
X121898183Y-86611326D01*
X121945802Y-86706564D01*
X122041040Y-86801802D01*
X122183898Y-86849421D01*
X122279136Y-86849421D01*
X122421993Y-86801802D01*
X122469612Y-86754183D01*
X122469612Y-86420850D01*
X122279136Y-86420850D01*
X122898183Y-86849421D02*
X122898183Y-85849421D01*
X123469612Y-86849421D01*
X123469612Y-85849421D01*
X123945802Y-86849421D02*
X123945802Y-85849421D01*
X124183898Y-85849421D01*
X124326755Y-85897041D01*
X124421993Y-85992279D01*
X124469612Y-86087517D01*
X124517231Y-86277993D01*
X124517231Y-86420850D01*
X124469612Y-86611326D01*
X124421993Y-86706564D01*
X124326755Y-86801802D01*
X124183898Y-86849421D01*
X123945802Y-86849421D01*
X121944697Y-91929421D02*
X121944697Y-90929421D01*
X122325649Y-90929421D02*
X122944697Y-90929421D01*
X122611363Y-91310374D01*
X122754220Y-91310374D01*
X122849458Y-91357993D01*
X122897078Y-91405612D01*
X122944697Y-91500850D01*
X122944697Y-91738945D01*
X122897078Y-91834183D01*
X122849458Y-91881802D01*
X122754220Y-91929421D01*
X122468506Y-91929421D01*
X122373268Y-91881802D01*
X122325649Y-91834183D01*
X123801839Y-91262755D02*
X123801839Y-91929421D01*
X123563744Y-90881802D02*
X123325649Y-91596088D01*
X123944697Y-91596088D01*
X121809904Y-93469421D02*
X122428952Y-93469421D01*
X122095619Y-93850374D01*
X122238476Y-93850374D01*
X122333714Y-93897993D01*
X122381333Y-93945612D01*
X122428952Y-94040850D01*
X122428952Y-94278945D01*
X122381333Y-94374183D01*
X122333714Y-94421802D01*
X122238476Y-94469421D01*
X121952761Y-94469421D01*
X121857523Y-94421802D01*
X121809904Y-94374183D01*
X122714666Y-93469421D02*
X123048000Y-94469421D01*
X123381333Y-93469421D01*
X123619428Y-93469421D02*
X124238476Y-93469421D01*
X123905142Y-93850374D01*
X124048000Y-93850374D01*
X124143238Y-93897993D01*
X124190857Y-93945612D01*
X124238476Y-94040850D01*
X124238476Y-94278945D01*
X124190857Y-94374183D01*
X124143238Y-94421802D01*
X124048000Y-94469421D01*
X123762285Y-94469421D01*
X123667047Y-94421802D01*
X123619428Y-94374183D01*
%TO.C,F1*%
X218346538Y-83100374D02*
X218346538Y-83433707D01*
X218870347Y-83433707D02*
X217870347Y-83433707D01*
X217870347Y-82957517D01*
X218870347Y-82052755D02*
X218870347Y-82624183D01*
X218870347Y-82338469D02*
X217870347Y-82338469D01*
X218013205Y-82433707D01*
X218108443Y-82528945D01*
X218156062Y-82624183D01*
%TO.C,U4*%
X87452380Y-89261904D02*
X88261904Y-89261904D01*
X88357142Y-89214285D01*
X88404761Y-89166666D01*
X88452380Y-89071428D01*
X88452380Y-88880952D01*
X88404761Y-88785714D01*
X88357142Y-88738095D01*
X88261904Y-88690476D01*
X87452380Y-88690476D01*
X87785714Y-87785714D02*
X88452380Y-87785714D01*
X87404761Y-88023809D02*
X88119047Y-88261904D01*
X88119047Y-87642857D01*
D11*
X88142857Y-86269047D02*
X88142857Y-86002380D01*
X88561904Y-85888095D02*
X88561904Y-86269047D01*
X87761904Y-86269047D01*
X87761904Y-85888095D01*
X88523809Y-85583333D02*
X88561904Y-85469047D01*
X88561904Y-85278571D01*
X88523809Y-85202380D01*
X88485714Y-85164285D01*
X88409523Y-85126190D01*
X88333333Y-85126190D01*
X88257142Y-85164285D01*
X88219047Y-85202380D01*
X88180952Y-85278571D01*
X88142857Y-85430952D01*
X88104761Y-85507142D01*
X88066666Y-85545238D01*
X87990476Y-85583333D01*
X87914285Y-85583333D01*
X87838095Y-85545238D01*
X87800000Y-85507142D01*
X87761904Y-85430952D01*
X87761904Y-85240476D01*
X87800000Y-85126190D01*
X88561904Y-84783333D02*
X87761904Y-84783333D01*
X87761904Y-84478571D01*
X87800000Y-84402380D01*
X87838095Y-84364285D01*
X87914285Y-84326190D01*
X88028571Y-84326190D01*
X88104761Y-84364285D01*
X88142857Y-84402380D01*
X88180952Y-84478571D01*
X88180952Y-84783333D01*
X87761904Y-84059523D02*
X87761904Y-83564285D01*
X88066666Y-83830952D01*
X88066666Y-83716666D01*
X88104761Y-83640476D01*
X88142857Y-83602380D01*
X88219047Y-83564285D01*
X88409523Y-83564285D01*
X88485714Y-83602380D01*
X88523809Y-83640476D01*
X88561904Y-83716666D01*
X88561904Y-83945238D01*
X88523809Y-84021428D01*
X88485714Y-84059523D01*
X87838095Y-83259523D02*
X87800000Y-83221428D01*
X87761904Y-83145238D01*
X87761904Y-82954761D01*
X87800000Y-82878571D01*
X87838095Y-82840476D01*
X87914285Y-82802380D01*
X87990476Y-82802380D01*
X88104761Y-82840476D01*
X88561904Y-83297619D01*
X88561904Y-82802380D01*
X88257142Y-82459523D02*
X88257142Y-81850000D01*
X87761904Y-81545238D02*
X88561904Y-81354761D01*
X87990476Y-81202380D01*
X88561904Y-81050000D01*
X87761904Y-80859523D01*
X88561904Y-80097619D02*
X88180952Y-80364285D01*
X88561904Y-80554761D02*
X87761904Y-80554761D01*
X87761904Y-80250000D01*
X87800000Y-80173809D01*
X87838095Y-80135714D01*
X87914285Y-80097619D01*
X88028571Y-80097619D01*
X88104761Y-80135714D01*
X88142857Y-80173809D01*
X88180952Y-80250000D01*
X88180952Y-80554761D01*
X87761904Y-79602380D02*
X87761904Y-79450000D01*
X87800000Y-79373809D01*
X87876190Y-79297619D01*
X88028571Y-79259523D01*
X88295238Y-79259523D01*
X88447619Y-79297619D01*
X88523809Y-79373809D01*
X88561904Y-79450000D01*
X88561904Y-79602380D01*
X88523809Y-79678571D01*
X88447619Y-79754761D01*
X88295238Y-79792857D01*
X88028571Y-79792857D01*
X87876190Y-79754761D01*
X87800000Y-79678571D01*
X87761904Y-79602380D01*
X87761904Y-78764285D02*
X87761904Y-78611904D01*
X87800000Y-78535714D01*
X87876190Y-78459523D01*
X88028571Y-78421428D01*
X88295238Y-78421428D01*
X88447619Y-78459523D01*
X88523809Y-78535714D01*
X88561904Y-78611904D01*
X88561904Y-78764285D01*
X88523809Y-78840476D01*
X88447619Y-78916666D01*
X88295238Y-78954761D01*
X88028571Y-78954761D01*
X87876190Y-78916666D01*
X87800000Y-78840476D01*
X87761904Y-78764285D01*
X88561904Y-78078571D02*
X87761904Y-78078571D01*
X88333333Y-77811904D01*
X87761904Y-77545238D01*
X88561904Y-77545238D01*
X88257142Y-77164285D02*
X88257142Y-76554761D01*
X87761904Y-76250000D02*
X87761904Y-75754761D01*
X88066666Y-76021428D01*
X88066666Y-75907142D01*
X88104761Y-75830952D01*
X88142857Y-75792857D01*
X88219047Y-75754761D01*
X88409523Y-75754761D01*
X88485714Y-75792857D01*
X88523809Y-75830952D01*
X88561904Y-75907142D01*
X88561904Y-76135714D01*
X88523809Y-76211904D01*
X88485714Y-76250000D01*
X87838095Y-75450000D02*
X87800000Y-75411904D01*
X87761904Y-75335714D01*
X87761904Y-75145238D01*
X87800000Y-75069047D01*
X87838095Y-75030952D01*
X87914285Y-74992857D01*
X87990476Y-74992857D01*
X88104761Y-75030952D01*
X88561904Y-75488095D01*
X88561904Y-74992857D01*
X88561904Y-74650000D02*
X87761904Y-74650000D01*
X87761904Y-74459523D01*
X87800000Y-74345238D01*
X87876190Y-74269047D01*
X87952380Y-74230952D01*
X88104761Y-74192857D01*
X88219047Y-74192857D01*
X88371428Y-74230952D01*
X88447619Y-74269047D01*
X88523809Y-74345238D01*
X88561904Y-74459523D01*
X88561904Y-74650000D01*
D10*
%TO.C,D8*%
X139511904Y-100952380D02*
X139511904Y-99952380D01*
X139750000Y-99952380D01*
X139892857Y-100000000D01*
X139988095Y-100095238D01*
X140035714Y-100190476D01*
X140083333Y-100380952D01*
X140083333Y-100523809D01*
X140035714Y-100714285D01*
X139988095Y-100809523D01*
X139892857Y-100904761D01*
X139750000Y-100952380D01*
X139511904Y-100952380D01*
X140654761Y-100380952D02*
X140559523Y-100333333D01*
X140511904Y-100285714D01*
X140464285Y-100190476D01*
X140464285Y-100142857D01*
X140511904Y-100047619D01*
X140559523Y-100000000D01*
X140654761Y-99952380D01*
X140845238Y-99952380D01*
X140940476Y-100000000D01*
X140988095Y-100047619D01*
X141035714Y-100142857D01*
X141035714Y-100190476D01*
X140988095Y-100285714D01*
X140940476Y-100333333D01*
X140845238Y-100380952D01*
X140654761Y-100380952D01*
X140559523Y-100428571D01*
X140511904Y-100476190D01*
X140464285Y-100571428D01*
X140464285Y-100761904D01*
X140511904Y-100857142D01*
X140559523Y-100904761D01*
X140654761Y-100952380D01*
X140845238Y-100952380D01*
X140940476Y-100904761D01*
X140988095Y-100857142D01*
X141035714Y-100761904D01*
X141035714Y-100571428D01*
X140988095Y-100476190D01*
X140940476Y-100428571D01*
X140845238Y-100380952D01*
%TO.C,C8*%
X180807256Y-86457142D02*
X180759637Y-86504761D01*
X180616780Y-86552380D01*
X180521542Y-86552380D01*
X180378684Y-86504761D01*
X180283446Y-86409523D01*
X180235827Y-86314285D01*
X180188208Y-86123809D01*
X180188208Y-85980952D01*
X180235827Y-85790476D01*
X180283446Y-85695238D01*
X180378684Y-85600000D01*
X180521542Y-85552380D01*
X180616780Y-85552380D01*
X180759637Y-85600000D01*
X180807256Y-85647619D01*
X181378684Y-85980952D02*
X181283446Y-85933333D01*
X181235827Y-85885714D01*
X181188208Y-85790476D01*
X181188208Y-85742857D01*
X181235827Y-85647619D01*
X181283446Y-85600000D01*
X181378684Y-85552380D01*
X181569161Y-85552380D01*
X181664399Y-85600000D01*
X181712018Y-85647619D01*
X181759637Y-85742857D01*
X181759637Y-85790476D01*
X181712018Y-85885714D01*
X181664399Y-85933333D01*
X181569161Y-85980952D01*
X181378684Y-85980952D01*
X181283446Y-86028571D01*
X181235827Y-86076190D01*
X181188208Y-86171428D01*
X181188208Y-86361904D01*
X181235827Y-86457142D01*
X181283446Y-86504761D01*
X181378684Y-86552380D01*
X181569161Y-86552380D01*
X181664399Y-86504761D01*
X181712018Y-86457142D01*
X181759637Y-86361904D01*
X181759637Y-86171428D01*
X181712018Y-86076190D01*
X181664399Y-86028571D01*
X181569161Y-85980952D01*
D12*
%TO.C,D19*%
X108250000Y-92960000D02*
X110935000Y-92960000D01*
X110935000Y-91040000D02*
X108250000Y-91040000D01*
X110935000Y-92960000D02*
X110935000Y-91040000D01*
%TO.C,D11*%
X151224044Y-103423111D02*
X151224044Y-100738111D01*
X149304044Y-100738111D02*
X149304044Y-103423111D01*
X149304044Y-103423111D02*
X151224044Y-103423111D01*
%TO.C,R16*%
X104214520Y-89235000D02*
X103760392Y-89235000D01*
X104214520Y-87765000D02*
X103760392Y-87765000D01*
%TO.C,C12*%
X115515000Y-93261252D02*
X115515000Y-92738748D01*
X116985000Y-93261252D02*
X116985000Y-92738748D01*
%TO.C,R2*%
X100249044Y-101511047D02*
X100249044Y-101965175D01*
X98779044Y-101511047D02*
X98779044Y-101965175D01*
%TO.C,R8*%
X172249044Y-101511047D02*
X172249044Y-101965175D01*
X170779044Y-101511047D02*
X170779044Y-101965175D01*
%TO.C,J9*%
X205070000Y-118501777D02*
X204976000Y-118595777D01*
X203025000Y-120957777D02*
X202931000Y-121050777D01*
X198450000Y-124576777D02*
X198850000Y-124576777D01*
X198690000Y-124336777D02*
X209310000Y-124336777D01*
X208570000Y-118501777D02*
X208476000Y-118595777D01*
X206525000Y-120957777D02*
X206431000Y-121050777D01*
X198690000Y-122776777D02*
X209310000Y-122776777D01*
X205275000Y-118707777D02*
X205146000Y-118835777D01*
X208775000Y-118707777D02*
X208646000Y-118835777D01*
X198690000Y-116616777D02*
X209310000Y-116616777D01*
X209310000Y-116616777D02*
X209310000Y-124336777D01*
X198690000Y-123876777D02*
X209310000Y-123876777D01*
X206355000Y-120717777D02*
X206226000Y-120845777D01*
X198690000Y-116616777D02*
X198690000Y-124336777D01*
X198450000Y-123936777D02*
X198450000Y-124576777D01*
X202855000Y-120717777D02*
X202726000Y-120845777D01*
X199059999Y-118910777D02*
G75*
G03*
X199074642Y-120666671I1439999J-866000D01*
G01*
X201366000Y-118336776D02*
G75*
G03*
X199610106Y-118351419I-866000J-1439999D01*
G01*
X200500000Y-121456777D02*
G75*
G03*
X201390264Y-121201498I3J1679990D01*
G01*
X201925000Y-120667777D02*
G75*
G03*
X201925504Y-118886584I-1425003J891000D01*
G01*
X199634000Y-121216777D02*
G75*
G03*
X200528674Y-121456876I866003J1440014D01*
G01*
X209180000Y-119776777D02*
G75*
G03*
X209180000Y-119776777I-1680000J0D01*
G01*
X205680000Y-119776777D02*
G75*
G03*
X205680000Y-119776777I-1680000J0D01*
G01*
%TO.C,K8*%
X198414044Y-114888111D02*
X198414044Y-104688111D01*
X208777044Y-107004111D02*
X208777044Y-108274111D01*
X207380044Y-107131111D02*
X206237044Y-108274111D01*
X200141044Y-107639111D02*
X200141044Y-107385111D01*
X208904044Y-107639111D02*
X212714044Y-107639111D01*
X204840044Y-107004111D02*
X208777044Y-107004111D01*
X208777044Y-108274111D02*
X204840044Y-108274111D01*
X211114044Y-106388111D02*
X211114044Y-105588111D01*
X214514044Y-104688111D02*
X214514044Y-114888111D01*
X214514044Y-114888111D02*
X198414044Y-114888111D01*
X214714044Y-104488111D02*
X214714044Y-106088111D01*
X198414044Y-104688111D02*
X214514044Y-104688111D01*
X211514044Y-105988111D02*
X210714044Y-105988111D01*
X204840044Y-108274111D02*
X204840044Y-107004111D01*
X212714044Y-104488111D02*
X214714044Y-104488111D01*
X204840044Y-107639111D02*
X200141044Y-107639111D01*
X212714044Y-107639111D02*
X212714044Y-107258111D01*
%TO.C,D1*%
X203817546Y-71401805D02*
X203817546Y-76761805D01*
X205517546Y-76761805D02*
X207917546Y-76761805D01*
X209617546Y-69711805D02*
X209617546Y-76761805D01*
X206717546Y-69761805D02*
X207917546Y-69761805D01*
%TO.C,D12*%
X178514044Y-101450197D02*
X174614044Y-101450197D01*
X178514044Y-103450197D02*
X174614044Y-103450197D01*
X178514044Y-103450197D02*
X178514044Y-101450197D01*
%TO.C,J13*%
X155934044Y-64776041D02*
X156063044Y-64648041D01*
X153719044Y-66992041D02*
X153813044Y-66898041D01*
X160099044Y-62717041D02*
X152979044Y-62717041D01*
X160099044Y-68877041D02*
X152979044Y-68877041D01*
X160339044Y-60917041D02*
X159939044Y-60917041D01*
X160099044Y-68877041D02*
X160099044Y-61157041D01*
X160339044Y-61557041D02*
X160339044Y-60917041D01*
X155764044Y-64536041D02*
X155858044Y-64443041D01*
X152979044Y-68877041D02*
X152979044Y-61157041D01*
X153514044Y-66786041D02*
X153643044Y-66658041D01*
X160099044Y-61617041D02*
X152979044Y-61617041D01*
X160099044Y-61157041D02*
X152979044Y-61157041D01*
X156864044Y-64826041D02*
G75*
G03*
X156863540Y-66607234I1425003J-891000D01*
G01*
X157423044Y-67157042D02*
G75*
G03*
X159178938Y-67142399I866000J1439999D01*
G01*
X159155044Y-64277041D02*
G75*
G03*
X158260370Y-64036942I-866003J-1440014D01*
G01*
X158289044Y-64037041D02*
G75*
G03*
X157398780Y-64292320I-3J-1679990D01*
G01*
X159729045Y-66583041D02*
G75*
G03*
X159714402Y-64827147I-1439999J866000D01*
G01*
X156469044Y-65717041D02*
G75*
G03*
X156469044Y-65717041I-1680000J0D01*
G01*
%TO.C,K3*%
X121114044Y-106388111D02*
X121114044Y-105588111D01*
X108414044Y-104688111D02*
X124514044Y-104688111D01*
X114840044Y-108274111D02*
X114840044Y-107004111D01*
X118777044Y-107004111D02*
X118777044Y-108274111D01*
X114840044Y-107639111D02*
X110141044Y-107639111D01*
X124514044Y-114888111D02*
X108414044Y-114888111D01*
X117380044Y-107131111D02*
X116237044Y-108274111D01*
X124714044Y-104488111D02*
X124714044Y-106088111D01*
X108414044Y-114888111D02*
X108414044Y-104688111D01*
X110141044Y-107639111D02*
X110141044Y-107385111D01*
X124514044Y-104688111D02*
X124514044Y-114888111D01*
X121514044Y-105988111D02*
X120714044Y-105988111D01*
X122714044Y-107639111D02*
X122714044Y-107258111D01*
X118904044Y-107639111D02*
X122714044Y-107639111D01*
X122714044Y-104488111D02*
X124714044Y-104488111D01*
X114840044Y-107004111D02*
X118777044Y-107004111D01*
X118777044Y-108274111D02*
X114840044Y-108274111D01*
%TO.C,Q4*%
X126454044Y-101738111D02*
X126454044Y-102388111D01*
X129574044Y-101738111D02*
X129574044Y-102388111D01*
X126454044Y-101738111D02*
X126454044Y-101088111D01*
X129574044Y-101738111D02*
X129574044Y-100063111D01*
%TO.C,Q1*%
X75574044Y-101738111D02*
X75574044Y-100063111D01*
X75574044Y-101738111D02*
X75574044Y-102388111D01*
X72454044Y-101738111D02*
X72454044Y-101088111D01*
X72454044Y-101738111D02*
X72454044Y-102388111D01*
%TO.C,U1*%
X171562967Y-75442041D02*
X167412967Y-75442041D01*
X171562967Y-80542041D02*
X172962967Y-80542041D01*
X171562967Y-80592041D02*
X167412967Y-80592041D01*
X171562967Y-75442041D02*
X171562967Y-75587041D01*
X167412967Y-75442041D02*
X167412967Y-75587041D01*
X171562967Y-80592041D02*
X171562967Y-80542041D01*
X167412967Y-80592041D02*
X167412967Y-80447041D01*
%TO.C,C16*%
X99735000Y-82511252D02*
X99735000Y-81988748D01*
X98265000Y-82511252D02*
X98265000Y-81988748D01*
%TO.C,C9*%
X180262671Y-84877041D02*
X181685175Y-84877041D01*
X180262671Y-82157041D02*
X181685175Y-82157041D01*
%TO.C,C14*%
X77999044Y-92505789D02*
X77999044Y-93028293D01*
X76529044Y-92505789D02*
X76529044Y-93028293D01*
%TO.C,C5*%
X163249219Y-76065000D02*
X162726715Y-76065000D01*
X163249219Y-77535000D02*
X162726715Y-77535000D01*
%TO.C,J17*%
X196099044Y-62717041D02*
X188979044Y-62717041D01*
X196099044Y-68877041D02*
X196099044Y-61157041D01*
X191934044Y-64776041D02*
X192063044Y-64648041D01*
X196099044Y-68877041D02*
X188979044Y-68877041D01*
X188979044Y-68877041D02*
X188979044Y-61157041D01*
X196339044Y-60917041D02*
X195939044Y-60917041D01*
X196099044Y-61157041D02*
X188979044Y-61157041D01*
X191764044Y-64536041D02*
X191858044Y-64443041D01*
X189719044Y-66992041D02*
X189813044Y-66898041D01*
X189514044Y-66786041D02*
X189643044Y-66658041D01*
X196339044Y-61557041D02*
X196339044Y-60917041D01*
X196099044Y-61617041D02*
X188979044Y-61617041D01*
X192864044Y-64826041D02*
G75*
G03*
X192863540Y-66607234I1425003J-891000D01*
G01*
X195155044Y-64277041D02*
G75*
G03*
X194260370Y-64036942I-866003J-1440014D01*
G01*
X194289044Y-64037041D02*
G75*
G03*
X193398780Y-64292320I-3J-1679990D01*
G01*
X193423044Y-67157042D02*
G75*
G03*
X195178938Y-67142399I866000J1439999D01*
G01*
X195729045Y-66583041D02*
G75*
G03*
X195714402Y-64827147I-1439999J866000D01*
G01*
X192469044Y-65717041D02*
G75*
G03*
X192469044Y-65717041I-1680000J0D01*
G01*
%TO.C,R5*%
X162760903Y-73065000D02*
X163215031Y-73065000D01*
X162760903Y-74535000D02*
X163215031Y-74535000D01*
%TO.C,D18*%
X108250000Y-96457117D02*
X110935000Y-96457117D01*
X110935000Y-96457117D02*
X110935000Y-94537117D01*
X110935000Y-94537117D02*
X108250000Y-94537117D01*
%TO.C,D2*%
X88514044Y-103408703D02*
X88514044Y-101408703D01*
X88514044Y-101408703D02*
X84614044Y-101408703D01*
X88514044Y-103408703D02*
X84614044Y-103408703D01*
%TO.C,C3*%
X179472967Y-78805789D02*
X179472967Y-79328293D01*
X178002967Y-78805789D02*
X178002967Y-79328293D01*
%TO.C,D20*%
X108250000Y-72460000D02*
X110935000Y-72460000D01*
X110935000Y-72460000D02*
X110935000Y-70540000D01*
X110935000Y-70540000D02*
X108250000Y-70540000D01*
%TO.C,D14*%
X196514044Y-101433373D02*
X192614044Y-101433373D01*
X196514044Y-103433373D02*
X196514044Y-101433373D01*
X196514044Y-103433373D02*
X192614044Y-103433373D01*
%TO.C,SW1*%
X212777967Y-72267041D02*
X212777967Y-71767041D01*
X212777967Y-76917041D02*
X220727967Y-76917041D01*
X220727967Y-69617041D02*
X212777967Y-69617041D01*
X220727967Y-76917041D02*
X220727967Y-69617041D01*
X212777967Y-69617041D02*
X212777967Y-69767041D01*
X212777967Y-76917041D02*
X212777967Y-76767041D01*
X212777967Y-74767041D02*
X212777967Y-74267041D01*
%TO.C,J11*%
X135719044Y-66992041D02*
X135813044Y-66898041D01*
X142099044Y-68877041D02*
X134979044Y-68877041D01*
X142099044Y-62717041D02*
X134979044Y-62717041D01*
X135514044Y-66786041D02*
X135643044Y-66658041D01*
X142099044Y-61617041D02*
X134979044Y-61617041D01*
X137764044Y-64536041D02*
X137858044Y-64443041D01*
X134979044Y-68877041D02*
X134979044Y-61157041D01*
X142099044Y-68877041D02*
X142099044Y-61157041D01*
X137934044Y-64776041D02*
X138063044Y-64648041D01*
X142339044Y-60917041D02*
X141939044Y-60917041D01*
X142339044Y-61557041D02*
X142339044Y-60917041D01*
X142099044Y-61157041D02*
X134979044Y-61157041D01*
X140289044Y-64037041D02*
G75*
G03*
X139398780Y-64292320I-3J-1679990D01*
G01*
X141155044Y-64277041D02*
G75*
G03*
X140260370Y-64036942I-866003J-1440014D01*
G01*
X139423044Y-67157042D02*
G75*
G03*
X141178938Y-67142399I866000J1439999D01*
G01*
X141729045Y-66583041D02*
G75*
G03*
X141714402Y-64827147I-1439999J866000D01*
G01*
X138864044Y-64826041D02*
G75*
G03*
X138863540Y-66607234I1425003J-891000D01*
G01*
X138469044Y-65717041D02*
G75*
G03*
X138469044Y-65717041I-1680000J0D01*
G01*
%TO.C,R3*%
X118249044Y-101511047D02*
X118249044Y-101965175D01*
X116779044Y-101511047D02*
X116779044Y-101965175D01*
%TO.C,D16*%
X214514044Y-103238111D02*
X214514044Y-101238111D01*
X214514044Y-101238111D02*
X210614044Y-101238111D01*
X214514044Y-103238111D02*
X210614044Y-103238111D01*
%TO.C,Q3*%
X111574044Y-101738111D02*
X111574044Y-102388111D01*
X108454044Y-101738111D02*
X108454044Y-102388111D01*
X108454044Y-101738111D02*
X108454044Y-101088111D01*
X111574044Y-101738111D02*
X111574044Y-100063111D01*
%TO.C,D3*%
X79224044Y-103423111D02*
X79224044Y-100738111D01*
X77304044Y-103423111D02*
X79224044Y-103423111D01*
X77304044Y-100738111D02*
X77304044Y-103423111D01*
%TO.C,J14*%
X169099044Y-68877041D02*
X161979044Y-68877041D01*
X169099044Y-62717041D02*
X161979044Y-62717041D01*
X164934044Y-64776041D02*
X165063044Y-64648041D01*
X161979044Y-68877041D02*
X161979044Y-61157041D01*
X169099044Y-61617041D02*
X161979044Y-61617041D01*
X169099044Y-68877041D02*
X169099044Y-61157041D01*
X162514044Y-66786041D02*
X162643044Y-66658041D01*
X164764044Y-64536041D02*
X164858044Y-64443041D01*
X169339044Y-60917041D02*
X168939044Y-60917041D01*
X162719044Y-66992041D02*
X162813044Y-66898041D01*
X169339044Y-61557041D02*
X169339044Y-60917041D01*
X169099044Y-61157041D02*
X161979044Y-61157041D01*
X167289044Y-64037041D02*
G75*
G03*
X166398780Y-64292320I-3J-1679990D01*
G01*
X166423044Y-67157042D02*
G75*
G03*
X168178938Y-67142399I866000J1439999D01*
G01*
X165864044Y-64826041D02*
G75*
G03*
X165863540Y-66607234I1425003J-891000D01*
G01*
X168729045Y-66583041D02*
G75*
G03*
X168714402Y-64827147I-1439999J866000D01*
G01*
X168155044Y-64277041D02*
G75*
G03*
X167260370Y-64036942I-866003J-1440014D01*
G01*
X165469044Y-65717041D02*
G75*
G03*
X165469044Y-65717041I-1680000J0D01*
G01*
%TO.C,J3*%
X92940000Y-116627644D02*
X103560000Y-116627644D01*
X100605000Y-120728644D02*
X100476000Y-120856644D01*
X97105000Y-120728644D02*
X96976000Y-120856644D01*
X103560000Y-116627644D02*
X103560000Y-124347644D01*
X100775000Y-120968644D02*
X100681000Y-121061644D01*
X92700000Y-123947644D02*
X92700000Y-124587644D01*
X97275000Y-120968644D02*
X97181000Y-121061644D01*
X92940000Y-124347644D02*
X103560000Y-124347644D01*
X102820000Y-118512644D02*
X102726000Y-118606644D01*
X92940000Y-122787644D02*
X103560000Y-122787644D01*
X103025000Y-118718644D02*
X102896000Y-118846644D01*
X99320000Y-118512644D02*
X99226000Y-118606644D01*
X92940000Y-123887644D02*
X103560000Y-123887644D01*
X92700000Y-124587644D02*
X93100000Y-124587644D01*
X99525000Y-118718644D02*
X99396000Y-118846644D01*
X92940000Y-116627644D02*
X92940000Y-124347644D01*
X93884000Y-121227644D02*
G75*
G03*
X94778674Y-121467743I866003J1440014D01*
G01*
X93309999Y-118921644D02*
G75*
G03*
X93324642Y-120677538I1439999J-866000D01*
G01*
X96175000Y-120678644D02*
G75*
G03*
X96175504Y-118897451I-1425003J891000D01*
G01*
X95616000Y-118347643D02*
G75*
G03*
X93860106Y-118362286I-866000J-1439999D01*
G01*
X94750000Y-121467644D02*
G75*
G03*
X95640264Y-121212365I3J1679990D01*
G01*
X99930000Y-119787644D02*
G75*
G03*
X99930000Y-119787644I-1680000J0D01*
G01*
X103430000Y-119787644D02*
G75*
G03*
X103430000Y-119787644I-1680000J0D01*
G01*
%TO.C,C11*%
X81499044Y-93028293D02*
X81499044Y-92505789D01*
X80029044Y-93028293D02*
X80029044Y-92505789D01*
%TO.C,C10*%
X88735000Y-96738748D02*
X88735000Y-97261252D01*
X87265000Y-96738748D02*
X87265000Y-97261252D01*
%TO.C,D15*%
X187224044Y-103423111D02*
X187224044Y-100738111D01*
X185304044Y-100738111D02*
X185304044Y-103423111D01*
X185304044Y-103423111D02*
X187224044Y-103423111D01*
%TO.C,J4*%
X121030581Y-118719111D02*
X120901581Y-118847111D01*
X110705581Y-123948111D02*
X110705581Y-124588111D01*
X110945581Y-116628111D02*
X121565581Y-116628111D01*
X121565581Y-116628111D02*
X121565581Y-124348111D01*
X110705581Y-124588111D02*
X111105581Y-124588111D01*
X110945581Y-123888111D02*
X121565581Y-123888111D01*
X115110581Y-120729111D02*
X114981581Y-120857111D01*
X117325581Y-118513111D02*
X117231581Y-118607111D01*
X117530581Y-118719111D02*
X117401581Y-118847111D01*
X118780581Y-120969111D02*
X118686581Y-121062111D01*
X120825581Y-118513111D02*
X120731581Y-118607111D01*
X110945581Y-124348111D02*
X121565581Y-124348111D01*
X118610581Y-120729111D02*
X118481581Y-120857111D01*
X115280581Y-120969111D02*
X115186581Y-121062111D01*
X110945581Y-122788111D02*
X121565581Y-122788111D01*
X110945581Y-116628111D02*
X110945581Y-124348111D01*
X112755581Y-121468111D02*
G75*
G03*
X113645845Y-121212832I3J1679990D01*
G01*
X114180581Y-120679111D02*
G75*
G03*
X114181085Y-118897918I-1425003J891000D01*
G01*
X113621581Y-118348110D02*
G75*
G03*
X111865687Y-118362753I-866000J-1439999D01*
G01*
X111315580Y-118922111D02*
G75*
G03*
X111330223Y-120678005I1439999J-866000D01*
G01*
X111889581Y-121228111D02*
G75*
G03*
X112784255Y-121468210I866003J1440014D01*
G01*
X121435581Y-119788111D02*
G75*
G03*
X121435581Y-119788111I-1680000J0D01*
G01*
X117935581Y-119788111D02*
G75*
G03*
X117935581Y-119788111I-1680000J0D01*
G01*
%TO.C,L1*%
X164673923Y-81950767D02*
X177273923Y-81950767D01*
X177273923Y-94550767D02*
X164673923Y-94550767D01*
X164673923Y-84950767D02*
X164673923Y-81950767D01*
X177273923Y-91550767D02*
X177273923Y-94550767D01*
X164673923Y-94550767D02*
X164673923Y-91550767D01*
X177273923Y-81950767D02*
X177273923Y-84950767D01*
%TO.C,K1*%
X78840044Y-107639111D02*
X74141044Y-107639111D01*
X82777044Y-107004111D02*
X82777044Y-108274111D01*
X72414044Y-114888111D02*
X72414044Y-104688111D01*
X86714044Y-104488111D02*
X88714044Y-104488111D01*
X88714044Y-104488111D02*
X88714044Y-106088111D01*
X82904044Y-107639111D02*
X86714044Y-107639111D01*
X85114044Y-106388111D02*
X85114044Y-105588111D01*
X85514044Y-105988111D02*
X84714044Y-105988111D01*
X74141044Y-107639111D02*
X74141044Y-107385111D01*
X86714044Y-107639111D02*
X86714044Y-107258111D01*
X88514044Y-104688111D02*
X88514044Y-114888111D01*
X88514044Y-114888111D02*
X72414044Y-114888111D01*
X78840044Y-107004111D02*
X82777044Y-107004111D01*
X82777044Y-108274111D02*
X78840044Y-108274111D01*
X81380044Y-107131111D02*
X80237044Y-108274111D01*
X72414044Y-104688111D02*
X88514044Y-104688111D01*
X78840044Y-108274111D02*
X78840044Y-107004111D01*
%TO.C,SW2*%
X123624044Y-67279541D02*
X123624044Y-67789541D01*
X116424044Y-64449541D02*
X116964044Y-64449541D01*
X123104044Y-64449541D02*
X123104044Y-64679541D01*
X115904044Y-60779541D02*
X123624044Y-60779541D01*
X116424044Y-67279541D02*
X116424044Y-67789541D01*
X123624044Y-60779541D02*
X123624044Y-64679541D01*
X123104044Y-67279541D02*
X123104044Y-67789541D01*
X122564044Y-64449541D02*
X123104044Y-64449541D01*
X118064044Y-64449541D02*
X121464044Y-64449541D01*
X115904044Y-67789541D02*
X116424044Y-67789541D01*
X116424044Y-64449541D02*
X116424044Y-64679541D01*
X123104044Y-67789541D02*
X123624044Y-67789541D01*
X115904044Y-60779541D02*
X115904044Y-64679541D01*
X115904044Y-67279541D02*
X115904044Y-67789541D01*
%TO.C,J12*%
X144719044Y-66992041D02*
X144813044Y-66898041D01*
X151099044Y-68877041D02*
X151099044Y-61157041D01*
X144514044Y-66786041D02*
X144643044Y-66658041D01*
X151099044Y-61157041D02*
X143979044Y-61157041D01*
X151099044Y-61617041D02*
X143979044Y-61617041D01*
X151339044Y-61557041D02*
X151339044Y-60917041D01*
X151099044Y-68877041D02*
X143979044Y-68877041D01*
X151339044Y-60917041D02*
X150939044Y-60917041D01*
X143979044Y-68877041D02*
X143979044Y-61157041D01*
X146934044Y-64776041D02*
X147063044Y-64648041D01*
X146764044Y-64536041D02*
X146858044Y-64443041D01*
X151099044Y-62717041D02*
X143979044Y-62717041D01*
X149289044Y-64037041D02*
G75*
G03*
X148398780Y-64292320I-3J-1679990D01*
G01*
X150155044Y-64277041D02*
G75*
G03*
X149260370Y-64036942I-866003J-1440014D01*
G01*
X148423044Y-67157042D02*
G75*
G03*
X150178938Y-67142399I866000J1439999D01*
G01*
X147864044Y-64826041D02*
G75*
G03*
X147863540Y-66607234I1425003J-891000D01*
G01*
X150729045Y-66583041D02*
G75*
G03*
X150714402Y-64827147I-1439999J866000D01*
G01*
X147469044Y-65717041D02*
G75*
G03*
X147469044Y-65717041I-1680000J0D01*
G01*
%TO.C,D13*%
X167304044Y-100738111D02*
X167304044Y-103423111D01*
X167304044Y-103423111D02*
X169224044Y-103423111D01*
X169224044Y-103423111D02*
X169224044Y-100738111D01*
%TO.C,Q6*%
X162454044Y-101738111D02*
X162454044Y-101088111D01*
X165574044Y-101738111D02*
X165574044Y-100063111D01*
X165574044Y-101738111D02*
X165574044Y-102388111D01*
X162454044Y-101738111D02*
X162454044Y-102388111D01*
%TO.C,C15*%
X70999044Y-92494421D02*
X70999044Y-93016925D01*
X69529044Y-92494421D02*
X69529044Y-93016925D01*
%TO.C,J6*%
X146940360Y-123888111D02*
X157560360Y-123888111D01*
X154775360Y-120969111D02*
X154681360Y-121062111D01*
X157560360Y-116628111D02*
X157560360Y-124348111D01*
X146700360Y-124588111D02*
X147100360Y-124588111D01*
X153525360Y-118719111D02*
X153396360Y-118847111D01*
X153320360Y-118513111D02*
X153226360Y-118607111D01*
X151275360Y-120969111D02*
X151181360Y-121062111D01*
X154605360Y-120729111D02*
X154476360Y-120857111D01*
X146700360Y-123948111D02*
X146700360Y-124588111D01*
X157025360Y-118719111D02*
X156896360Y-118847111D01*
X146940360Y-116628111D02*
X146940360Y-124348111D01*
X146940360Y-116628111D02*
X157560360Y-116628111D01*
X146940360Y-122788111D02*
X157560360Y-122788111D01*
X156820360Y-118513111D02*
X156726360Y-118607111D01*
X146940360Y-124348111D02*
X157560360Y-124348111D01*
X151105360Y-120729111D02*
X150976360Y-120857111D01*
X147310359Y-118922111D02*
G75*
G03*
X147325002Y-120678005I1439999J-866000D01*
G01*
X147884360Y-121228111D02*
G75*
G03*
X148779034Y-121468210I866003J1440014D01*
G01*
X148750360Y-121468111D02*
G75*
G03*
X149640624Y-121212832I3J1679990D01*
G01*
X149616360Y-118348110D02*
G75*
G03*
X147860466Y-118362753I-866000J-1439999D01*
G01*
X150175360Y-120679111D02*
G75*
G03*
X150175864Y-118897918I-1425003J891000D01*
G01*
X157430360Y-119788111D02*
G75*
G03*
X157430360Y-119788111I-1680000J0D01*
G01*
X153930360Y-119788111D02*
G75*
G03*
X153930360Y-119788111I-1680000J0D01*
G01*
%TO.C,D7*%
X115224044Y-103423111D02*
X115224044Y-100738111D01*
X113304044Y-100738111D02*
X113304044Y-103423111D01*
X113304044Y-103423111D02*
X115224044Y-103423111D01*
%TO.C,J7*%
X164950800Y-116628111D02*
X175570800Y-116628111D01*
X175570800Y-116628111D02*
X175570800Y-124348111D01*
X164710800Y-124588111D02*
X165110800Y-124588111D01*
X169115800Y-120729111D02*
X168986800Y-120857111D01*
X164950800Y-122788111D02*
X175570800Y-122788111D01*
X164950800Y-116628111D02*
X164950800Y-124348111D01*
X164950800Y-124348111D02*
X175570800Y-124348111D01*
X169285800Y-120969111D02*
X169191800Y-121062111D01*
X164710800Y-123948111D02*
X164710800Y-124588111D01*
X171535800Y-118719111D02*
X171406800Y-118847111D01*
X175035800Y-118719111D02*
X174906800Y-118847111D01*
X174830800Y-118513111D02*
X174736800Y-118607111D01*
X171330800Y-118513111D02*
X171236800Y-118607111D01*
X164950800Y-123888111D02*
X175570800Y-123888111D01*
X172785800Y-120969111D02*
X172691800Y-121062111D01*
X172615800Y-120729111D02*
X172486800Y-120857111D01*
X166760800Y-121468111D02*
G75*
G03*
X167651064Y-121212832I3J1679990D01*
G01*
X167626800Y-118348110D02*
G75*
G03*
X165870906Y-118362753I-866000J-1439999D01*
G01*
X168185800Y-120679111D02*
G75*
G03*
X168186304Y-118897918I-1425003J891000D01*
G01*
X165320799Y-118922111D02*
G75*
G03*
X165335442Y-120678005I1439999J-866000D01*
G01*
X165894800Y-121228111D02*
G75*
G03*
X166789474Y-121468210I866003J1440014D01*
G01*
X175440800Y-119788111D02*
G75*
G03*
X175440800Y-119788111I-1680000J0D01*
G01*
X171940800Y-119788111D02*
G75*
G03*
X171940800Y-119788111I-1680000J0D01*
G01*
%TO.C,J18*%
X80534044Y-64597041D02*
X103454044Y-64597041D01*
X80534044Y-64597041D02*
X80534044Y-61937041D01*
X80534044Y-61937041D02*
X103454044Y-61937041D01*
X103454044Y-64597041D02*
X103454044Y-61937041D01*
X77934044Y-63267041D02*
X77934044Y-61937041D01*
X77934044Y-61937041D02*
X79264044Y-61937041D01*
%TO.C,K7*%
X194714044Y-104488111D02*
X196714044Y-104488111D01*
X193514044Y-105988111D02*
X192714044Y-105988111D01*
X196714044Y-104488111D02*
X196714044Y-106088111D01*
X182141044Y-107639111D02*
X182141044Y-107385111D01*
X193114044Y-106388111D02*
X193114044Y-105588111D01*
X190777044Y-107004111D02*
X190777044Y-108274111D01*
X196514044Y-104688111D02*
X196514044Y-114888111D01*
X189380044Y-107131111D02*
X188237044Y-108274111D01*
X190904044Y-107639111D02*
X194714044Y-107639111D01*
X180414044Y-104688111D02*
X196514044Y-104688111D01*
X196514044Y-114888111D02*
X180414044Y-114888111D01*
X186840044Y-108274111D02*
X186840044Y-107004111D01*
X190777044Y-108274111D02*
X186840044Y-108274111D01*
X180414044Y-114888111D02*
X180414044Y-104688111D01*
X186840044Y-107639111D02*
X182141044Y-107639111D01*
X186840044Y-107004111D02*
X190777044Y-107004111D01*
X194714044Y-107639111D02*
X194714044Y-107258111D01*
%TO.C,SW3*%
X105404044Y-67789541D02*
X105924044Y-67789541D01*
X113124044Y-60779541D02*
X113124044Y-64679541D01*
X112064044Y-64449541D02*
X112604044Y-64449541D01*
X105404044Y-67279541D02*
X105404044Y-67789541D01*
X105404044Y-60779541D02*
X105404044Y-64679541D01*
X105924044Y-64449541D02*
X105924044Y-64679541D01*
X112604044Y-64449541D02*
X112604044Y-64679541D01*
X105924044Y-64449541D02*
X106464044Y-64449541D01*
X105924044Y-67279541D02*
X105924044Y-67789541D01*
X107564044Y-64449541D02*
X110964044Y-64449541D01*
X105404044Y-60779541D02*
X113124044Y-60779541D01*
X112604044Y-67279541D02*
X112604044Y-67789541D01*
X113124044Y-67279541D02*
X113124044Y-67789541D01*
X112604044Y-67789541D02*
X113124044Y-67789541D01*
%TO.C,K6*%
X176714044Y-107639111D02*
X176714044Y-107258111D01*
X178514044Y-104688111D02*
X178514044Y-114888111D01*
X168840044Y-108274111D02*
X168840044Y-107004111D01*
X162414044Y-114888111D02*
X162414044Y-104688111D01*
X178514044Y-114888111D02*
X162414044Y-114888111D01*
X172904044Y-107639111D02*
X176714044Y-107639111D01*
X175514044Y-105988111D02*
X174714044Y-105988111D01*
X168840044Y-107639111D02*
X164141044Y-107639111D01*
X178714044Y-104488111D02*
X178714044Y-106088111D01*
X172777044Y-108274111D02*
X168840044Y-108274111D01*
X162414044Y-104688111D02*
X178514044Y-104688111D01*
X172777044Y-107004111D02*
X172777044Y-108274111D01*
X164141044Y-107639111D02*
X164141044Y-107385111D01*
X171380044Y-107131111D02*
X170237044Y-108274111D01*
X176714044Y-104488111D02*
X178714044Y-104488111D01*
X168840044Y-107004111D02*
X172777044Y-107004111D01*
X175114044Y-106388111D02*
X175114044Y-105588111D01*
%TO.C,C2*%
X174502967Y-78805789D02*
X174502967Y-79328293D01*
X175972967Y-78805789D02*
X175972967Y-79328293D01*
%TO.C,R12*%
X103760392Y-91265000D02*
X104214520Y-91265000D01*
X103760392Y-92735000D02*
X104214520Y-92735000D01*
%TO.C,R10*%
X206779044Y-101511047D02*
X206779044Y-101965175D01*
X208249044Y-101511047D02*
X208249044Y-101965175D01*
%TO.C,D6*%
X124514044Y-103408703D02*
X124514044Y-101408703D01*
X124514044Y-101408703D02*
X120614044Y-101408703D01*
X124514044Y-103408703D02*
X120614044Y-103408703D01*
%TO.C,R1*%
X80779044Y-101511047D02*
X80779044Y-101965175D01*
X82249044Y-101511047D02*
X82249044Y-101965175D01*
%TO.C,R9*%
X188779044Y-101511047D02*
X188779044Y-101965175D01*
X190249044Y-101511047D02*
X190249044Y-101965175D01*
%TO.C,RV1*%
X209718183Y-78517041D02*
X209718183Y-85517041D01*
X205718183Y-78517041D02*
X205718183Y-85517041D01*
X209718183Y-78517041D02*
X205718183Y-78517041D01*
X209718183Y-85517041D02*
X205718183Y-85517041D01*
%TO.C,Q8*%
X201574044Y-101738111D02*
X201574044Y-100063111D01*
X201574044Y-101738111D02*
X201574044Y-102388111D01*
X198454044Y-101738111D02*
X198454044Y-101088111D01*
X198454044Y-101738111D02*
X198454044Y-102388111D01*
%TO.C,J8*%
X190614891Y-120729111D02*
X190485891Y-120857111D01*
X182949891Y-123888111D02*
X193569891Y-123888111D01*
X192829891Y-118513111D02*
X192735891Y-118607111D01*
X182949891Y-116628111D02*
X182949891Y-124348111D01*
X182949891Y-124348111D02*
X193569891Y-124348111D01*
X182709891Y-124588111D02*
X183109891Y-124588111D01*
X193034891Y-118719111D02*
X192905891Y-118847111D01*
X190784891Y-120969111D02*
X190690891Y-121062111D01*
X189329891Y-118513111D02*
X189235891Y-118607111D01*
X187284891Y-120969111D02*
X187190891Y-121062111D01*
X182709891Y-123948111D02*
X182709891Y-124588111D01*
X187114891Y-120729111D02*
X186985891Y-120857111D01*
X182949891Y-122788111D02*
X193569891Y-122788111D01*
X182949891Y-116628111D02*
X193569891Y-116628111D01*
X189534891Y-118719111D02*
X189405891Y-118847111D01*
X193569891Y-116628111D02*
X193569891Y-124348111D01*
X184759891Y-121468111D02*
G75*
G03*
X185650155Y-121212832I3J1679990D01*
G01*
X186184891Y-120679111D02*
G75*
G03*
X186185395Y-118897918I-1425003J891000D01*
G01*
X183319890Y-118922111D02*
G75*
G03*
X183334533Y-120678005I1439999J-866000D01*
G01*
X185625891Y-118348110D02*
G75*
G03*
X183869997Y-118362753I-866000J-1439999D01*
G01*
X183893891Y-121228111D02*
G75*
G03*
X184788565Y-121468210I866003J1440014D01*
G01*
X193439891Y-119788111D02*
G75*
G03*
X193439891Y-119788111I-1680000J0D01*
G01*
X189939891Y-119788111D02*
G75*
G03*
X189939891Y-119788111I-1680000J0D01*
G01*
%TO.C,Q7*%
X183574044Y-101738111D02*
X183574044Y-100063111D01*
X183574044Y-101738111D02*
X183574044Y-102388111D01*
X180454044Y-101738111D02*
X180454044Y-102388111D01*
X180454044Y-101738111D02*
X180454044Y-101088111D01*
%TO.C,R7*%
X152779044Y-101511047D02*
X152779044Y-101965175D01*
X154249044Y-101511047D02*
X154249044Y-101965175D01*
%TO.C,R14*%
X74499044Y-92994105D02*
X74499044Y-92539977D01*
X73029044Y-92994105D02*
X73029044Y-92539977D01*
%TO.C,J15*%
X171719044Y-66992041D02*
X171813044Y-66898041D01*
X173764044Y-64536041D02*
X173858044Y-64443041D01*
X178339044Y-61557041D02*
X178339044Y-60917041D01*
X173934044Y-64776041D02*
X174063044Y-64648041D01*
X178099044Y-68877041D02*
X170979044Y-68877041D01*
X178099044Y-61157041D02*
X170979044Y-61157041D01*
X170979044Y-68877041D02*
X170979044Y-61157041D01*
X178339044Y-60917041D02*
X177939044Y-60917041D01*
X171514044Y-66786041D02*
X171643044Y-66658041D01*
X178099044Y-62717041D02*
X170979044Y-62717041D01*
X178099044Y-61617041D02*
X170979044Y-61617041D01*
X178099044Y-68877041D02*
X178099044Y-61157041D01*
X177155044Y-64277041D02*
G75*
G03*
X176260370Y-64036942I-866003J-1440014D01*
G01*
X175423044Y-67157042D02*
G75*
G03*
X177178938Y-67142399I866000J1439999D01*
G01*
X177729045Y-66583041D02*
G75*
G03*
X177714402Y-64827147I-1439999J866000D01*
G01*
X176289044Y-64037041D02*
G75*
G03*
X175398780Y-64292320I-3J-1679990D01*
G01*
X174864044Y-64826041D02*
G75*
G03*
X174863540Y-66607234I1425003J-891000D01*
G01*
X174469044Y-65717041D02*
G75*
G03*
X174469044Y-65717041I-1680000J0D01*
G01*
%TO.C,D5*%
X95304044Y-100738111D02*
X95304044Y-103423111D01*
X97224044Y-103423111D02*
X97224044Y-100738111D01*
X95304044Y-103423111D02*
X97224044Y-103423111D01*
%TO.C,C6*%
X162726715Y-80635000D02*
X163249219Y-80635000D01*
X162726715Y-79165000D02*
X163249219Y-79165000D01*
%TO.C,D4*%
X106514044Y-103408703D02*
X106514044Y-101408703D01*
X106514044Y-103408703D02*
X102614044Y-103408703D01*
X106514044Y-101408703D02*
X102614044Y-101408703D01*
%TO.C,R4*%
X136249044Y-101511047D02*
X136249044Y-101965175D01*
X134779044Y-101511047D02*
X134779044Y-101965175D01*
%TO.C,U5*%
X96350000Y-84725000D02*
X91260000Y-84725000D01*
X96350000Y-84385000D02*
X96350000Y-84725000D01*
X96350000Y-81715000D02*
X93750000Y-81715000D01*
X96350000Y-82065000D02*
X96350000Y-81715000D01*
X91650083Y-84726736D02*
G75*
G03*
X95850000Y-84725000I2099917J101737D01*
G01*
%TO.C,R11*%
X103760392Y-94765000D02*
X104214520Y-94765000D01*
X103760392Y-96235000D02*
X104214520Y-96235000D01*
%TO.C,D10*%
X160514044Y-101425357D02*
X156614044Y-101425357D01*
X160514044Y-103425357D02*
X156614044Y-103425357D01*
X160514044Y-103425357D02*
X160514044Y-101425357D01*
%TO.C,J1*%
X211627967Y-95827041D02*
X219347967Y-95827041D01*
X211627967Y-88707041D02*
X219347967Y-88707041D01*
X213512967Y-89447041D02*
X213606967Y-89541041D01*
X211627967Y-95827041D02*
X211627967Y-88707041D01*
X218887967Y-95827041D02*
X218887967Y-88707041D01*
X218947967Y-96067041D02*
X219587967Y-96067041D01*
X215728967Y-91662041D02*
X215856967Y-91791041D01*
X219587967Y-96067041D02*
X219587967Y-95667041D01*
X219347967Y-95827041D02*
X219347967Y-88707041D01*
X213718967Y-89242041D02*
X213846967Y-89371041D01*
X217787967Y-95827041D02*
X217787967Y-88707041D01*
X215968967Y-91492041D02*
X216061967Y-91586041D01*
X215678967Y-92592041D02*
G75*
G03*
X213897774Y-92591537I-891000J-1425003D01*
G01*
X216227967Y-94883041D02*
G75*
G03*
X216468066Y-93988367I-1440014J866003D01*
G01*
X216467967Y-94017041D02*
G75*
G03*
X216212688Y-93126777I-1679990J3D01*
G01*
X213921967Y-95457042D02*
G75*
G03*
X215677861Y-95442399I866000J1439999D01*
G01*
X213347966Y-93151041D02*
G75*
G03*
X213362609Y-94906935I1439999J-866000D01*
G01*
X216467967Y-90517041D02*
G75*
G03*
X216467967Y-90517041I-1680000J0D01*
G01*
%TO.C,D9*%
X131304044Y-103423111D02*
X133224044Y-103423111D01*
X131304044Y-100738111D02*
X131304044Y-103423111D01*
X133224044Y-103423111D02*
X133224044Y-100738111D01*
%TO.C,J5*%
X133114401Y-120729111D02*
X132985401Y-120857111D01*
X135534401Y-118719111D02*
X135405401Y-118847111D01*
X136784401Y-120969111D02*
X136690401Y-121062111D01*
X128949401Y-122788111D02*
X139569401Y-122788111D01*
X138829401Y-118513111D02*
X138735401Y-118607111D01*
X128949401Y-116628111D02*
X139569401Y-116628111D01*
X128709401Y-124588111D02*
X129109401Y-124588111D01*
X139569401Y-116628111D02*
X139569401Y-124348111D01*
X128949401Y-124348111D02*
X139569401Y-124348111D01*
X135329401Y-118513111D02*
X135235401Y-118607111D01*
X128949401Y-116628111D02*
X128949401Y-124348111D01*
X128949401Y-123888111D02*
X139569401Y-123888111D01*
X128709401Y-123948111D02*
X128709401Y-124588111D01*
X139034401Y-118719111D02*
X138905401Y-118847111D01*
X133284401Y-120969111D02*
X133190401Y-121062111D01*
X136614401Y-120729111D02*
X136485401Y-120857111D01*
X132184401Y-120679111D02*
G75*
G03*
X132184905Y-118897918I-1425003J891000D01*
G01*
X129319400Y-118922111D02*
G75*
G03*
X129334043Y-120678005I1439999J-866000D01*
G01*
X129893401Y-121228111D02*
G75*
G03*
X130788075Y-121468210I866003J1440014D01*
G01*
X130759401Y-121468111D02*
G75*
G03*
X131649665Y-121212832I3J1679990D01*
G01*
X131625401Y-118348110D02*
G75*
G03*
X129869507Y-118362753I-866000J-1439999D01*
G01*
X139439401Y-119788111D02*
G75*
G03*
X139439401Y-119788111I-1680000J0D01*
G01*
X135939401Y-119788111D02*
G75*
G03*
X135939401Y-119788111I-1680000J0D01*
G01*
%TO.C,Q5*%
X147574044Y-101738111D02*
X147574044Y-102388111D01*
X144454044Y-101738111D02*
X144454044Y-102388111D01*
X144454044Y-101738111D02*
X144454044Y-101088111D01*
X147574044Y-101738111D02*
X147574044Y-100063111D01*
%TO.C,R15*%
X83529044Y-92539977D02*
X83529044Y-92994105D01*
X84999044Y-92539977D02*
X84999044Y-92994105D01*
%TO.C,K4*%
X132840044Y-107004111D02*
X136777044Y-107004111D01*
X126414044Y-114888111D02*
X126414044Y-104688111D01*
X140714044Y-104488111D02*
X142714044Y-104488111D01*
X132840044Y-108274111D02*
X132840044Y-107004111D01*
X128141044Y-107639111D02*
X128141044Y-107385111D01*
X139514044Y-105988111D02*
X138714044Y-105988111D01*
X139114044Y-106388111D02*
X139114044Y-105588111D01*
X126414044Y-104688111D02*
X142514044Y-104688111D01*
X142514044Y-104688111D02*
X142514044Y-114888111D01*
X135380044Y-107131111D02*
X134237044Y-108274111D01*
X140714044Y-107639111D02*
X140714044Y-107258111D01*
X136904044Y-107639111D02*
X140714044Y-107639111D01*
X136777044Y-108274111D02*
X132840044Y-108274111D01*
X142514044Y-114888111D02*
X126414044Y-114888111D01*
X142714044Y-104488111D02*
X142714044Y-106088111D01*
X132840044Y-107639111D02*
X128141044Y-107639111D01*
X136777044Y-107004111D02*
X136777044Y-108274111D01*
%TO.C,J16*%
X180514044Y-66786041D02*
X180643044Y-66658041D01*
X187099044Y-68877041D02*
X179979044Y-68877041D01*
X187099044Y-62717041D02*
X179979044Y-62717041D01*
X187339044Y-61557041D02*
X187339044Y-60917041D01*
X182934044Y-64776041D02*
X183063044Y-64648041D01*
X180719044Y-66992041D02*
X180813044Y-66898041D01*
X187339044Y-60917041D02*
X186939044Y-60917041D01*
X187099044Y-68877041D02*
X187099044Y-61157041D01*
X179979044Y-68877041D02*
X179979044Y-61157041D01*
X182764044Y-64536041D02*
X182858044Y-64443041D01*
X187099044Y-61157041D02*
X179979044Y-61157041D01*
X187099044Y-61617041D02*
X179979044Y-61617041D01*
X186155044Y-64277041D02*
G75*
G03*
X185260370Y-64036942I-866003J-1440014D01*
G01*
X183864044Y-64826041D02*
G75*
G03*
X183863540Y-66607234I1425003J-891000D01*
G01*
X184423044Y-67157042D02*
G75*
G03*
X186178938Y-67142399I866000J1439999D01*
G01*
X185289044Y-64037041D02*
G75*
G03*
X184398780Y-64292320I-3J-1679990D01*
G01*
X186729045Y-66583041D02*
G75*
G03*
X186714402Y-64827147I-1439999J866000D01*
G01*
X183469044Y-65717041D02*
G75*
G03*
X183469044Y-65717041I-1680000J0D01*
G01*
%TO.C,Q2*%
X93574044Y-101738111D02*
X93574044Y-100063111D01*
X90454044Y-101738111D02*
X90454044Y-102388111D01*
X93574044Y-101738111D02*
X93574044Y-102388111D01*
X90454044Y-101738111D02*
X90454044Y-101088111D01*
%TO.C,U2*%
X97159256Y-90353868D02*
X95899256Y-90353868D01*
X90339256Y-90353868D02*
X91599256Y-90353868D01*
X90339256Y-96363868D02*
X90339256Y-90353868D01*
X97159256Y-94113868D02*
X97159256Y-90353868D01*
%TO.C,R13*%
X103772936Y-70765000D02*
X104227064Y-70765000D01*
X103772936Y-72235000D02*
X104227064Y-72235000D01*
%TO.C,D17*%
X203304044Y-103423111D02*
X205224044Y-103423111D01*
X203304044Y-100738111D02*
X203304044Y-103423111D01*
X205224044Y-103423111D02*
X205224044Y-100738111D01*
%TO.C,C7*%
X180262671Y-94377041D02*
X181685175Y-94377041D01*
X180262671Y-91657041D02*
X181685175Y-91657041D01*
%TO.C,C4*%
X181502967Y-78805789D02*
X181502967Y-79328293D01*
X182972967Y-78805789D02*
X182972967Y-79328293D01*
%TO.C,K5*%
X154904044Y-107639111D02*
X158714044Y-107639111D01*
X160514044Y-104688111D02*
X160514044Y-114888111D01*
X154777044Y-107004111D02*
X154777044Y-108274111D01*
X154777044Y-108274111D02*
X150840044Y-108274111D01*
X146141044Y-107639111D02*
X146141044Y-107385111D01*
X160514044Y-114888111D02*
X144414044Y-114888111D01*
X150840044Y-108274111D02*
X150840044Y-107004111D01*
X150840044Y-107004111D02*
X154777044Y-107004111D01*
X153380044Y-107131111D02*
X152237044Y-108274111D01*
X150840044Y-107639111D02*
X146141044Y-107639111D01*
X144414044Y-114888111D02*
X144414044Y-104688111D01*
X158714044Y-107639111D02*
X158714044Y-107258111D01*
X158714044Y-104488111D02*
X160714044Y-104488111D01*
X157114044Y-106388111D02*
X157114044Y-105588111D01*
X144414044Y-104688111D02*
X160514044Y-104688111D01*
X157514044Y-105988111D02*
X156714044Y-105988111D01*
X160714044Y-104488111D02*
X160714044Y-106088111D01*
%TO.C,J2*%
X77454044Y-122788111D02*
X88074044Y-122788111D01*
X77454044Y-116628111D02*
X88074044Y-116628111D01*
X85289044Y-120969111D02*
X85195044Y-121062111D01*
X81619044Y-120729111D02*
X81490044Y-120857111D01*
X85119044Y-120729111D02*
X84990044Y-120857111D01*
X81789044Y-120969111D02*
X81695044Y-121062111D01*
X83834044Y-118513111D02*
X83740044Y-118607111D01*
X88074044Y-116628111D02*
X88074044Y-124348111D01*
X87334044Y-118513111D02*
X87240044Y-118607111D01*
X77454044Y-116628111D02*
X77454044Y-124348111D01*
X84039044Y-118719111D02*
X83910044Y-118847111D01*
X77454044Y-124348111D02*
X88074044Y-124348111D01*
X87539044Y-118719111D02*
X87410044Y-118847111D01*
X77214044Y-124588111D02*
X77614044Y-124588111D01*
X77214044Y-123948111D02*
X77214044Y-124588111D01*
X77454044Y-123888111D02*
X88074044Y-123888111D01*
X79264044Y-121468111D02*
G75*
G03*
X80154308Y-121212832I3J1679990D01*
G01*
X80689044Y-120679111D02*
G75*
G03*
X80689548Y-118897918I-1425003J891000D01*
G01*
X80130044Y-118348110D02*
G75*
G03*
X78374150Y-118362753I-866000J-1439999D01*
G01*
X77824043Y-118922111D02*
G75*
G03*
X77838686Y-120678005I1439999J-866000D01*
G01*
X78398044Y-121228111D02*
G75*
G03*
X79292718Y-121468210I866003J1440014D01*
G01*
X87944044Y-119788111D02*
G75*
G03*
X87944044Y-119788111I-1680000J0D01*
G01*
X84444044Y-119788111D02*
G75*
G03*
X84444044Y-119788111I-1680000J0D01*
G01*
%TO.C,C1*%
X201333530Y-72357041D02*
X199047967Y-72357041D01*
X185577967Y-73421478D02*
X185577967Y-89177041D01*
X202047967Y-71117041D02*
X200047967Y-71117041D01*
X186642404Y-72357041D02*
X188927967Y-72357041D01*
X202397967Y-73421478D02*
X202397967Y-89177041D01*
X202397967Y-89177041D02*
X199047967Y-89177041D01*
X186642404Y-72357041D02*
X185577967Y-73421478D01*
X201047967Y-70117041D02*
X201047967Y-72117041D01*
X201333530Y-72357041D02*
X202397967Y-73421478D01*
X185577967Y-89177041D02*
X188927967Y-89177041D01*
%TO.C,J10*%
X128934044Y-64776041D02*
X129063044Y-64648041D01*
X133099044Y-61157041D02*
X125979044Y-61157041D01*
X133099044Y-68877041D02*
X125979044Y-68877041D01*
X126719044Y-66992041D02*
X126813044Y-66898041D01*
X133099044Y-68877041D02*
X133099044Y-61157041D01*
X125979044Y-68877041D02*
X125979044Y-61157041D01*
X128764044Y-64536041D02*
X128858044Y-64443041D01*
X133099044Y-62717041D02*
X125979044Y-62717041D01*
X133099044Y-61617041D02*
X125979044Y-61617041D01*
X133339044Y-60917041D02*
X132939044Y-60917041D01*
X126514044Y-66786041D02*
X126643044Y-66658041D01*
X133339044Y-61557041D02*
X133339044Y-60917041D01*
X131289044Y-64037041D02*
G75*
G03*
X130398780Y-64292320I-3J-1679990D01*
G01*
X129864044Y-64826041D02*
G75*
G03*
X129863540Y-66607234I1425003J-891000D01*
G01*
X130423044Y-67157042D02*
G75*
G03*
X132178938Y-67142399I866000J1439999D01*
G01*
X132155044Y-64277041D02*
G75*
G03*
X131260370Y-64036942I-866003J-1440014D01*
G01*
X132729045Y-66583041D02*
G75*
G03*
X132714402Y-64827147I-1439999J866000D01*
G01*
X129469044Y-65717041D02*
G75*
G03*
X129469044Y-65717041I-1680000J0D01*
G01*
%TO.C,K2*%
X100777044Y-107004111D02*
X100777044Y-108274111D01*
X104714044Y-107639111D02*
X104714044Y-107258111D01*
X106714044Y-104488111D02*
X106714044Y-106088111D01*
X104714044Y-104488111D02*
X106714044Y-104488111D01*
X92141044Y-107639111D02*
X92141044Y-107385111D01*
X100777044Y-108274111D02*
X96840044Y-108274111D01*
X103514044Y-105988111D02*
X102714044Y-105988111D01*
X96840044Y-107639111D02*
X92141044Y-107639111D01*
X106514044Y-104688111D02*
X106514044Y-114888111D01*
X99380044Y-107131111D02*
X98237044Y-108274111D01*
X96840044Y-107004111D02*
X100777044Y-107004111D01*
X103114044Y-106388111D02*
X103114044Y-105588111D01*
X90414044Y-114888111D02*
X90414044Y-104688111D01*
X90414044Y-104688111D02*
X106514044Y-104688111D01*
X100904044Y-107639111D02*
X104714044Y-107639111D01*
X96840044Y-108274111D02*
X96840044Y-107004111D01*
X106514044Y-114888111D02*
X90414044Y-114888111D01*
%TO.C,JP1*%
X177750000Y-75450000D02*
X177750000Y-74050000D01*
X178450000Y-73350000D02*
X179050000Y-73350000D01*
X179750000Y-74050000D02*
X179750000Y-75450000D01*
X179050000Y-76150000D02*
X178450000Y-76150000D01*
X179750000Y-74050000D02*
G75*
G03*
X179050000Y-73350000I-699999J1D01*
G01*
X177750000Y-75450000D02*
G75*
G03*
X178450000Y-76150000I699999J-1D01*
G01*
X178450000Y-73350000D02*
G75*
G03*
X177750000Y-74050000I-1J-699999D01*
G01*
X179050000Y-76150000D02*
G75*
G03*
X179750000Y-75450000I1J699999D01*
G01*
%TO.C,R6*%
X167746859Y-74532790D02*
X168200987Y-74532790D01*
X167746859Y-73062790D02*
X168200987Y-73062790D01*
%TO.C,C13*%
X119527792Y-68265000D02*
X120050296Y-68265000D01*
X119527792Y-69735000D02*
X120050296Y-69735000D01*
%TO.C,U3*%
X121330000Y-92747041D02*
X121330000Y-85067041D01*
X118670000Y-95347041D02*
X118670000Y-94017041D01*
X121330000Y-85067041D02*
X118670000Y-85067041D01*
X120000000Y-95347041D02*
X118670000Y-95347041D01*
X118670000Y-92747041D02*
X118670000Y-85067041D01*
X121330000Y-92747041D02*
X118670000Y-92747041D01*
%TO.C,F1*%
X212067967Y-80563289D02*
X212067967Y-84970793D01*
X217407967Y-80563289D02*
X217407967Y-84970793D01*
%TO.C,U4*%
X86880000Y-89370000D02*
X86880000Y-88370000D01*
X61135000Y-89370000D02*
X67555000Y-89370000D01*
X86880000Y-71130000D02*
X86880000Y-72130000D01*
X61135000Y-89370000D02*
X61135000Y-71130000D01*
X86100000Y-71130000D02*
X86880000Y-71130000D01*
X61135000Y-71130000D02*
X67555000Y-71130000D01*
X67555000Y-89370000D02*
X67555000Y-89750000D01*
X86100000Y-89370000D02*
X86880000Y-89370000D01*
%TO.C,D8*%
X142514044Y-103425357D02*
X138614044Y-103425357D01*
X142514044Y-103425357D02*
X142514044Y-101425357D01*
X142514044Y-101425357D02*
X138614044Y-101425357D01*
%TO.C,C8*%
X180262671Y-86907041D02*
X181685175Y-86907041D01*
X180262671Y-89627041D02*
X181685175Y-89627041D01*
%TD*%
M02*
