%TF.GenerationSoftware,KiCad,Pcbnew,(6.0.0-0)*%
%TF.CreationDate,2022-04-07T23:04:40-05:00*%
%TF.ProjectId,ESP32RelaySwitcher,45535033-3252-4656-9c61-795377697463,rev?*%
%TF.SameCoordinates,Original*%
%TF.FileFunction,Soldermask,Top*%
%TF.FilePolarity,Negative*%
%FSLAX46Y46*%
G04 Gerber Fmt 4.6, Leading zero omitted, Abs format (unit mm)*
G04 Created by KiCad (PCBNEW (6.0.0-0)) date 2022-04-07 23:04:40*
%MOMM*%
%LPD*%
G01*
G04 APERTURE LIST*
G04 Aperture macros list*
%AMRoundRect*
0 Rectangle with rounded corners*
0 $1 Rounding radius*
0 $2 $3 $4 $5 $6 $7 $8 $9 X,Y pos of 4 corners*
0 Add a 4 corners polygon primitive as box body*
4,1,4,$2,$3,$4,$5,$6,$7,$8,$9,$2,$3,0*
0 Add four circle primitives for the rounded corners*
1,1,$1+$1,$2,$3*
1,1,$1+$1,$4,$5*
1,1,$1+$1,$6,$7*
1,1,$1+$1,$8,$9*
0 Add four rect primitives between the rounded corners*
20,1,$1+$1,$2,$3,$4,$5,0*
20,1,$1+$1,$4,$5,$6,$7,0*
20,1,$1+$1,$6,$7,$8,$9,0*
20,1,$1+$1,$8,$9,$2,$3,0*%
%AMFreePoly0*
4,1,22,0.500000,-0.750000,0.000000,-0.750000,0.000000,-0.745033,-0.079941,-0.743568,-0.215256,-0.701293,-0.333266,-0.622738,-0.424486,-0.514219,-0.481581,-0.384460,-0.499164,-0.250000,-0.500000,-0.250000,-0.500000,0.250000,-0.499164,0.250000,-0.499963,0.256109,-0.478152,0.396186,-0.417904,0.524511,-0.324060,0.630769,-0.204165,0.706417,-0.067858,0.745374,0.000000,0.744959,0.000000,0.750000,
0.500000,0.750000,0.500000,-0.750000,0.500000,-0.750000,$1*%
%AMFreePoly1*
4,1,20,0.000000,0.744959,0.073905,0.744508,0.209726,0.703889,0.328688,0.626782,0.421226,0.519385,0.479903,0.390333,0.500000,0.250000,0.500000,-0.250000,0.499851,-0.262216,0.476331,-0.402017,0.414519,-0.529596,0.319384,-0.634700,0.198574,-0.708877,0.061801,-0.746166,0.000000,-0.745033,0.000000,-0.750000,-0.500000,-0.750000,-0.500000,0.750000,0.000000,0.750000,0.000000,0.744959,
0.000000,0.744959,$1*%
G04 Aperture macros list end*
%ADD10RoundRect,0.243750X0.243750X0.456250X-0.243750X0.456250X-0.243750X-0.456250X0.243750X-0.456250X0*%
%ADD11RoundRect,0.243750X0.456250X-0.243750X0.456250X0.243750X-0.456250X0.243750X-0.456250X-0.243750X0*%
%ADD12RoundRect,0.250000X0.262500X0.450000X-0.262500X0.450000X-0.262500X-0.450000X0.262500X-0.450000X0*%
%ADD13RoundRect,0.250000X0.475000X-0.250000X0.475000X0.250000X-0.475000X0.250000X-0.475000X-0.250000X0*%
%ADD14RoundRect,0.250000X-0.450000X0.262500X-0.450000X-0.262500X0.450000X-0.262500X0.450000X0.262500X0*%
%ADD15R,2.400000X2.400000*%
%ADD16C,2.400000*%
%ADD17R,1.501140X1.501140*%
%ADD18C,1.501140*%
%ADD19R,1.200000X1.600000*%
%ADD20R,0.900000X1.200000*%
%ADD21RoundRect,0.150000X-0.150000X0.587500X-0.150000X-0.587500X0.150000X-0.587500X0.150000X0.587500X0*%
%ADD22R,2.600000X3.100000*%
%ADD23R,1.550000X0.600000*%
%ADD24RoundRect,0.250000X-0.325000X-1.100000X0.325000X-1.100000X0.325000X1.100000X-0.325000X1.100000X0*%
%ADD25RoundRect,0.250000X-0.475000X0.250000X-0.475000X-0.250000X0.475000X-0.250000X0.475000X0.250000X0*%
%ADD26RoundRect,0.250000X0.250000X0.475000X-0.250000X0.475000X-0.250000X-0.475000X0.250000X-0.475000X0*%
%ADD27RoundRect,0.250000X-0.262500X-0.450000X0.262500X-0.450000X0.262500X0.450000X-0.262500X0.450000X0*%
%ADD28C,0.800000*%
%ADD29C,6.400000*%
%ADD30C,1.600000*%
%ADD31RoundRect,0.400000X0.400000X0.400000X-0.400000X0.400000X-0.400000X-0.400000X0.400000X-0.400000X0*%
%ADD32R,2.900000X5.400000*%
%ADD33C,2.100000*%
%ADD34C,1.750000*%
%ADD35R,1.700000X1.700000*%
%ADD36O,1.700000X1.700000*%
%ADD37RoundRect,0.250000X0.450000X-0.262500X0.450000X0.262500X-0.450000X0.262500X-0.450000X-0.262500X0*%
%ADD38RoundRect,0.250000X-0.250000X-0.475000X0.250000X-0.475000X0.250000X0.475000X-0.250000X0.475000X0*%
%ADD39RoundRect,0.250200X-0.649800X-0.649800X0.649800X-0.649800X0.649800X0.649800X-0.649800X0.649800X0*%
%ADD40C,1.800000*%
%ADD41R,1.500000X2.000000*%
%ADD42R,3.800000X2.000000*%
%ADD43RoundRect,0.249998X-4.550002X3.650002X-4.550002X-3.650002X4.550002X-3.650002X4.550002X3.650002X0*%
%ADD44FreePoly0,270.000000*%
%ADD45FreePoly1,270.000000*%
%ADD46RoundRect,0.250000X-2.475000X0.712500X-2.475000X-0.712500X2.475000X-0.712500X2.475000X0.712500X0*%
%ADD47R,0.900000X2.000000*%
%ADD48R,2.000000X0.900000*%
%ADD49R,5.000000X5.000000*%
G04 APERTURE END LIST*
D10*
%TO.C,D19*%
X110187500Y-92000000D03*
X108312500Y-92000000D03*
%TD*%
D11*
%TO.C,D11*%
X150264044Y-102675611D03*
X150264044Y-100800611D03*
%TD*%
D12*
%TO.C,R16*%
X104899956Y-88500000D03*
X103074956Y-88500000D03*
%TD*%
D13*
%TO.C,C12*%
X116250000Y-93950000D03*
X116250000Y-92050000D03*
%TD*%
D14*
%TO.C,R2*%
X99514044Y-100825611D03*
X99514044Y-102650611D03*
%TD*%
%TO.C,R8*%
X171514044Y-100825611D03*
X171514044Y-102650611D03*
%TD*%
D15*
%TO.C,J9*%
X200500000Y-119776777D03*
D16*
X204000000Y-119776777D03*
X207500000Y-119776777D03*
%TD*%
D17*
%TO.C,K8*%
X212714044Y-105988111D03*
D18*
X200014044Y-105988111D03*
X200014044Y-113608111D03*
X207634044Y-113608111D03*
X212714044Y-113608111D03*
%TD*%
D19*
%TO.C,D1*%
X208767546Y-70401805D03*
X208767546Y-76121805D03*
X204667546Y-76121805D03*
X204667546Y-70401805D03*
%TD*%
D20*
%TO.C,D12*%
X177914044Y-102450197D03*
X174614044Y-102450197D03*
%TD*%
D15*
%TO.C,J13*%
X158289044Y-65717041D03*
D16*
X154789044Y-65717041D03*
%TD*%
D17*
%TO.C,K3*%
X122714044Y-105988111D03*
D18*
X110014044Y-105988111D03*
X110014044Y-113608111D03*
X117634044Y-113608111D03*
X122714044Y-113608111D03*
%TD*%
D21*
%TO.C,Q4*%
X128964044Y-100800611D03*
X127064044Y-100800611D03*
X128014044Y-102675611D03*
%TD*%
%TO.C,Q1*%
X74964044Y-100800611D03*
X73064044Y-100800611D03*
X74014044Y-102675611D03*
%TD*%
D22*
%TO.C,U1*%
X169487967Y-78017041D03*
D23*
X172187967Y-79922041D03*
X172187967Y-78652041D03*
X172187967Y-77382041D03*
X172187967Y-76112041D03*
X166787967Y-76112041D03*
X166787967Y-77382041D03*
X166787967Y-78652041D03*
X166787967Y-79922041D03*
%TD*%
D13*
%TO.C,C16*%
X99000000Y-83200000D03*
X99000000Y-81300000D03*
%TD*%
D24*
%TO.C,C9*%
X179498923Y-83517041D03*
X182448923Y-83517041D03*
%TD*%
D25*
%TO.C,C14*%
X77264044Y-91817041D03*
X77264044Y-93717041D03*
%TD*%
D26*
%TO.C,C5*%
X163937967Y-76800000D03*
X162037967Y-76800000D03*
%TD*%
D15*
%TO.C,J17*%
X194289044Y-65717041D03*
D16*
X190789044Y-65717041D03*
%TD*%
D27*
%TO.C,R5*%
X162075467Y-73800000D03*
X163900467Y-73800000D03*
%TD*%
D10*
%TO.C,D18*%
X110187500Y-95497117D03*
X108312500Y-95497117D03*
%TD*%
D20*
%TO.C,D2*%
X87914044Y-102408703D03*
X84614044Y-102408703D03*
%TD*%
D25*
%TO.C,C3*%
X178737967Y-78117041D03*
X178737967Y-80017041D03*
%TD*%
D28*
%TO.C,H1*%
X70114044Y-120488111D03*
X74211100Y-122185167D03*
X70816988Y-122185167D03*
X70816988Y-118791055D03*
D29*
X72514044Y-120488111D03*
D28*
X72514044Y-122888111D03*
X72514044Y-118088111D03*
X74914044Y-120488111D03*
X74211100Y-118791055D03*
%TD*%
D10*
%TO.C,D20*%
X110187500Y-71500000D03*
X108312500Y-71500000D03*
%TD*%
D20*
%TO.C,D14*%
X195914044Y-102433373D03*
X192614044Y-102433373D03*
%TD*%
D30*
%TO.C,SW1*%
X217977967Y-75807041D03*
X217977967Y-70727041D03*
D31*
X212897967Y-70727041D03*
D30*
X212897967Y-73267041D03*
X212897967Y-75807041D03*
%TD*%
D15*
%TO.C,J11*%
X140289044Y-65717041D03*
D16*
X136789044Y-65717041D03*
%TD*%
D14*
%TO.C,R3*%
X117514044Y-100825611D03*
X117514044Y-102650611D03*
%TD*%
D20*
%TO.C,D16*%
X213914044Y-102238111D03*
X210614044Y-102238111D03*
%TD*%
D21*
%TO.C,Q3*%
X110964044Y-100800611D03*
X109064044Y-100800611D03*
X110014044Y-102675611D03*
%TD*%
D11*
%TO.C,D3*%
X78264044Y-102675611D03*
X78264044Y-100800611D03*
%TD*%
D15*
%TO.C,J14*%
X167289044Y-65717041D03*
D16*
X163789044Y-65717041D03*
%TD*%
D15*
%TO.C,J3*%
X94750000Y-119787644D03*
D16*
X98250000Y-119787644D03*
X101750000Y-119787644D03*
%TD*%
D28*
%TO.C,H3*%
X217887610Y-65017041D03*
X215487610Y-62617041D03*
D29*
X215487610Y-65017041D03*
D28*
X213087610Y-65017041D03*
X213790554Y-63319985D03*
X213790554Y-66714097D03*
X217184666Y-63319985D03*
X217184666Y-66714097D03*
X215487610Y-67417041D03*
%TD*%
D13*
%TO.C,C11*%
X80764044Y-93717041D03*
X80764044Y-91817041D03*
%TD*%
D25*
%TO.C,C10*%
X88000000Y-96050000D03*
X88000000Y-97950000D03*
%TD*%
D11*
%TO.C,D15*%
X186264044Y-102675611D03*
X186264044Y-100800611D03*
%TD*%
D15*
%TO.C,J4*%
X112755581Y-119788111D03*
D16*
X116255581Y-119788111D03*
X119755581Y-119788111D03*
%TD*%
D32*
%TO.C,L1*%
X166023923Y-88250767D03*
X175923923Y-88250767D03*
%TD*%
D17*
%TO.C,K1*%
X86714044Y-105988111D03*
D18*
X74014044Y-105988111D03*
X74014044Y-113608111D03*
X81634044Y-113608111D03*
X86714044Y-113608111D03*
%TD*%
D33*
%TO.C,SW2*%
X123274044Y-65969541D03*
X116264044Y-65969541D03*
D34*
X117514044Y-63479541D03*
X122014044Y-63479541D03*
%TD*%
D15*
%TO.C,J12*%
X149289044Y-65717041D03*
D16*
X145789044Y-65717041D03*
%TD*%
D28*
%TO.C,H4*%
X72514044Y-62617041D03*
X70816988Y-66714097D03*
D29*
X72514044Y-65017041D03*
D28*
X70816988Y-63319985D03*
X74211100Y-66714097D03*
X72514044Y-67417041D03*
X74914044Y-65017041D03*
X70114044Y-65017041D03*
X74211100Y-63319985D03*
%TD*%
D11*
%TO.C,D13*%
X168264044Y-102675611D03*
X168264044Y-100800611D03*
%TD*%
D21*
%TO.C,Q6*%
X164964044Y-100800611D03*
X163064044Y-100800611D03*
X164014044Y-102675611D03*
%TD*%
D28*
%TO.C,H2*%
X215487610Y-122888111D03*
X217887610Y-120488111D03*
X217184666Y-118791055D03*
X215487610Y-118088111D03*
X213790554Y-122185167D03*
X213790554Y-118791055D03*
X217184666Y-122185167D03*
X213087610Y-120488111D03*
D29*
X215487610Y-120488111D03*
%TD*%
D25*
%TO.C,C15*%
X70264044Y-91805673D03*
X70264044Y-93705673D03*
%TD*%
D15*
%TO.C,J6*%
X148750360Y-119788111D03*
D16*
X152250360Y-119788111D03*
X155750360Y-119788111D03*
%TD*%
D11*
%TO.C,D7*%
X114264044Y-102675611D03*
X114264044Y-100800611D03*
%TD*%
D15*
%TO.C,J7*%
X166760800Y-119788111D03*
D16*
X170260800Y-119788111D03*
X173760800Y-119788111D03*
%TD*%
D35*
%TO.C,J18*%
X79264044Y-63267041D03*
D36*
X81804044Y-63267041D03*
X84344044Y-63267041D03*
X86884044Y-63267041D03*
X89424044Y-63267041D03*
X91964044Y-63267041D03*
X94504044Y-63267041D03*
X97044044Y-63267041D03*
X99584044Y-63267041D03*
X102124044Y-63267041D03*
%TD*%
D17*
%TO.C,K7*%
X194714044Y-105988111D03*
D18*
X182014044Y-105988111D03*
X182014044Y-113608111D03*
X189634044Y-113608111D03*
X194714044Y-113608111D03*
%TD*%
D33*
%TO.C,SW3*%
X105764044Y-65969541D03*
X112774044Y-65969541D03*
D34*
X107014044Y-63479541D03*
X111514044Y-63479541D03*
%TD*%
D17*
%TO.C,K6*%
X176714044Y-105988111D03*
D18*
X164014044Y-105988111D03*
X164014044Y-113608111D03*
X171634044Y-113608111D03*
X176714044Y-113608111D03*
%TD*%
D25*
%TO.C,C2*%
X175237967Y-78117041D03*
X175237967Y-80017041D03*
%TD*%
D27*
%TO.C,R12*%
X103074956Y-92000000D03*
X104899956Y-92000000D03*
%TD*%
D14*
%TO.C,R10*%
X207514044Y-100825611D03*
X207514044Y-102650611D03*
%TD*%
D20*
%TO.C,D6*%
X123914044Y-102408703D03*
X120614044Y-102408703D03*
%TD*%
D14*
%TO.C,R1*%
X81514044Y-100825611D03*
X81514044Y-102650611D03*
%TD*%
%TO.C,R9*%
X189514044Y-100825611D03*
X189514044Y-102650611D03*
%TD*%
D30*
%TO.C,RV1*%
X208618183Y-79517041D03*
X206818183Y-84517041D03*
%TD*%
D21*
%TO.C,Q8*%
X200964044Y-100800611D03*
X199064044Y-100800611D03*
X200014044Y-102675611D03*
%TD*%
D15*
%TO.C,J8*%
X184759891Y-119788111D03*
D16*
X188259891Y-119788111D03*
X191759891Y-119788111D03*
%TD*%
D21*
%TO.C,Q7*%
X182964044Y-100800611D03*
X181064044Y-100800611D03*
X182014044Y-102675611D03*
%TD*%
D14*
%TO.C,R7*%
X153514044Y-100825611D03*
X153514044Y-102650611D03*
%TD*%
D37*
%TO.C,R14*%
X73764044Y-93679541D03*
X73764044Y-91854541D03*
%TD*%
D15*
%TO.C,J15*%
X176289044Y-65717041D03*
D16*
X172789044Y-65717041D03*
%TD*%
D11*
%TO.C,D5*%
X96264044Y-102675611D03*
X96264044Y-100800611D03*
%TD*%
D38*
%TO.C,C6*%
X162037967Y-79900000D03*
X163937967Y-79900000D03*
%TD*%
D20*
%TO.C,D4*%
X105914044Y-102408703D03*
X102614044Y-102408703D03*
%TD*%
D14*
%TO.C,R4*%
X135514044Y-100825611D03*
X135514044Y-102650611D03*
%TD*%
D39*
%TO.C,U5*%
X91210000Y-83225000D03*
D40*
X93750000Y-83225000D03*
X96290000Y-83225000D03*
%TD*%
D27*
%TO.C,R11*%
X103074956Y-95500000D03*
X104899956Y-95500000D03*
%TD*%
D20*
%TO.C,D10*%
X159914044Y-102425357D03*
X156614044Y-102425357D03*
%TD*%
D15*
%TO.C,J1*%
X214787967Y-94017041D03*
D16*
X214787967Y-90517041D03*
%TD*%
D11*
%TO.C,D9*%
X132264044Y-102675611D03*
X132264044Y-100800611D03*
%TD*%
D15*
%TO.C,J5*%
X130759401Y-119788111D03*
D16*
X134259401Y-119788111D03*
X137759401Y-119788111D03*
%TD*%
D21*
%TO.C,Q5*%
X146964044Y-100800611D03*
X145064044Y-100800611D03*
X146014044Y-102675611D03*
%TD*%
D14*
%TO.C,R15*%
X84264044Y-91854541D03*
X84264044Y-93679541D03*
%TD*%
D17*
%TO.C,K4*%
X140714044Y-105988111D03*
D18*
X128014044Y-105988111D03*
X128014044Y-113608111D03*
X135634044Y-113608111D03*
X140714044Y-113608111D03*
%TD*%
D15*
%TO.C,J16*%
X185289044Y-65717041D03*
D16*
X181789044Y-65717041D03*
%TD*%
D21*
%TO.C,Q2*%
X92964044Y-100800611D03*
X91064044Y-100800611D03*
X92014044Y-102675611D03*
%TD*%
D41*
%TO.C,U2*%
X91449256Y-95413868D03*
X93749256Y-95413868D03*
D42*
X93749256Y-89113868D03*
D41*
X96049256Y-95413868D03*
%TD*%
D27*
%TO.C,R13*%
X103087500Y-71500000D03*
X104912500Y-71500000D03*
%TD*%
D11*
%TO.C,D17*%
X204264044Y-102675611D03*
X204264044Y-100800611D03*
%TD*%
D24*
%TO.C,C7*%
X179498923Y-93017041D03*
X182448923Y-93017041D03*
%TD*%
D25*
%TO.C,C4*%
X182237967Y-78117041D03*
X182237967Y-80017041D03*
%TD*%
D17*
%TO.C,K5*%
X158714044Y-105988111D03*
D18*
X146014044Y-105988111D03*
X146014044Y-113608111D03*
X153634044Y-113608111D03*
X158714044Y-113608111D03*
%TD*%
D15*
%TO.C,J2*%
X79264044Y-119788111D03*
D16*
X82764044Y-119788111D03*
X86264044Y-119788111D03*
%TD*%
D43*
%TO.C,C1*%
X193987967Y-74517041D03*
X193987967Y-87017041D03*
%TD*%
D15*
%TO.C,J10*%
X131289044Y-65717041D03*
D16*
X127789044Y-65717041D03*
%TD*%
D17*
%TO.C,K2*%
X104714044Y-105988111D03*
D18*
X92014044Y-105988111D03*
X92014044Y-113608111D03*
X99634044Y-113608111D03*
X104714044Y-113608111D03*
%TD*%
D44*
%TO.C,JP1*%
X178750000Y-74100000D03*
D45*
X178750000Y-75400000D03*
%TD*%
D27*
%TO.C,R6*%
X167061423Y-73797790D03*
X168886423Y-73797790D03*
%TD*%
D38*
%TO.C,C13*%
X118839044Y-69000000D03*
X120739044Y-69000000D03*
%TD*%
D35*
%TO.C,U3*%
X120000000Y-94017041D03*
D36*
X120000000Y-91477041D03*
X120000000Y-88937041D03*
X120000000Y-86397041D03*
%TD*%
D46*
%TO.C,F1*%
X214737967Y-79379541D03*
X214737967Y-86154541D03*
%TD*%
D47*
%TO.C,U4*%
X68745000Y-88750000D03*
X70015000Y-88750000D03*
X71285000Y-88750000D03*
X72555000Y-88750000D03*
X73825000Y-88750000D03*
X75095000Y-88750000D03*
X76365000Y-88750000D03*
X77635000Y-88750000D03*
X78905000Y-88750000D03*
X80175000Y-88750000D03*
X81445000Y-88750000D03*
X82715000Y-88750000D03*
X83985000Y-88750000D03*
X85255000Y-88750000D03*
D48*
X86255000Y-85965000D03*
X86255000Y-84695000D03*
X86255000Y-83425000D03*
X86255000Y-82155000D03*
X86255000Y-80885000D03*
X86255000Y-79615000D03*
X86255000Y-78345000D03*
X86255000Y-77075000D03*
X86255000Y-75805000D03*
X86255000Y-74535000D03*
D47*
X85255000Y-71750000D03*
X83985000Y-71750000D03*
X82715000Y-71750000D03*
X81445000Y-71750000D03*
X80175000Y-71750000D03*
X78905000Y-71750000D03*
X77635000Y-71750000D03*
X76365000Y-71750000D03*
X75095000Y-71750000D03*
X73825000Y-71750000D03*
X72555000Y-71750000D03*
X71285000Y-71750000D03*
X70015000Y-71750000D03*
X68745000Y-71750000D03*
D49*
X76245000Y-81250000D03*
%TD*%
D20*
%TO.C,D8*%
X141914044Y-102425357D03*
X138614044Y-102425357D03*
%TD*%
D24*
%TO.C,C8*%
X179498923Y-88267041D03*
X182448923Y-88267041D03*
%TD*%
M02*
