M48
; DRILL file {KiCad (6.0.0-0)} date Saturday, April 09, 2022 at 04:09:39 AM
; FORMAT={-:-/ absolute / inch / decimal}
; #@! TF.CreationDate,2022-04-09T04:09:39-05:00
; #@! TF.GenerationSoftware,Kicad,Pcbnew,(6.0.0-0)
; #@! TF.FileFunction,Plated,1,2,PTH
FMAT,2
INCH
; #@! TA.AperFunction,Plated,PTH,ComponentDrill
T1C0.0118
; #@! TA.AperFunction,Plated,PTH,ViaDrill
T2C0.0157
; #@! TA.AperFunction,Plated,PTH,ViaDrill
T3C0.0197
; #@! TA.AperFunction,Plated,PTH,ComponentDrill
T4C0.0197
; #@! TA.AperFunction,Plated,PTH,ViaDrill
T5C0.0236
; #@! TA.AperFunction,Plated,PTH,ComponentDrill
T6C0.0315
; #@! TA.AperFunction,Plated,PTH,ComponentDrill
T7C0.0315
; #@! TA.AperFunction,Plated,PTH,ComponentDrill
T8C0.0350
; #@! TA.AperFunction,Plated,PTH,ComponentDrill
T9C0.0354
; #@! TA.AperFunction,Plated,PTH,ComponentDrill
T10C0.0390
; #@! TA.AperFunction,Plated,PTH,ComponentDrill
T11C0.0394
; #@! TA.AperFunction,Plated,PTH,ComponentDrill
T12C0.0472
; #@! TA.AperFunction,Plated,PTH,ComponentDrill
T13C0.0512
; #@! TA.AperFunction,Plated,PTH,ComponentDrill
T14C0.1260
%
G90
G05
T1
X6.6472Y-2.9948
X6.6472Y-3.0459
X6.6472Y-3.0971
X6.6472Y-3.1483
X6.6983Y-2.9948
X6.6983Y-3.0459
X6.6983Y-3.0971
X6.6983Y-3.1483
T2
X2.8346Y-3.3661
X2.9336Y-3.1295
X2.9336Y-3.1787
X2.9828Y-3.1295
X3.0222Y-3.2672
X3.0565Y-3.5413
X3.0714Y-3.218
X3.0714Y-3.2672
X3.0813Y-3.9409
X3.1065Y-3.5413
X3.1565Y-3.5413
X3.2065Y-2.7776
X3.2065Y-3.5413
X3.2467Y-2.8878
X3.2467Y-2.9449
X3.2469Y-3.002
X3.2565Y-3.5413
X3.2738Y-2.9164
X3.2738Y-2.9735
X3.2874Y-2.7461
X3.3065Y-3.031
X3.3065Y-3.5413
X3.3268Y-3.2972
X3.3484Y-3.3344
X3.3565Y-3.5413
X3.4449Y-2.9843
X3.4946Y-3.7102
X3.66Y-4.0055
X3.6817Y-3.3755
X3.6817Y-3.4247
X3.6817Y-3.4739
X3.6817Y-3.5232
X3.6817Y-3.5724
X3.6817Y-3.6216
X3.7309Y-3.3755
X3.7309Y-3.4247
X3.7309Y-3.4739
X3.7309Y-3.5232
X3.7309Y-3.5724
X3.7309Y-3.6216
X3.7801Y-3.3755
X3.7801Y-3.4247
X3.7801Y-3.4739
X3.7801Y-3.5232
X3.7801Y-3.5724
X3.7801Y-3.6216
X3.8622Y-3.031
X4.3884Y-3.9853
X5.0773Y-4.0055
X5.7861Y-4.0056
X6.3273Y-3.0232
X6.3273Y-3.1452
X6.3785Y-2.9641
X6.3785Y-3.0822
X6.3785Y-3.2082
X6.4946Y-4.0055
X6.6443Y-2.9523
X6.6443Y-3.1984
X6.6935Y-2.9523
X6.6935Y-3.1984
X6.7427Y-3.1984
X6.7919Y-3.1984
X6.8411Y-3.1491
X6.8411Y-3.1984
X6.8903Y-3.1984
X6.9395Y-3.1984
X7.2033Y-4.0056
X7.2446Y-3.1688
X7.2446Y-3.218
X7.2446Y-3.2672
X7.2446Y-3.3165
X7.2446Y-3.3657
X7.2446Y-3.4149
X7.2446Y-3.4641
X7.2446Y-3.5133
X7.2446Y-3.5625
X7.2446Y-3.6117
X7.2446Y-3.6609
X7.2446Y-3.7102
X7.9119Y-4.0055
T3
X6.3809Y-2.8681
X7.0315Y-3.2677
X7.0315Y-3.3071
T4
X2.7604Y-2.5597
X2.7604Y-4.7436
X2.7881Y-2.4929
X2.7881Y-2.6265
X2.7881Y-4.6768
X2.7881Y-4.8104
X2.8549Y-2.4652
X2.8549Y-2.6542
X2.8549Y-4.6491
X2.8549Y-4.8381
X2.9217Y-2.4929
X2.9217Y-2.6265
X2.9217Y-4.6768
X2.9217Y-4.8104
X2.9494Y-2.5597
X2.9494Y-4.7436
X8.3893Y-2.5597
X8.3893Y-4.7436
X8.417Y-2.4929
X8.417Y-2.6265
X8.417Y-4.6768
X8.417Y-4.8104
X8.4838Y-2.4652
X8.4838Y-2.6542
X8.4838Y-4.6491
X8.4838Y-4.8381
X8.5506Y-2.4929
X8.5506Y-2.6265
X8.5506Y-4.6768
X8.5506Y-4.8104
X8.5783Y-2.5597
X8.5783Y-4.7436
T5
X3.8195Y-3.7397
T6
X8.1424Y-3.3274
X8.2133Y-3.1306
T7
X2.9139Y-4.1728
X2.9139Y-4.4728
X3.2139Y-4.4728
X3.4139Y-4.1728
X3.4139Y-4.4728
X3.6226Y-4.1728
X3.6226Y-4.4728
X3.9226Y-4.4728
X4.1226Y-4.1728
X4.1226Y-4.4728
X4.3313Y-4.1728
X4.3313Y-4.4728
X4.6313Y-4.4728
X4.8313Y-4.1728
X4.8313Y-4.4728
X5.0399Y-4.1728
X5.0399Y-4.4728
X5.3399Y-4.4728
X5.5399Y-4.1728
X5.5399Y-4.4728
X5.7486Y-4.1728
X5.7486Y-4.4728
X6.0486Y-4.4728
X6.2486Y-4.1728
X6.2486Y-4.4728
X6.4572Y-4.1728
X6.4572Y-4.4728
X6.7572Y-4.4728
X6.9572Y-4.1728
X6.9572Y-4.4728
X7.1659Y-4.1728
X7.1659Y-4.4728
X7.4659Y-4.4728
X7.6659Y-4.1728
X7.6659Y-4.4728
X7.8746Y-4.1728
X7.8746Y-4.4728
X8.1746Y-4.4728
X8.3746Y-4.1728
X8.3746Y-4.4728
T8
X8.3818Y-2.7845
X8.3818Y-2.8845
X8.3818Y-2.9845
X8.5818Y-2.7845
X8.5818Y-2.9845
T9
X3.5909Y-3.2171
X3.6909Y-3.2171
X3.7909Y-3.2171
T10
X4.2132Y-2.4992
X4.3903Y-2.4992
X4.6265Y-2.4992
X4.8037Y-2.4992
T11
X3.1206Y-2.4908
X3.2206Y-2.4908
X3.3206Y-2.4908
X3.4206Y-2.4908
X3.5206Y-2.4908
X3.6206Y-2.4908
X3.7206Y-2.4908
X3.8206Y-2.4908
X3.9206Y-2.4908
X4.0206Y-2.4908
T12
X3.1206Y-4.7161
X3.2584Y-4.7161
X3.3962Y-4.7161
X3.7303Y-4.716
X3.8681Y-4.716
X4.0059Y-4.716
X4.2742Y-3.0999
X4.2742Y-3.2377
X4.2742Y-3.3755
X4.4392Y-4.7161
X4.577Y-4.7161
X4.7148Y-4.7161
X5.0311Y-2.5873
X5.148Y-4.7161
X5.1689Y-2.5873
X5.2858Y-4.7161
X5.3854Y-2.5873
X5.4236Y-4.7161
X5.5232Y-2.5873
X5.7397Y-2.5873
X5.8563Y-4.7161
X5.8775Y-2.5873
X5.9941Y-4.7161
X6.0941Y-2.5873
X6.1319Y-4.7161
X6.2319Y-2.5873
X6.4484Y-2.5873
X6.5654Y-4.7161
X6.5862Y-2.5873
X6.7032Y-4.7161
X6.8027Y-2.5873
X6.841Y-4.7161
X6.9405Y-2.5873
X7.157Y-2.5873
X7.274Y-4.7161
X7.2948Y-2.5873
X7.4118Y-4.7161
X7.5114Y-2.5873
X7.5496Y-4.7161
X7.6492Y-2.5873
X7.8937Y-4.7156
X8.0315Y-4.7156
X8.1693Y-4.7156
X8.4562Y-3.5637
X8.4562Y-3.7015
T13
X4.1639Y-2.5972
X4.4399Y-2.5972
X4.5773Y-2.5972
X4.8533Y-2.5972
T14
X2.8549Y-2.5597
X2.8549Y-4.7436
X8.4838Y-2.5597
X8.4838Y-4.7436
T0
M30
